<?xml version="1.0" standalone="no"?>
<!DOCTYPE svg PUBLIC "-//W3C//DTD SVG 1.1//EN" "http://www.w3.org/Graphics/SVG/1.1/DTD/svg11.dtd" >
<svg xmlns="http://www.w3.org/2000/svg">
<metadata></metadata>
<defs>
<font id="de5_display_egyptian_semiboRg" horiz-adv-x="1439" >
<font-face units-per-em="2048" ascent="1638" descent="-410" />
<missing-glyph horiz-adv-x="368" />
<glyph unicode="&#xfb01;" horiz-adv-x="1261" d="M31 0v150l129 30v709h-129v139l129 49v123q0 88 28 154t77 104.5t109.5 57t131.5 18.5q103 0 190 -37v-182q-40 8 -80 8q-70 0 -104.5 -35t-34.5 -121v-88h602l31 -14v-885l123 -30v-150h-545v150l105 26v713h-316v-713l103 -26v-150h-549zM778 1362q0 72 49.5 117 t120.5 45q73 0 122.5 -45t49.5 -117q0 -71 -49.5 -116.5t-122.5 -45.5q-71 0 -120.5 45.5t-49.5 116.5z" />
<glyph unicode="&#xfb02;" horiz-adv-x="1265" d="M31 0v150l129 30v709h-129v139l129 49v113q0 93 33 161.5t91.5 107t128.5 57t154 18.5q124 0 299 -59l213 59l31 -14v-1344l127 -26v-150h-549v150l105 26v1124q-90 23 -146 23q-90 0 -130 -36t-40 -132v-76h195v-190h-195v-713l103 -26v-150h-549z" />
<glyph unicode="&#xfb03;" horiz-adv-x="1894" d="M31 0v150l129 30v709h-129v139l129 49v94q0 91 28.5 159t78 106t110 56.5t131.5 18.5q113 0 203 -36v-183q-42 11 -90 11q-71 0 -107.5 -37t-36.5 -129v-58h316v121q0 88 28 154t77 104.5t109.5 57t131.5 18.5q103 0 190 -37v-182q-40 8 -80 8q-70 0 -104.5 -35 t-34.5 -121v-88h602l31 -14v-885l123 -30v-150h-545v150l104 26v713h-315v-713l102 -26v-150h-524v150l105 26v713h-316v-713l103 -26v-150h-549zM1411 1362q0 72 49.5 117t120.5 45q73 0 122.5 -45t49.5 -117q0 -71 -49.5 -116.5t-122.5 -45.5q-71 0 -120.5 45.5 t-49.5 116.5z" />
<glyph unicode="&#xfb04;" horiz-adv-x="1898" d="M31 0v150l129 30v709h-129v139l129 49v94q0 91 28.5 159t78 106t110 56.5t131.5 18.5q113 0 203 -36v-183q-42 11 -90 11q-71 0 -107.5 -37t-36.5 -129v-58h316v111q0 93 33 161.5t91.5 107t128.5 57t154 18.5q124 0 299 -59l213 59l31 -14v-1344l127 -26v-150h-549v150 l104 26v1124q-90 23 -145 23q-90 0 -130 -36t-40 -132v-76h195v-190h-195v-713l102 -26v-150h-524v150l105 26v713h-316v-713l103 -26v-150h-549z" />
<glyph horiz-adv-x="2048" />
<glyph horiz-adv-x="2048" />
<glyph unicode="&#xd;" horiz-adv-x="2048" />
<glyph unicode=" "  horiz-adv-x="368" />
<glyph unicode="&#x09;" horiz-adv-x="368" />
<glyph unicode="&#xa0;" horiz-adv-x="368" />
<glyph unicode="!" horiz-adv-x="546" d="M96 1419h344l-69 -991h-211zM100 135q0 67 48.5 114.5t121.5 47.5q71 0 118.5 -47.5t47.5 -114.5q0 -66 -47.5 -113t-118.5 -47q-72 0 -121 47t-49 113z" />
<glyph unicode="&#x22;" horiz-adv-x="880" d="M78 973q1 18 10 91t15 161.5t6 193.5h303q-8 -205 -129 -446h-205zM469 973q1 16 9.5 90.5t14 162.5t5.5 193h305q-8 -205 -129 -446h-205z" />
<glyph unicode="#" horiz-adv-x="1081" d="M49 367v258h197l30 192h-155v258h196l56 344h176l-55 -344h204l56 344h176l-56 -344h160v-258h-200l-31 -192h160v-258h-201l-57 -367h-177l58 367h-205l-57 -367h-177l58 367h-156zM422 625h205l30 192h-204z" />
<glyph unicode="$" horiz-adv-x="1128" d="M55 393h195l61 -182q46 -22 103 -31l51 422l-66 23q-168 48 -250.5 142t-82.5 263q0 185 125.5 297.5t375.5 118.5l15 121h161l-16 -127q129 -13 262 -56l19 -311h-193l-43 148q-28 9 -70 18l-45 -377l52 -16q92 -28 156 -60.5t114 -81t74 -117t24 -161.5 q0 -198 -134.5 -320t-391.5 -131l-25 -215h-161l26 222q-195 16 -317 63zM350 1092q0 -65 35.5 -105.5t118.5 -73.5l39 340q-87 -5 -140 -47t-53 -114zM575 172q98 9 148.5 59t50.5 127q0 70 -35.5 113.5t-117.5 77.5z" />
<glyph unicode="%" horiz-adv-x="1818" d="M45 1032q0 102 31.5 183t85 130t120 74t140.5 25q73 0 139 -24.5t120.5 -72t87 -126.5t32.5 -179q0 -101 -31 -180.5t-85 -128t-121.5 -73.5t-143.5 -25t-142.5 24.5t-119 71.5t-83 124.5t-30.5 176.5zM305 1040q0 -136 25.5 -199t91.5 -63q67 0 92 59t25 195 q0 140 -25 204t-92 64q-66 0 -91.5 -61.5t-25.5 -198.5zM319 -82l971 1542h193l-973 -1542h-191zM1018 373q0 82 21 151t57 116.5t84.5 80t103 48t113.5 15.5q73 0 139 -24.5t120 -72t86 -126t32 -178.5q0 -81 -20.5 -149t-56 -115.5t-84 -80t-103.5 -48t-115 -15.5 q-160 0 -268.5 102.5t-108.5 295.5zM1278 381q0 -136 25.5 -199t91.5 -63q68 0 92 58t24 196q0 140 -24 204t-90 64q-68 0 -93.5 -62t-25.5 -198z" />
<glyph unicode="&#x26;" horiz-adv-x="1497" d="M35 375q0 139 81 234.5t234 170.5q-108 146 -108 291q0 166 119 269.5t317 103.5q175 0 278 -85t103 -224q0 -65 -22.5 -118t-69 -95.5t-97 -74t-125.5 -67.5l308 -344q47 81 73 180l-120 31v156h454v-156l-117 -31q-48 -172 -165 -319l86 -96l157 -39v-162h-391l-82 92 q-190 -117 -397 -117q-241 0 -378.5 105.5t-137.5 294.5zM373 422q0 -109 68 -176.5t190 -67.5q111 0 200 47l-368 420q-90 -83 -90 -223zM545 1100q0 -59 24.5 -106.5t71.5 -98.5q83 48 115 100t32 129q0 68 -30.5 104t-81.5 36q-61 0 -96 -43.5t-35 -120.5z" />
<glyph unicode="'" horiz-adv-x="489" d="M78 973q1 18 10 91t15 161.5t6 193.5h303q-8 -205 -129 -446h-205z" />
<glyph unicode="(" horiz-adv-x="706" d="M61 618q0 124 29 242t76 213t113.5 183.5t135.5 155t148 126.5l113 -100q-146 -172 -227.5 -360.5t-81.5 -424.5q0 -151 21.5 -276t65 -227.5t95.5 -182.5t127 -168l-113 -100q-84 64 -149.5 124t-134.5 146.5t-114.5 177.5t-74.5 213t-29 258z" />
<glyph unicode=")" horiz-adv-x="706" d="M31 -201q145 171 226 360t81 425q0 199 -41 359.5t-103.5 268t-162.5 226.5l110 100q84 -64 149.5 -124t134.5 -146.5t114.5 -178t74.5 -213.5t29 -258q0 -154 -42.5 -296t-117 -256t-158 -202.5t-184.5 -164.5z" />
<glyph unicode="*" horiz-adv-x="784" d="M49 1012l236 69l-236 72l107 188l184 -170l-61 248h229l-64 -248l187 170l106 -188l-235 -72l235 -69l-106 -189l-187 168l64 -243h-229l61 243l-184 -168z" />
<glyph unicode="+" horiz-adv-x="1095" d="M100 594v205h340v356h215v-356h340v-205h-340v-356h-215v356h-340z" />
<glyph unicode="," horiz-adv-x="501" d="M82 -180q27 248 27 471h311q-24 -265 -125 -471h-213z" />
<glyph unicode="-" horiz-adv-x="655" d="M72 463v242h512v-242h-512z" />
<glyph unicode="." horiz-adv-x="501" d="M72 143q0 71 50 121.5t126 50.5q77 0 127.5 -50t50.5 -122t-50.5 -122t-127.5 -50q-76 0 -126 50.5t-50 121.5z" />
<glyph unicode="/" horiz-adv-x="753" d="M0 -246l492 1747h223l-492 -1747h-223z" />
<glyph unicode="0" horiz-adv-x="1333" d="M57 700q0 189 49.5 334.5t135.5 233.5t194 132t234 44q129 0 237 -43.5t191 -130.5t129.5 -228.5t46.5 -326.5q0 -150 -31.5 -273.5t-87.5 -209.5t-133 -144.5t-167 -85.5t-191 -27q-132 0 -241 43.5t-191.5 130t-128.5 227t-46 324.5zM420 717q0 -290 57.5 -416.5 t190.5 -126.5q125 0 184 125t59 397q0 293 -56 420t-187 127q-126 0 -187 -129t-61 -397z" />
<glyph unicode="1" horiz-adv-x="839" d="M47 1092v161l406 181h153v-1237l189 -35v-162h-729v162l190 35v911z" />
<glyph unicode="2" horiz-adv-x="1087" d="M23 0v184l331 326q142 140 208.5 241t66.5 212q0 223 -258 223q-149 0 -299 -53v192q88 49 204 83t236 34q227 0 353 -111.5t126 -316.5q0 -158 -107 -301.5t-323 -311.5l-199 -157v-4h410l76 159h176l-31 -399h-970z" />
<glyph unicode="3" horiz-adv-x="1060" d="M37 76v182q142 -49 311 -49q287 0 287 211q0 117 -63 165t-201 48h-121v198h100q254 0 254 189q0 98 -58.5 145t-185.5 47q-134 0 -268 -41v181q72 39 177 64.5t218 25.5q217 0 338 -92.5t121 -264.5q0 -125 -73.5 -209.5t-198.5 -119.5v-8q145 -24 236 -112.5t91 -244.5 q0 -193 -146.5 -302t-408.5 -109q-243 0 -409 96z" />
<glyph unicode="4" horiz-adv-x="1212" d="M35 410v172l665 839h287v-819h174v-192h-174v-215l158 -33v-162h-662v162l166 33v215h-614zM283 602h366v467h-8l-358 -461v-6z" />
<glyph unicode="5" horiz-adv-x="1077" d="M41 78v180q158 -51 309 -51q140 0 218.5 61t78.5 183q0 233 -315 233q-103 0 -221 -25l49 760h792l-20 -254h-574l-22 -284q78 16 170 16q232 0 368 -114t136 -324q0 -212 -149.5 -345.5t-418.5 -133.5q-224 0 -401 98z" />
<glyph unicode="6" horiz-adv-x="1232" d="M59 659q0 136 25.5 251t71.5 200t108.5 149t139 104t159.5 59.5t174 19.5q222 0 350 -80v-184q-88 32 -272 32q-81 0 -145 -18.5t-119.5 -62t-90 -125.5t-44.5 -199q149 92 323 92q204 0 322.5 -117t118.5 -315q0 -101 -34.5 -189t-100.5 -155.5t-171.5 -106.5 t-238.5 -39q-271 0 -423.5 184t-152.5 500zM414 588q0 -206 50.5 -309t168.5 -103q194 0 194 270q0 129 -51 185.5t-151 56.5q-123 0 -211 -53v-47z" />
<glyph unicode="7" horiz-adv-x="1077" d="M39 1018l20 401h983v-202l-471 -1217h-389l633 1157v8h-536l-56 -147h-184z" />
<glyph unicode="8" horiz-adv-x="1236" d="M53 358q0 118 81.5 205.5t215.5 138.5q-126 59 -185 144t-59 209q0 172 140 280.5t381 108.5q240 0 370.5 -94t130.5 -256q0 -207 -264 -314q157 -57 238.5 -146.5t81.5 -230.5q0 -201 -149 -315.5t-419 -114.5q-275 0 -419 101.5t-144 283.5zM348 367q0 -96 63 -147.5 t185 -51.5q128 0 191 49.5t63 140.5q0 38 -15 69t-39.5 54.5t-71 47t-95 42t-125.5 43.5q-156 -86 -156 -247zM434 1092q0 -88 57 -136t201 -96q146 80 146 215q0 90 -54.5 133t-148.5 43q-90 0 -145.5 -43.5t-55.5 -115.5z" />
<glyph unicode="9" horiz-adv-x="1232" d="M51 952q0 102 34.5 190t100.5 155.5t171 106t237 38.5q276 0 426.5 -180t150.5 -504q0 -202 -49 -353.5t-140.5 -244.5t-215 -139t-279.5 -46q-197 0 -358 86v185q129 -39 281 -39q93 0 160.5 18.5t121.5 63t84.5 125t38.5 198.5q-63 -39 -149.5 -65.5t-176.5 -26.5 q-204 0 -321 117t-117 315zM403 971q0 -129 51 -184.5t152 -55.5q127 0 209 51q2 20 2 47q0 206 -50.5 309t-168.5 103q-195 0 -195 -270z" />
<glyph unicode=":" horiz-adv-x="514" d="M76 143q0 71 51 121.5t127 50.5q77 0 128.5 -50.5t51.5 -121.5t-51.5 -121.5t-128.5 -50.5q-76 0 -127 50.5t-51 121.5zM76 745q0 71 51 122t127 51q77 0 128.5 -50.5t51.5 -122.5q0 -71 -51.5 -121.5t-128.5 -50.5q-76 0 -127 50.5t-51 121.5z" />
<glyph unicode=";" horiz-adv-x="514" d="M76 -180q28 229 28 471h310q-24 -265 -125 -471h-213zM78 745q0 72 50.5 122.5t125.5 50.5q77 0 127.5 -50.5t50.5 -122.5t-50.5 -122t-127.5 -50q-76 0 -126 50.5t-50 121.5z" />
<glyph unicode="&#x3c;" horiz-adv-x="1026" d="M102 582v192l809 356v-233l-551 -219l551 -221v-232z" />
<glyph unicode="=" horiz-adv-x="1087" d="M102 326v204h883v-204h-883zM102 719v205h883v-205h-883z" />
<glyph unicode="&#x3e;" horiz-adv-x="1026" d="M115 225v232l551 219l-551 221v233l809 -356v-192z" />
<glyph unicode="?" horiz-adv-x="888" d="M41 1196v168q143 78 344 78q209 0 330 -89.5t121 -285.5q0 -66 -16 -119t-50 -96.5t-73.5 -76.5t-100.5 -73q-14 -9 -43.5 -29t-40 -27.5t-31.5 -23t-28.5 -25t-17.5 -24t-13.5 -28.5t-3.5 -31q0 -42 10 -88h-176q-37 76 -37 152q0 40 9.5 72t34.5 63t47.5 52t68.5 60 q67 55 95 100.5t28 121.5q0 91 -54.5 138.5t-158.5 47.5q-126 0 -244 -37zM180 135q0 67 48 114.5t120 47.5q71 0 119.5 -47.5t48.5 -114.5q0 -65 -48.5 -112.5t-119.5 -47.5q-72 0 -120 47t-48 113z" />
<glyph unicode="@" horiz-adv-x="1824" d="M76 442q0 192 66.5 365.5t185 303t292.5 206t377 76.5q345 0 550.5 -195.5t205.5 -531.5q0 -141 -38.5 -256.5t-106 -192t-158 -117.5t-195.5 -41q-197 0 -247 138h-13q-115 -121 -270 -121q-112 0 -188 86.5t-76 240.5q0 163 60 294.5t169 207.5t246 76 q80 0 133.5 -18.5t106.5 -53.5l49 54h155l-125 -641q-11 -59 3 -85t57 -26q54 0 103.5 28.5t89.5 82.5t63.5 142t23.5 198q0 283 -152.5 439t-447.5 156q-173 0 -316.5 -64t-238 -174t-146.5 -256.5t-52 -313.5q0 -309 167.5 -469t499.5 -160q127 0 252.5 21t214.5 50v-120 q-212 -88 -473 -88q-391 0 -609 202t-218 557zM741 410q0 -152 109 -152q67 0 135 64l82 434q-33 75 -111 75q-97 0 -156 -121t-59 -300z" />
<glyph unicode="A" horiz-adv-x="1447" d="M8 0v164l123 35l436 1220h324l424 -1220l125 -35v-164h-645v162l145 37l-76 233h-415l-76 -233l147 -37v-162h-512zM504 600h307l-145 459h-11z" />
<glyph unicode="B" horiz-adv-x="1316" d="M35 0v162l153 37v1022l-153 36v162h672q505 0 505 -354q0 -127 -61.5 -209.5t-204.5 -116.5v-10q176 -23 255 -106.5t79 -239.5q0 -181 -131.5 -282t-400.5 -101h-713zM532 193h150q118 0 174.5 51.5t56.5 169.5q0 119 -56.5 173t-172.5 54h-152v-448zM532 813h130 q99 0 151.5 45.5t52.5 155.5q0 120 -50.5 166.5t-156.5 46.5h-127v-414z" />
<glyph unicode="C" horiz-adv-x="1302" d="M47 696q0 162 41 291t109.5 213.5t163.5 140t198 79.5t219 24q127 0 241.5 -17.5t186.5 -42.5l13 -399h-201l-70 207q-84 39 -186 39q-179 0 -261.5 -126.5t-82.5 -367.5q0 -299 83 -424t277 -125q108 0 185 45l71 220h199l-16 -400q-177 -78 -476 -78q-155 0 -279 41 t-218.5 125.5t-145.5 225t-51 329.5z" />
<glyph unicode="D" horiz-adv-x="1443" d="M35 0v162l153 37v1022l-151 36v162h649q353 0 532 -167t179 -515q0 -367 -183 -552t-516 -185h-663zM539 201h143q90 0 152 23.5t107.5 80.5t67 156.5t21.5 247.5q0 110 -11 192t-34 137.5t-53 91.5t-75.5 55.5t-93 26.5t-112.5 7h-112v-1018z" />
<glyph unicode="E" horiz-adv-x="1275" d="M35 0v162l153 37v1022l-153 36v162h1147l18 -405h-186l-78 215h-404v-412h173l43 152h153v-488h-153l-43 156h-173v-447h416l101 267h190l-22 -457h-1182z" />
<glyph unicode="F" horiz-adv-x="1265" d="M35 0v162l153 37v1022l-153 36v162h1161l21 -432h-189l-80 234h-409v-428h178l39 153h155v-489h-155l-39 153h-178v-413l168 -35v-162h-672z" />
<glyph unicode="G" horiz-adv-x="1413" d="M47 696q0 162 41 291t110.5 213.5t167.5 140t206 79.5t231 24q265 0 434 -62l16 -395h-198l-74 205q-83 39 -203 39q-183 0 -273.5 -126.5t-90.5 -367.5q0 -297 84 -425t280 -128q83 0 156 25v280l-146 33v164h603v-164l-123 -33v-442q-209 -72 -477 -72q-744 0 -744 721 z" />
<glyph unicode="H" horiz-adv-x="1546" d="M35 0v162l151 37v1022l-151 36v162h639v-162l-137 -34v-404h473v404l-142 34v162h639v-162l-149 -36v-1022l151 -37v-162h-641v162l142 35v436h-473v-436l137 -35v-162h-639z" />
<glyph unicode="I" horiz-adv-x="731" d="M35 0v162l153 37v1022l-153 36v162h657v-162l-153 -36v-1022l153 -37v-162h-657z" />
<glyph unicode="J" horiz-adv-x="923" d="M25 41v203q3 -1 25 -7t27.5 -7t25.5 -5.5t32.5 -5.5t33 -2.5t42.5 -1.5q95 0 143.5 44t48.5 155v807l-153 36v162h651v-162l-147 -36v-830q0 -198 -111.5 -303.5t-329.5 -105.5q-72 0 -132 10.5t-88 20.5t-68 28z" />
<glyph unicode="K" horiz-adv-x="1454" d="M35 0v162l151 37v1022l-151 36v162h645v-162l-143 -34v-1026l143 -35v-162h-645zM610 606v135l394 480l-132 36v162h535v-162l-127 -38l-385 -453l412 -569l127 -35v-162h-400z" />
<glyph unicode="L" horiz-adv-x="1206" d="M35 0v162l151 37v1022l-151 36v162h667v-162l-165 -34v-1026h358l98 307h189l-27 -504h-1120z" />
<glyph unicode="M" horiz-adv-x="1884" d="M35 0v162l151 37v1022l-151 36v162h622l267 -891h8l272 891h641v-162l-162 -36v-1022l162 -37v-162h-633v162l131 35v944h-6l-344 -1110h-229l-340 1102h-8v-936l133 -35v-162h-514z" />
<glyph unicode="N" horiz-adv-x="1486" d="M35 0v162l153 37v1022l-153 36v162h538l512 -882h11v682l-156 38v162h520v-162l-135 -36v-1221h-303l-594 1038h-8v-841l155 -35v-162h-540z" />
<glyph unicode="O" d="M47 705q0 150 37.5 274.5t102 209t151.5 143t184.5 85.5t202.5 27q144 0 264.5 -46t211 -134t141.5 -227.5t51 -317.5q0 -150 -37.5 -275t-101.5 -210.5t-150.5 -144.5t-184 -86.5t-202.5 -27.5q-145 0 -266.5 46.5t-212 135.5t-141 229.5t-50.5 318.5zM412 727 q0 -285 72 -414t237 -129q151 0 229 128t78 380q0 289 -75 416t-234 127q-151 0 -229 -128.5t-78 -379.5z" />
<glyph unicode="P" horiz-adv-x="1257" d="M35 0v162l151 37v1022l-151 36v162h649q289 0 422 -105.5t133 -303.5q0 -221 -128.5 -330t-344.5 -109q-20 0 -42.5 2t-41 4.5t-33.5 4.5t-24 4l-9 2v164h5q5 -1 12.5 -1.5t16.5 -1t20.5 -1t21.5 -0.5q195 0 195 237q0 121 -49.5 175t-157.5 54h-143v-1017l180 -35v-162 h-682z" />
<glyph unicode="Q" d="M47 705q0 150 37.5 274.5t102 209t151.5 143t184.5 85.5t202.5 27q144 0 264.5 -46t211 -134t141.5 -227.5t51 -317.5q0 -141 -32.5 -252.5t-92.5 -186.5t-134.5 -122t-166.5 -72v-8l454 -78l-71 -268l-801 250q-77 24 -141.5 56t-134 90t-117 133t-78.5 189.5t-31 254.5 zM412 727q0 -284 73 -413.5t240 -129.5q155 0 229 126t74 382q0 289 -76 416t-233 127q-307 0 -307 -508z" />
<glyph unicode="R" horiz-adv-x="1400" d="M35 0v162l155 37v1020l-153 38v162h686q534 0 534 -407q0 -137 -69 -216t-189 -124v-8l277 -469l117 -33v-162h-392l-325 588h-135v-391l135 -35v-162h-641zM541 768h151q213 0 213 240q0 110 -53 160.5t-170 50.5h-141v-451z" />
<glyph unicode="S" horiz-adv-x="1128" d="M61 410h205l58 -185q82 -45 200 -45q106 0 163.5 50t57.5 130q0 40 -14.5 70t-49.5 55t-71 42.5t-100 43.5l-111 45q-82 33 -136 66t-98.5 80.5t-65.5 113t-21 152.5q0 192 128.5 305t393.5 113q226 0 389 -55l19 -336h-201l-43 149q-84 39 -176 39q-91 0 -145 -38 t-54 -111q0 -68 46.5 -109t156.5 -84l110 -43q68 -27 111 -46t91 -46.5t76 -57t53 -69t35.5 -90.5t10.5 -115q0 -209 -142 -334t-411 -125q-124 0 -244.5 19.5t-201.5 50.5z" />
<glyph unicode="T" horiz-adv-x="1316" d="M20 963l21 456h1235l18 -456h-196l-66 260h-198v-1024l161 -37v-162h-676v162l164 37v1024h-198l-68 -260h-197z" />
<glyph unicode="U" horiz-adv-x="1441" d="M16 1257v162h641v-162l-145 -34v-746q0 -153 71.5 -222t207.5 -69t204 68.5t68 222.5v746l-145 32v164h507v-162l-133 -36v-752q0 -230 -136.5 -362t-414.5 -132q-291 0 -435 124.5t-144 346.5v775z" />
<glyph unicode="V" horiz-adv-x="1427" d="M16 1257v162h629v-162l-145 -36l268 -854h10l271 854l-144 36v162h504v-162l-117 -36l-420 -1221h-319l-420 1221z" />
<glyph unicode="W" horiz-adv-x="2021" d="M18 1257v162h596v-162l-129 -36l187 -801h10l262 999h242l262 -979h8l182 781l-139 36v162h502v-162l-119 -36l-307 -1221h-326l-235 913h-8l-240 -913h-326l-313 1221z" />
<glyph unicode="X" horiz-adv-x="1441" d="M35 0v162l121 33l352 530l-332 496l-129 36v162h653v-162l-112 -32l207 -342l198 342l-119 32v162h506v-162l-120 -36l-328 -504l344 -518l127 -37v-162h-645v162l119 31l-232 374l-223 -372l119 -33v-162h-506z" />
<glyph unicode="Y" horiz-adv-x="1339" d="M14 1257v162h598v-162l-116 -34l243 -437h9l231 437l-123 34v162h469v-162l-115 -36l-354 -627v-395l158 -37v-162h-664v162l158 37v389l-381 633z" />
<glyph unicode="Z" horiz-adv-x="1183" d="M31 0v197l712 1015v9h-401l-86 -240h-197l23 438h1063v-196l-715 -1016v-8h436l95 266h192l-23 -465h-1099z" />
<glyph unicode="[" horiz-adv-x="694" d="M109 -246v1747h532v-162l-229 -36v-1350l229 -37v-162h-532z" />
<glyph unicode="\" horiz-adv-x="753" d="M41 1501h223l492 -1747h-224z" />
<glyph unicode="]" horiz-adv-x="694" d="M53 -84l230 37v1350l-230 36v162h531v-1747h-531v162z" />
<glyph unicode="^" horiz-adv-x="862" d="M41 909l295 510h186l295 -510h-178l-211 258l-209 -258h-178z" />
<glyph unicode="_" horiz-adv-x="681" d="M-12 -111h708v-184h-708v184z" />
<glyph unicode="`" horiz-adv-x="1011" d="M233 1329l113 225l408 -249l-58 -131z" />
<glyph unicode="a" horiz-adv-x="1071" d="M27 268q0 60 17.5 107.5t47.5 80t79 57.5t103 41t127 30l215 43v71q0 66 -16.5 101t-63 53t-135.5 18q-156 0 -276 -20v176q201 76 428 76q194 0 287.5 -84t93.5 -258v-524q0 -70 80 -70h39v-146q-30 -16 -87 -30.5t-116 -14.5q-160 0 -199 123h-10q-45 -55 -119.5 -90 t-171.5 -35q-146 0 -234.5 81.5t-88.5 213.5zM342 311q0 -149 137 -149q40 0 77 16t60 37v256l-131 -8q-75 -6 -109 -43t-34 -109z" />
<glyph unicode="b" horiz-adv-x="1189" d="M-16 1319v162l407 47l31 -15v-524h14q141 115 309 115q63 0 118.5 -14.5t108 -52t90 -95t60.5 -150t23 -210.5q0 -310 -154 -459.5t-424 -149.5q-139 0 -258 26.5t-196 66.5v1220zM428 207q31 -22 64 -33.5t90 -11.5q56 0 96 17.5t71.5 59t47.5 116.5t16 184 q0 183 -53.5 259t-163.5 76q-90 0 -168 -38v-629z" />
<glyph unicode="c" horiz-adv-x="1001" d="M37 532q0 146 43.5 256.5t123 178.5t185.5 101.5t238 33.5q195 0 315 -43v-318h-199l-30 156q-46 16 -105 16q-237 0 -237 -354q0 -197 82 -280.5t235 -83.5q164 0 264 47v-168q-142 -101 -362 -101q-272 0 -412.5 148t-140.5 411z" />
<glyph unicode="d" horiz-adv-x="1243" d="M47 514q0 155 40 270t113.5 183.5t168 101.5t211.5 33q100 0 184 -31v225l-141 33v156l426 47l32 -14v-1307l127 -33v-149l-385 -49l-28 14v104h-13q-44 -57 -122.5 -90t-180.5 -33q-64 0 -123 16t-116.5 55t-99.5 99t-67.5 154.5t-25.5 214.5zM379 549q0 -187 55 -267.5 t164 -80.5q82 0 166 43v620q-24 16 -38 23.5t-45.5 15.5t-70.5 8q-55 0 -95 -16.5t-72 -56.5t-48 -112t-16 -177z" />
<glyph unicode="e" horiz-adv-x="1085" d="M37 545q0 260 145.5 408.5t384.5 148.5q245 0 360 -144t115 -456h-677q12 -161 91 -235t224 -74q152 0 311 51v-166q-165 -105 -395 -105q-276 0 -417.5 150.5t-141.5 421.5zM365 653l360 13q0 134 -42.5 193t-123.5 59q-86 0 -135.5 -61.5t-58.5 -203.5z" />
<glyph unicode="f" horiz-adv-x="710" d="M31 0v150l129 30v709h-129v139l129 49v103q0 95 31.5 166t86.5 110.5t121.5 58.5t145.5 19q135 0 227 -43v-182q-65 14 -131 14q-85 0 -124.5 -37t-39.5 -135v-72h217v-190h-217v-709l152 -30v-150h-598z" />
<glyph unicode="g" horiz-adv-x="1118" d="M4 -168q0 81 61 138t160 89v11q-133 42 -133 163q0 123 150 230q-75 42 -118.5 111.5t-43.5 162.5q0 173 127 269t332 96q125 0 221 -35l336 47v-194l-162 6q59 -72 59 -166q0 -173 -125 -269t-331 -96q-84 0 -162 19q-35 -35 -35 -80q0 -23 19 -40.5t57 -17.5h354 q71 0 129 -15t104 -47.5t71.5 -88.5t25.5 -133q0 -86 -36 -158.5t-108 -129.5t-190 -89.5t-272 -32.5q-240 0 -365 70.5t-125 179.5zM299 -115q0 -58 53 -91.5t166 -33.5q150 0 221.5 44t71.5 112q0 53 -33.5 74.5t-111.5 21.5h-283q-84 -36 -84 -127zM381 752 q0 -103 42.5 -151t113.5 -48q72 0 114.5 47t42.5 145q0 197 -157 197q-72 0 -114 -46t-42 -144z" />
<glyph unicode="h" horiz-adv-x="1259" d="M23 1333v154l413 49l31 -16v-541h10q171 123 350 123q289 0 289 -273v-649l123 -30v-150h-547v150l107 26v547q0 77 -37.5 108t-118.5 31q-65 0 -172 -35v-651l107 -26v-150h-551v150l129 30v1120z" />
<glyph unicode="i" horiz-adv-x="624" d="M18 897v154l424 49l31 -15v-905l125 -30v-150h-569v150l129 30v684zM127 1362q0 72 52 117t126 45q77 0 128.5 -45t51.5 -117q0 -71 -52 -116.5t-128 -45.5q-74 0 -126 45.5t-52 116.5z" />
<glyph unicode="j" horiz-adv-x="595" d="M-86 -195q39 -8 92 -8q76 0 116 35.5t40 124.5v907l-139 33v154l426 49l30 -15v-1130q0 -179 -93 -270t-292 -91q-92 0 -180 35v176zM133 1362q0 72 52 117t126 45q76 0 127 -45t51 -117q0 -71 -51 -116.5t-127 -45.5q-74 0 -126 45.5t-52 116.5z" />
<glyph unicode="k" horiz-adv-x="1191" d="M23 1331v156l417 47l31 -14v-1346l115 -24v-150h-559v150l129 28v1120zM530 463v102l265 336l-117 27v151h483v-151l-131 -29l-242 -291l299 -428l101 -30v-150h-332z" />
<glyph unicode="l" horiz-adv-x="630" d="M16 1331v156l430 47l29 -14v-1340l129 -30v-150h-575v150l131 30v1118z" />
<glyph unicode="m" horiz-adv-x="1869" d="M23 897v154l405 49l31 -15v-104h12q79 60 160 90.5t188 30.5q183 0 246 -131h12q163 131 363 131q132 0 208 -69.5t76 -211.5v-641l121 -30v-150h-542v150l104 26v539q0 82 -36 114.5t-118 32.5q-67 0 -161 -33q6 -36 6 -65v-588l104 -26v-150h-524v150l104 26v539 q0 82 -35 114.5t-112 32.5q-11 0 -21.5 -0.5t-21.5 -2t-18 -2t-18.5 -3.5t-16.5 -4t-17 -4.5t-15.5 -4.5t-18 -6t-17.5 -6v-653l104 -26v-150h-548v150l129 30v684z" />
<glyph unicode="n" horiz-adv-x="1263" d="M23 897v154l405 49l31 -15v-108h12q172 125 356 125q289 0 289 -273v-649l123 -30v-150h-547v150l107 26v547q0 77 -37.5 108t-118.5 31q-65 0 -172 -35v-651l107 -26v-150h-551v150l129 30v684z" />
<glyph unicode="o" horiz-adv-x="1169" d="M37 532q0 176 73.5 307t196 197t275.5 66q258 0 402 -147t144 -410q0 -132 -42.5 -241t-116.5 -180.5t-173 -111t-212 -39.5q-257 0 -402 150t-145 409zM369 547q0 -383 217 -383q37 0 67 10.5t57 36t45.5 66.5t29 105t10.5 148q0 383 -215 383q-48 0 -84 -17t-66 -56.5 t-45.5 -113t-15.5 -179.5z" />
<glyph unicode="p" horiz-adv-x="1232" d="M20 897v154l406 49l29 -15v-104h12q146 123 319 123q63 0 118 -14.5t108 -52t90.5 -95t60.5 -150t23 -210.5q0 -157 -41 -276t-116 -190.5t-173.5 -107t-220.5 -35.5q-85 0 -166 15v-221l149 -29v-148h-593v148l127 26v1100zM469 205q23 -14 37 -21t46 -14.5t71 -7.5 q56 0 96 17.5t71.5 59t47.5 116.5t16 184q0 183 -53.5 259t-163.5 76q-90 0 -168 -38v-631z" />
<glyph unicode="q" horiz-adv-x="1204" d="M47 508q0 155 42.5 270.5t120.5 185.5t182.5 104t234.5 34q145 0 250 -17t204 -55v-1257l123 -27v-156h-590v156l150 31v305h-12q-57 -54 -119 -80.5t-150 -26.5q-66 0 -125.5 15t-117.5 53t-100 97t-67.5 153.5t-25.5 214.5zM379 549q0 -187 55 -267.5t164 -80.5 q82 0 166 43v620q-24 16 -38 23.5t-46.5 15.5t-73.5 8q-53 0 -92 -16.5t-70.5 -56t-48 -112t-16.5 -177.5z" />
<glyph unicode="r" horiz-adv-x="821" d="M23 897v154l405 49l31 -15v-153h12q47 74 117 121t155 47q34 0 58 -8v-279q-33 8 -92 8q-140 0 -238 -49v-592l158 -30v-150h-602v150l129 30v684z" />
<glyph unicode="s" horiz-adv-x="950" d="M39 332h190l47 -139q60 -37 160 -37q79 0 124.5 29.5t45.5 86.5q0 54 -32 80.5t-121 50.5l-117 31q-148 38 -221.5 114t-73.5 208q0 156 115 251t340 95q208 0 340 -53v-279h-185l-33 125q-56 31 -137 31q-72 0 -115.5 -26.5t-43.5 -80.5q0 -50 35 -77t130 -52l127 -33 q155 -40 223 -117t68 -200q0 -169 -120 -268t-361 -99q-193 0 -367 64z" />
<glyph unicode="t" horiz-adv-x="761" d="M23 889v139l155 53l41 252h248v-254h238v-190h-238v-567q0 -76 32 -108t109 -32q49 0 111 15v-158q-39 -26 -105.5 -44t-142.5 -18q-162 0 -241.5 66t-79.5 223v623h-127z" />
<glyph unicode="u" horiz-adv-x="1263" d="M12 905v154l414 39l29 -15v-712q0 -85 31.5 -121.5t115.5 -36.5q41 0 78.5 7t54 13t49.5 19v618l-122 35v154l407 39l31 -15v-872l129 -33v-149l-402 -49l-30 14v117h-13q-138 -134 -333 -134q-312 0 -312 304v589z" />
<glyph unicode="v" horiz-adv-x="1179" d="M4 928v151h537v-151l-105 -23l199 -586h8l201 586l-109 23v151h432v-151l-96 -29l-340 -899h-289l-342 899z" />
<glyph unicode="w" horiz-adv-x="1687" d="M4 928v151h510v-151l-102 -25l141 -520h8l213 696h217l213 -696h8l142 520l-101 25v151h422v-151l-92 -29l-270 -899h-266l-199 668h-6l-209 -668h-266l-273 899z" />
<glyph unicode="x" horiz-adv-x="1193" d="M27 0v150l106 28l270 365l-256 356l-106 29v151h571v-151l-96 -23l158 -243h6l156 243l-99 23v151h420v-151l-90 -27l-258 -364l258 -359l104 -28v-150h-567v150l98 22l-163 244h-7l-165 -244l102 -22v-150h-442z" />
<glyph unicode="y" horiz-adv-x="1185" d="M4 928v151h547v-151l-113 -25l209 -551h8l183 551l-111 25v151h447v-151l-97 -29l-391 -1026q-57 -150 -139 -218.5t-228 -68.5q-49 0 -103.5 10.5t-86.5 24.5v195q67 -15 109 -15q75 0 122 27t72 92l41 100l-369 879z" />
<glyph unicode="z" horiz-adv-x="1015" d="M41 0v168l547 729v8h-307l-58 -188h-157l18 362h868v-170l-538 -721v-8h317l70 209h164l-29 -389h-895z" />
<glyph unicode="{" horiz-adv-x="794" d="M61 526v203q92 13 141.5 34.5t65 47t15.5 68.5q0 34 -34 152.5t-34 172.5q0 69 26.5 120t87 90t162.5 61t248 26v-162q-121 -20 -164 -50.5t-43 -96.5q0 -38 17.5 -154t17.5 -161q0 -94 -58 -150.5t-212 -93.5v-10q154 -37 212 -93.5t58 -150.5q0 -45 -17.5 -161.5 t-17.5 -154.5q0 -66 43 -96.5t164 -50.5v-162q-146 4 -248 26t-162.5 61t-87 90t-26.5 120q0 54 34 173.5t34 152.5q0 32 -8 53t-31.5 40.5t-68 33t-114.5 22.5z" />
<glyph unicode="|" horiz-adv-x="489" d="M141 -246v1747h207v-1747h-207z" />
<glyph unicode="}" horiz-adv-x="794" d="M53 -84q121 20 164 50.5t43 96.5q0 38 -17.5 154.5t-17.5 161.5q0 94 58 150.5t213 93.5v10q-155 37 -213 93.5t-58 150.5q0 45 17.5 161t17.5 154q0 66 -43 96.5t-164 50.5v162q146 -4 248.5 -26t162.5 -61t87 -90t27 -120q0 -54 -34 -172.5t-34 -152.5q0 -43 15 -69 t64.5 -47.5t141.5 -33.5v-203q-93 -13 -142 -34t-64 -46.5t-15 -68.5q0 -33 34 -152.5t34 -173.5q0 -69 -27 -120t-87 -90t-162.5 -61t-248.5 -26v162z" />
<glyph unicode="~" horiz-adv-x="931" d="M31 545q111 248 291 248q51 0 107.5 -22t104.5 -44t78 -22q80 0 142 102l145 -98q-108 -250 -289 -250q-52 0 -108.5 22t-105 44t-79.5 22q-76 0 -141 -103z" />
<glyph unicode="&#xa1;" horiz-adv-x="546" d="M96 -246l70 991h209l63 -991h-342zM98 1038q0 66 48 113t120 47q71 0 119.5 -47.5t48.5 -112.5q0 -67 -48.5 -114t-119.5 -47q-72 0 -120 47t-48 114z" />
<glyph unicode="&#xa2;" horiz-adv-x="1034" d="M43 532q0 139 40.5 246t115 175t173 104.5t220.5 42.5l14 133h160l-14 -137q124 -8 225 -39v-316h-168l-33 160q-18 6 -45 12l-82 -731q14 -2 45 -2q80 0 164 18.5t129 39.5v-164q-54 -39 -149 -68.5t-211 -32.5l-23 -219h-160l25 232q-206 35 -316 177.5t-110 368.5z M356 559q0 -262 140 -338l75 692q-215 -41 -215 -354z" />
<glyph unicode="&#xa3;" horiz-adv-x="1120" d="M59 0v178q83 44 123.5 112t40.5 191v119h-131v188h131v173q0 119 35.5 212t100 151t150.5 88t189 30q224 0 351 -96v-193q-109 39 -230 39q-57 0 -100 -11.5t-80 -40t-59 -83.5t-27 -135l-10 -134h338v-188h-351l-2 -53q-7 -114 -44 -178.5t-111 -118.5v-6h696l-29 -244 h-981z" />
<glyph unicode="&#xa4;" horiz-adv-x="1269" d="M49 479v152h127q-2 20 -2 67v60h-125v151h141q23 143 80.5 248.5t142 167t185 90.5t219.5 29q212 0 359 -55l12 -363h-197l-55 178q-54 31 -131 31q-123 0 -192 -80t-91 -246h348v-151h-356v-19q0 -75 2 -108h354v-152h-335q29 -145 107.5 -206.5t225.5 -61.5 q153 0 322 65v-186q-176 -115 -406 -115q-505 0 -594 504h-141z" />
<glyph unicode="&#xa5;" horiz-adv-x="1290" d="M16 1257v162h592v-162l-114 -32l223 -385h8l209 385l-119 32v162h455v-162l-105 -36l-268 -437h260v-151h-330v-127h330v-150h-330v-157l158 -37v-162h-659v162l159 37v157h-329v150h329v127h-329v151h250l-285 437z" />
<glyph unicode="&#xa6;" horiz-adv-x="489" d="M141 -246v817h207v-817h-207zM141 760v741h207v-741h-207z" />
<glyph unicode="&#xa7;" horiz-adv-x="1110" d="M47 569q0 197 229 271q-139 91 -139 264q0 159 116.5 249.5t344.5 90.5q207 0 344 -55v-275h-186l-33 119q-53 29 -141 29q-75 0 -118.5 -29t-43.5 -86q0 -54 33 -84.5t125 -61.5l157 -53q164 -54 244 -130t80 -200q0 -197 -228 -272q154 -95 154 -266 q0 -159 -118 -254.5t-349 -95.5q-203 0 -360 63l-17 287h189l45 -133q72 -33 151 -33q76 0 123 29t47 86q0 55 -37.5 89.5t-130.5 65.5l-157 54q-167 55 -245.5 131t-78.5 200zM334 633q0 -56 38.5 -89t131.5 -67l139 -47q60 11 94.5 42.5t34.5 82.5q0 52 -35 83.5 t-121 63.5l-153 54q-59 -13 -94 -44t-35 -79z" />
<glyph unicode="&#xa8;" horiz-adv-x="1011" d="M158 1321q0 62 43 103.5t104 41.5q64 0 107 -41t43 -104q0 -60 -43.5 -101.5t-106.5 -41.5q-60 0 -103.5 41.5t-43.5 101.5zM553 1321q0 62 43.5 103.5t105.5 41.5t105 -41.5t43 -103.5q0 -60 -43 -101.5t-105 -41.5t-105.5 41.5t-43.5 101.5z" />
<glyph unicode="&#xa9;" horiz-adv-x="1579" d="M61 705q0 149 56 283.5t151.5 232.5t230.5 155.5t287 57.5q151 0 286.5 -57.5t232.5 -155.5t154 -232.5t57 -283.5t-57 -284.5t-154 -234t-232.5 -157t-286.5 -58.5q-202 0 -369 99t-261.5 267.5t-94.5 367.5zM205 705q0 -125 42.5 -237t117 -194.5t184 -131t237.5 -48.5 q168 0 302 82.5t207 222t73 306.5q0 166 -73 304.5t-207 221t-302 82.5q-170 0 -304 -82.5t-205.5 -220.5t-71.5 -305zM418 705q0 102 32.5 179t89 122.5t127.5 67.5t154 22q145 0 236 -31l10 -227h-131l-39 108q-48 19 -86 19q-84 0 -116.5 -60t-32.5 -180q0 -152 33 -210 t124 -58q62 0 84 16l41 119h131l-12 -227q-113 -41 -262 -41q-174 0 -278.5 96t-104.5 285z" />
<glyph unicode="&#xab;" horiz-adv-x="952" d="M66 475v84l219 369h202l-159 -410l159 -412h-202zM461 475v84l217 369h205l-160 -410l160 -412h-205z" />
<glyph unicode="&#xad;" horiz-adv-x="655" d="M72 463v242h512v-242h-512z" />
<glyph unicode="&#xae;" horiz-adv-x="1579" d="M61 705q0 149 56 283.5t151.5 232.5t230.5 155.5t287 57.5q151 0 286.5 -57.5t232.5 -155.5t154 -232.5t57 -283.5t-57 -284.5t-154 -234t-232.5 -157t-286.5 -58.5q-202 0 -369 99t-261.5 267.5t-94.5 367.5zM205 705q0 -125 42.5 -237t117 -194.5t184 -131t237.5 -48.5 q168 0 302 82.5t207 222t73 306.5q0 166 -73 304.5t-207 221t-302 82.5q-170 0 -304 -82.5t-205.5 -220.5t-71.5 -305zM459 356v103l69 18v461l-67 16v105h356q134 0 207.5 -56.5t73.5 -150.5q0 -68 -31 -105.5t-88 -58.5v-8l125 -205l57 -16v-103h-219l-154 277h-51v-158 l58 -16v-103h-336zM737 743h64q90 0 90 97q0 51 -22.5 72.5t-73.5 21.5h-58v-191z" />
<glyph unicode="&#xaf;" horiz-adv-x="1011" d="M231 1255v205h549v-205h-549z" />
<glyph unicode="&#xb0;" horiz-adv-x="741" d="M57 1130q0 127 91 217.5t223 90.5q133 0 223 -90t90 -218q0 -125 -90 -215t-223 -90q-132 0 -223 90t-91 215zM213 1130q0 -74 42.5 -126t115.5 -52q75 0 117 51.5t42 126.5q0 77 -42 129t-117 52q-74 0 -116 -52t-42 -129z" />
<glyph unicode="&#xb2;" horiz-adv-x="768" d="M51 551v143l203 191q79 73 119.5 129.5t40.5 115.5q0 62 -39 94.5t-109 32.5q-87 0 -186 -30v141q127 76 295 76q151 0 234 -70t83 -194q0 -71 -34 -134.5t-88 -114.5t-146 -116l-119 -88v-4h230l47 90h129l-21 -262h-639z" />
<glyph unicode="&#xb3;" horiz-adv-x="743" d="M45 594v133q95 -27 195 -27q168 0 168 117q0 62 -37 88.5t-113 26.5h-88v139h76q145 0 145 105q0 106 -139 106q-98 0 -172 -22v131q42 24 114 38.5t150 14.5q145 0 224 -56.5t79 -160.5q0 -157 -178 -207v-6q95 -15 153 -69t58 -150q0 -121 -95.5 -189.5t-269.5 -68.5 q-170 0 -270 57z" />
<glyph unicode="&#xb4;" horiz-adv-x="1011" d="M256 1305l408 249l112 -225l-463 -155z" />
<glyph unicode="&#xb6;" horiz-adv-x="1224" d="M68 1047q0 372 477 372h669v-162l-141 -36v-1467h-190v1479h-140v-1479h-190v908q-5 0 -28.5 -2.5t-39.5 -2.5q-85 0 -159 24t-132 70t-92 122.5t-34 173.5z" />
<glyph unicode="&#xb7;" horiz-adv-x="499" d="M72 680q0 71 51 121.5t127 50.5q77 0 128.5 -50.5t51.5 -121.5t-51.5 -121.5t-128.5 -50.5q-76 0 -127 50.5t-51 121.5z" />
<glyph unicode="&#xb8;" horiz-adv-x="1011" d="M393 -346q117 12 162 32.5t45 57.5q0 63 -158 66v190h127v-88q133 -6 189.5 -42.5t56.5 -113.5q0 -182 -422 -202v100z" />
<glyph unicode="&#xb9;" horiz-adv-x="626" d="M55 1186v119l275 133h127v-744l129 -22v-121h-523v121l130 22v500z" />
<glyph unicode="&#xbb;" horiz-adv-x="952" d="M70 106l159 410l-159 412h204l218 -369v-84l-218 -369h-204zM465 106l160 410l-160 412h203l219 -369v-84l-219 -369h-203z" />
<glyph unicode="&#xbc;" horiz-adv-x="1781" d="M55 1186v119l275 133h127v-744l129 -22v-121h-523v121l130 22v500zM301 -82l971 1542h192l-970 -1542h-193zM987 252v125l424 504h211v-492h107v-137h-107v-109l102 -22v-121h-450v121l98 22v109h-385zM1167 389h205v248h-6l-199 -244v-4z" />
<glyph unicode="&#xbd;" horiz-adv-x="1841" d="M55 1186v119l275 133h127v-744l129 -22v-121h-523v121l130 22v500zM299 -82l971 1542h192l-973 -1542h-190zM1130 0v143l203 191q78 73 119 130t41 116q0 62 -38 94.5t-109 32.5q-97 0 -185 -31v141q124 76 293 76q151 0 234.5 -70t83.5 -194q0 -103 -65 -185t-204 -180 l-119 -86v-6h230l49 90l127 2l-21 -264h-639z" />
<glyph unicode="&#xbe;" horiz-adv-x="1847" d="M45 594v133q95 -27 195 -27q168 0 168 117q0 62 -37 88.5t-113 26.5h-88v139h76q145 0 145 105q0 106 -139 106q-98 0 -172 -22v131q42 24 114 38.5t150 14.5q145 0 224 -56.5t79 -160.5q0 -157 -178 -207v-6q95 -15 153 -69t58 -150q0 -121 -95.5 -189.5t-269.5 -68.5 q-170 0 -270 57zM352 -82l973 1542h193l-973 -1542h-193zM1055 252v125l426 504h211v-492h106v-137h-106v-109l102 -22v-121h-453v121l101 22v109h-387zM1235 389h207v248h-6l-201 -244v-4z" />
<glyph unicode="&#xbf;" horiz-adv-x="888" d="M53 106q0 66 16 119t50 96.5t73.5 76.5t100.5 73q12 8 39 25.5t36.5 24t29 21t27 22t19.5 20t16.5 23t8.5 24t4 28.5q0 33 -12 89h176q37 -76 37 -152t-35.5 -125.5t-124.5 -122.5q-45 -37 -68.5 -63t-39 -65.5t-15.5 -92.5q0 -91 54.5 -138.5t158.5 -47.5q129 0 244 36 v-167q-139 -78 -342 -78q-101 0 -181 20t-142.5 63t-96 116.5t-33.5 174.5zM375 1038q0 66 47.5 113t118.5 47q72 0 120 -47t48 -113q0 -67 -48 -114t-120 -47q-71 0 -118.5 47t-47.5 114z" />
<glyph unicode="&#xc0;" horiz-adv-x="1447" d="M8 0v164l123 35l436 1220h324l424 -1220l125 -35v-164h-645v162l145 37l-76 233h-415l-76 -233l147 -37v-162h-512zM504 600h307l-145 459h-11zM514 1659l113 225l407 -250l-57 -131z" />
<glyph unicode="&#xc1;" horiz-adv-x="1447" d="M8 0v164l123 35l436 1220h324l424 -1220l125 -35v-164h-645v162l145 37l-76 233h-415l-76 -233l147 -37v-162h-512zM504 600h307l-145 459h-11zM545 1634l407 250l113 -225l-463 -156z" />
<glyph unicode="&#xc2;" horiz-adv-x="1447" d="M8 0v164l123 35l436 1220h324l424 -1220l125 -35v-164h-645v162l145 37l-76 233h-415l-76 -233l147 -37v-162h-512zM471 1585l242 268h151l242 -268l-64 -88l-254 139l-253 -139zM504 600h307l-145 459h-11z" />
<glyph unicode="&#xc3;" horiz-adv-x="1447" d="M8 0v164l123 35l436 1220h324l424 -1220l125 -35v-164h-645v162l145 37l-76 233h-415l-76 -233l147 -37v-162h-512zM449 1614q42 95 103 150t138 55q50 0 125.5 -33t102.5 -33q62 0 110 74l121 -78q-42 -95 -103.5 -150t-138.5 -55q-50 0 -125 33t-102 33q-63 0 -111 -72 zM504 600h307l-145 459h-11z" />
<glyph unicode="&#xc4;" horiz-adv-x="1447" d="M8 0v164l123 35l436 1220h324l424 -1220l125 -35v-164h-645v162l145 37l-76 233h-415l-76 -233l147 -37v-162h-512zM502 1651q0 62 43 103.5t104 41.5q64 0 107 -41t43 -104q0 -60 -43.5 -102t-106.5 -42q-60 0 -103.5 42t-43.5 102zM504 600h307l-145 459h-11zM897 1651 q0 62 44 103.5t106 41.5t104.5 -41.5t42.5 -103.5q0 -60 -43 -102t-104 -42q-62 0 -106 42t-44 102z" />
<glyph unicode="&#xc5;" horiz-adv-x="1447" d="M8 0v164l123 35l436 1220h324l424 -1220l125 -35v-164h-645v162l145 37l-76 233h-415l-76 -233l147 -37v-162h-512zM504 600h307l-145 459h-11zM561 1720q0 87 64 149t159 62q96 0 160 -62t64 -149q0 -89 -64 -151t-160 -62t-159.5 62t-63.5 151zM688 1720q0 -46 26 -73 t70 -27t70.5 27t26.5 73q0 44 -26.5 72.5t-70.5 28.5q-43 0 -69.5 -28.5t-26.5 -72.5z" />
<glyph unicode="&#xc6;" horiz-adv-x="1992" d="M8 0v164l117 37l639 1040l-127 16v162h1266l20 -405h-188l-78 215h-393v-412h157l43 152h154v-488h-154l-43 156h-157v-447h405l100 267h191l-23 -457h-1171v162l154 37v223h-418l-129 -221l162 -39v-162h-527zM602 592h318v541z" />
<glyph unicode="&#xc7;" horiz-adv-x="1302" d="M47 696q0 162 41 291t109.5 213.5t163.5 140t198 79.5t219 24q127 0 241.5 -17.5t186.5 -42.5l13 -399h-201l-70 207q-84 39 -186 39q-179 0 -261.5 -126.5t-82.5 -367.5q0 -299 83 -424t277 -125q108 0 185 45l71 220h199l-16 -400q-177 -78 -476 -78h-12v-63 q133 -6 189.5 -42.5t56.5 -113.5q0 -182 -422 -202v100q117 12 162 32.5t45 57.5q0 63 -158 66v176q-127 17 -226.5 66t-174 134t-114.5 214t-40 296z" />
<glyph unicode="&#xc8;" horiz-adv-x="1275" d="M35 0v162l153 37v1022l-153 36v162h1147l18 -405h-186l-78 215h-404v-412h173l43 152h153v-488h-153l-43 156h-173v-447h416l101 267h190l-22 -457h-1182zM408 1659l112 225l408 -250l-58 -131z" />
<glyph unicode="&#xc9;" horiz-adv-x="1275" d="M35 0v162l153 37v1022l-153 36v162h1147l18 -405h-186l-78 215h-404v-412h173l43 152h153v-488h-153l-43 156h-173v-447h416l101 267h190l-22 -457h-1182zM438 1634l408 250l112 -225l-462 -156z" />
<glyph unicode="&#xca;" horiz-adv-x="1275" d="M35 0v162l153 37v1022l-153 36v162h1147l18 -405h-186l-78 215h-404v-412h173l43 152h153v-488h-153l-43 156h-173v-447h416l101 267h190l-22 -457h-1182zM365 1585l241 268h152l241 -268l-63 -88l-254 139l-254 -139z" />
<glyph unicode="&#xcb;" horiz-adv-x="1275" d="M35 0v162l153 37v1022l-153 36v162h1147l18 -405h-186l-78 215h-404v-412h173l43 152h153v-488h-153l-43 156h-173v-447h416l101 267h190l-22 -457h-1182zM395 1651q0 62 43.5 103.5t104.5 41.5q63 0 106 -41t43 -104q0 -60 -43 -102t-106 -42q-60 0 -104 42t-44 102z M791 1651q0 62 43.5 103.5t105.5 41.5t104.5 -41.5t42.5 -103.5q0 -60 -43 -102t-104 -42q-62 0 -105.5 42t-43.5 102z" />
<glyph unicode="&#xcc;" horiz-adv-x="731" d="M35 0v162l153 37v1022l-153 36v162h657v-162l-153 -36v-1022l153 -37v-162h-657zM133 1659l113 225l407 -250l-57 -131z" />
<glyph unicode="&#xcd;" horiz-adv-x="731" d="M35 0v162l153 37v1022l-153 36v162h657v-162l-153 -36v-1022l153 -37v-162h-657zM164 1634l407 250l113 -225l-463 -156z" />
<glyph unicode="&#xce;" horiz-adv-x="731" d="M35 0v162l153 37v1022l-153 36v162h657v-162l-153 -36v-1022l153 -37v-162h-657zM90 1585l242 268h151l242 -268l-63 -88l-254 139l-254 -139z" />
<glyph unicode="&#xcf;" horiz-adv-x="731" d="M18 0v162l154 37v1022l-154 36v162h658v-162l-154 -36v-1022l154 -37v-162h-658zM104 1651q0 62 43.5 103.5t104.5 41.5q63 0 106 -41t43 -104q0 -60 -43 -102t-106 -42q-60 0 -104 42t-44 102zM500 1651q0 62 43.5 103.5t105.5 41.5t105 -41.5t43 -103.5q0 -60 -43 -102 t-105 -42t-105.5 42t-43.5 102z" />
<glyph unicode="&#xd0;" horiz-adv-x="1443" d="M35 0v162l153 37v422h-137v204h137v396l-151 36v162h649q353 0 532 -167t179 -515q0 -367 -183 -552t-516 -185h-663zM539 201h143q90 0 152 23.5t107.5 80.5t67 156.5t21.5 247.5q0 110 -11 192t-34 137.5t-53 91.5t-75.5 55.5t-93 26.5t-112.5 7h-112v-394h276v-204 h-276v-420z" />
<glyph unicode="&#xd1;" horiz-adv-x="1486" d="M35 0v162l153 37v1022l-153 36v162h538l512 -882h11v682l-156 38v162h520v-162l-135 -36v-1221h-303l-594 1038h-8v-841l155 -35v-162h-540zM451 1614q42 95 103 150t138 55q50 0 125.5 -33t102.5 -33q62 0 110 74l121 -78q-42 -95 -103.5 -150t-138.5 -55q-50 0 -125 33 t-102 33q-63 0 -111 -72z" />
<glyph unicode="&#xd2;" d="M47 705q0 150 37.5 274.5t102 209t151.5 143t184.5 85.5t202.5 27q144 0 264.5 -46t211 -134t141.5 -227.5t51 -317.5q0 -150 -37.5 -275t-101.5 -210.5t-150.5 -144.5t-184 -86.5t-202.5 -27.5q-145 0 -266.5 46.5t-212 135.5t-141 229.5t-50.5 318.5zM412 727 q0 -285 72 -414t237 -129q151 0 229 128t78 380q0 289 -75 416t-234 127q-151 0 -229 -128.5t-78 -379.5zM473 1659l113 225l407 -250l-57 -131z" />
<glyph unicode="&#xd3;" d="M47 705q0 150 37.5 274.5t102 209t151.5 143t184.5 85.5t202.5 27q144 0 264.5 -46t211 -134t141.5 -227.5t51 -317.5q0 -150 -37.5 -275t-101.5 -210.5t-150.5 -144.5t-184 -86.5t-202.5 -27.5q-145 0 -266.5 46.5t-212 135.5t-141 229.5t-50.5 318.5zM412 727 q0 -285 72 -414t237 -129q151 0 229 128t78 380q0 289 -75 416t-234 127q-151 0 -229 -128.5t-78 -379.5zM504 1634l407 250l113 -225l-463 -156z" />
<glyph unicode="&#xd4;" d="M47 705q0 150 37.5 274.5t102 209t151.5 143t184.5 85.5t202.5 27q144 0 264.5 -46t211 -134t141.5 -227.5t51 -317.5q0 -150 -37.5 -275t-101.5 -210.5t-150.5 -144.5t-184 -86.5t-202.5 -27.5q-145 0 -266.5 46.5t-212 135.5t-141 229.5t-50.5 318.5zM412 727 q0 -285 72 -414t237 -129q151 0 229 128t78 380q0 289 -75 416t-234 127q-151 0 -229 -128.5t-78 -379.5zM430 1585l242 268h151l242 -268l-64 -88l-253 139l-254 -139z" />
<glyph unicode="&#xd5;" d="M47 705q0 150 37.5 274.5t102 209t151.5 143t184.5 85.5t202.5 27q144 0 264.5 -46t211 -134t141.5 -227.5t51 -317.5q0 -150 -37.5 -275t-101.5 -210.5t-150.5 -144.5t-184 -86.5t-202.5 -27.5q-145 0 -266.5 46.5t-212 135.5t-141 229.5t-50.5 318.5zM408 1614 q42 95 103 150t138 55q50 0 125.5 -33t102.5 -33q62 0 110 74l121 -78q-42 -95 -103.5 -150t-138.5 -55q-50 0 -125 33t-102 33q-63 0 -111 -72zM412 727q0 -285 72 -414t237 -129q151 0 229 128t78 380q0 289 -75 416t-234 127q-151 0 -229 -128.5t-78 -379.5z" />
<glyph unicode="&#xd6;" d="M47 705q0 150 37.5 274.5t102 209t151.5 143t184.5 85.5t202.5 27q144 0 264.5 -46t211 -134t141.5 -227.5t51 -317.5q0 -150 -37.5 -275t-101.5 -210.5t-150.5 -144.5t-184 -86.5t-202.5 -27.5q-145 0 -266.5 46.5t-212 135.5t-141 229.5t-50.5 318.5zM412 727 q0 -285 72 -414t237 -129q151 0 229 128t78 380q0 289 -75 416t-234 127q-151 0 -229 -128.5t-78 -379.5zM461 1651q0 62 43 103.5t104 41.5q64 0 107 -41t43 -104q0 -60 -43.5 -102t-106.5 -42q-60 0 -103.5 42t-43.5 102zM856 1651q0 62 44 103.5t106 41.5t104.5 -41.5 t42.5 -103.5q0 -60 -43 -102t-104 -42q-62 0 -106 42t-44 102z" />
<glyph unicode="&#xd7;" horiz-adv-x="1095" d="M117 387l293 297l-293 297l139 139l293 -297l291 295l139 -139l-293 -295l295 -297l-139 -139l-293 295l-293 -295z" />
<glyph unicode="&#xd8;" d="M47 705q0 150 37.5 274.5t102 209t151.5 143t184.5 85.5t202.5 27q198 0 344 -82l82 119h192l-145 -215q195 -195 195 -547q0 -150 -37.5 -275t-101.5 -210.5t-150.5 -144.5t-184 -86.5t-202.5 -27.5q-196 0 -344 80l-94 -137h-193l158 234q-197 194 -197 553zM401 727 q0 -187 29 -303l496 727q-75 84 -209 84q-156 0 -236 -128.5t-80 -379.5zM512 260q76 -76 211 -76q315 0 315 498q0 185 -30 305z" />
<glyph unicode="&#xd9;" horiz-adv-x="1441" d="M16 1257v162h641v-162l-145 -34v-746q0 -153 71.5 -222t207.5 -69t204 68.5t68 222.5v746l-145 32v164h507v-162l-133 -36v-752q0 -230 -136.5 -362t-414.5 -132q-291 0 -435 124.5t-144 346.5v775zM487 1659l113 225l408 -250l-58 -131z" />
<glyph unicode="&#xda;" horiz-adv-x="1441" d="M16 1257v162h641v-162l-145 -34v-746q0 -153 71.5 -222t207.5 -69t204 68.5t68 222.5v746l-145 32v164h507v-162l-133 -36v-752q0 -230 -136.5 -362t-414.5 -132q-291 0 -435 124.5t-144 346.5v775zM518 1634l408 250l112 -225l-463 -156z" />
<glyph unicode="&#xdb;" horiz-adv-x="1441" d="M16 1257v162h641v-162l-145 -34v-746q0 -153 71.5 -222t207.5 -69t204 68.5t68 222.5v746l-145 32v164h507v-162l-133 -36v-752q0 -230 -136.5 -362t-414.5 -132q-291 0 -435 124.5t-144 346.5v775zM444 1585l242 268h152l241 -268l-63 -88l-254 139l-254 -139z" />
<glyph unicode="&#xdc;" horiz-adv-x="1441" d="M16 1257v162h641v-162l-145 -34v-746q0 -153 71.5 -222t207.5 -69t204 68.5t68 222.5v746l-145 32v164h507v-162l-133 -36v-752q0 -230 -136.5 -362t-414.5 -132q-291 0 -435 124.5t-144 346.5v775zM475 1651q0 62 43.5 103.5t104.5 41.5q63 0 106 -41t43 -104 q0 -60 -43 -102t-106 -42q-60 0 -104 42t-44 102zM870 1651q0 62 44 103.5t106 41.5t104.5 -41.5t42.5 -103.5q0 -60 -43 -102t-104 -42q-62 0 -106 42t-44 102z" />
<glyph unicode="&#xdd;" horiz-adv-x="1339" d="M14 1257v162h598v-162l-116 -34l243 -437h9l231 437l-123 34v162h469v-162l-115 -36l-354 -627v-395l158 -37v-162h-664v162l158 37v389l-381 633zM492 1634l407 250l113 -225l-463 -156z" />
<glyph unicode="&#xde;" horiz-adv-x="1261" d="M35 0v162l151 37v1022l-151 36v162h639v-162l-137 -34v-105h155q541 0 541 -385q0 -186 -128 -285.5t-349 -99.5q-101 0 -193 21v163q32 -8 121 -8q100 0 149.5 50t49.5 155q0 108 -47 152.5t-156 44.5h-143v-729l180 -35v-162h-682z" />
<glyph unicode="&#xdf;" horiz-adv-x="1325" d="M31 0v150l129 30v709h-129v139l129 49v29q0 189 145 307.5t393 118.5q219 0 336 -86t117 -221q0 -45 -20.5 -89.5t-51.5 -78t-67.5 -68t-67.5 -61.5t-51.5 -57t-20.5 -56q0 -38 26 -64t97 -69l84 -53q47 -29 78 -53.5t65.5 -62.5t52 -89t17.5 -113q0 -154 -101 -246 t-298 -92q-170 0 -297 52l-14 272h176l37 -123q40 -18 84 -18q59 0 94 24t35 72q0 15 -3.5 29t-13.5 27.5t-16.5 22.5t-25.5 23.5t-27 20.5t-33.5 23t-32.5 22l-82 53q-37 25 -63 46.5t-52.5 52.5t-40.5 68.5t-14 80.5q0 52 23.5 105.5t57.5 98.5t68 88t57.5 89.5t23.5 89.5 q0 69 -37.5 110t-112.5 41q-207 0 -207 -266v-1077h-446z" />
<glyph unicode="&#xe0;" horiz-adv-x="1071" d="M27 268q0 60 17.5 107.5t47.5 80t79 57.5t103 41t127 30l215 43v71q0 66 -16.5 101t-63 53t-135.5 18q-156 0 -276 -20v176q201 76 428 76q194 0 287.5 -84t93.5 -258v-524q0 -70 80 -70h39v-146q-30 -16 -87 -30.5t-116 -14.5q-160 0 -199 123h-10q-45 -55 -119.5 -90 t-171.5 -35q-146 0 -234.5 81.5t-88.5 213.5zM291 1329l112 225l408 -249l-57 -131zM342 311q0 -149 137 -149q40 0 77 16t60 37v256l-131 -8q-75 -6 -109 -43t-34 -109z" />
<glyph unicode="&#xe1;" horiz-adv-x="1071" d="M27 268q0 60 17.5 107.5t47.5 80t79 57.5t103 41t127 30l215 43v71q0 66 -16.5 101t-63 53t-135.5 18q-156 0 -276 -20v176q201 76 428 76q194 0 287.5 -84t93.5 -258v-524q0 -70 80 -70h39v-146q-30 -16 -87 -30.5t-116 -14.5q-160 0 -199 123h-10q-45 -55 -119.5 -90 t-171.5 -35q-146 0 -234.5 81.5t-88.5 213.5zM322 1305l407 249l113 -225l-463 -155zM342 311q0 -149 137 -149q40 0 77 16t60 37v256l-131 -8q-75 -6 -109 -43t-34 -109z" />
<glyph unicode="&#xe2;" horiz-adv-x="1071" d="M27 268q0 60 17.5 107.5t47.5 80t79 57.5t103 41t127 30l215 43v71q0 66 -16.5 101t-63 53t-135.5 18q-156 0 -276 -20v176q201 76 428 76q194 0 287.5 -84t93.5 -258v-524q0 -70 80 -70h39v-146q-30 -16 -87 -30.5t-116 -14.5q-160 0 -199 123h-10q-45 -55 -119.5 -90 t-171.5 -35q-146 0 -234.5 81.5t-88.5 213.5zM248 1255l241 269h152l242 -269l-64 -88l-254 140l-254 -140zM342 311q0 -149 137 -149q40 0 77 16t60 37v256l-131 -8q-75 -6 -109 -43t-34 -109z" />
<glyph unicode="&#xe3;" horiz-adv-x="1071" d="M27 268q0 60 17.5 107.5t47.5 80t79 57.5t103 41t127 30l215 43v71q0 66 -16.5 101t-63 53t-135.5 18q-156 0 -276 -20v176q201 76 428 76q194 0 287.5 -84t93.5 -258v-524q0 -70 80 -70h39v-146q-30 -16 -87 -30.5t-116 -14.5q-160 0 -199 123h-10q-45 -55 -119.5 -90 t-171.5 -35q-146 0 -234.5 81.5t-88.5 213.5zM225 1284q42 95 103.5 150t138.5 55q50 0 125 -33t102 -33q63 0 111 74l121 -78q-42 -95 -103.5 -150t-138.5 -55q-50 0 -125 33t-102 33q-63 0 -111 -72zM342 311q0 -149 137 -149q40 0 77 16t60 37v256l-131 -8 q-75 -6 -109 -43t-34 -109z" />
<glyph unicode="&#xe4;" horiz-adv-x="1071" d="M27 268q0 60 17.5 107.5t47.5 80t79 57.5t103 41t127 30l215 43v71q0 66 -16.5 101t-63 53t-135.5 18q-156 0 -276 -20v176q201 76 428 76q194 0 287.5 -84t93.5 -258v-524q0 -70 80 -70h39v-146q-30 -16 -87 -30.5t-116 -14.5q-160 0 -199 123h-10q-45 -55 -119.5 -90 t-171.5 -35q-146 0 -234.5 81.5t-88.5 213.5zM279 1321q0 62 43 103.5t104 41.5q63 0 106 -41t43 -104q0 -60 -43 -101.5t-106 -41.5q-60 0 -103.5 41.5t-43.5 101.5zM342 311q0 -149 137 -149q40 0 77 16t60 37v256l-131 -8q-75 -6 -109 -43t-34 -109zM674 1321 q0 62 43.5 103.5t105.5 41.5t105 -41.5t43 -103.5q0 -60 -43 -101.5t-105 -41.5t-105.5 41.5t-43.5 101.5z" />
<glyph unicode="&#xe5;" horiz-adv-x="1071" d="M27 268q0 60 17.5 107.5t47.5 80t79 57.5t103 41t127 30l215 43v71q0 66 -16.5 101t-63 53t-135.5 18q-156 0 -276 -20v176q201 76 428 76q194 0 287.5 -84t93.5 -258v-524q0 -70 80 -70h39v-146q-30 -16 -87 -30.5t-116 -14.5q-160 0 -199 123h-10q-45 -55 -119.5 -90 t-171.5 -35q-146 0 -234.5 81.5t-88.5 213.5zM338 1391q0 87 64 149t159 62t159 -62t64 -149q0 -89 -63.5 -151t-159.5 -62t-159.5 62t-63.5 151zM342 311q0 -149 137 -149q40 0 77 16t60 37v256l-131 -8q-75 -6 -109 -43t-34 -109zM465 1391q0 -46 26 -73.5t70 -27.5 t70 27.5t26 73.5q0 44 -26 72t-70 28t-70 -28t-26 -72z" />
<glyph unicode="&#xe6;" horiz-adv-x="1648" d="M27 268q0 75 25 130.5t75.5 92.5t116 60t157.5 39l215 41v67q0 66 -16.5 101t-63 53t-135.5 18q-156 0 -276 -20v176q201 76 412 76q204 0 290 -109q121 109 314 109q242 0 354.5 -145.5t112.5 -458.5h-670q12 -160 89 -232.5t220 -72.5q68 0 129 8.5t95.5 17.5t84.5 25 v-166q-170 -105 -391 -105q-301 0 -442 183q-64 -86 -158 -134.5t-200 -48.5q-155 0 -246.5 81t-91.5 214zM342 311q0 -149 143 -149q87 0 181 94q-44 100 -50 221l-131 -8q-143 -8 -143 -158zM936 649l354 15q0 134 -41 194t-121 60q-86 0 -134 -63t-58 -206z" />
<glyph unicode="&#xe7;" horiz-adv-x="1001" d="M37 532q0 146 43.5 256.5t123 178.5t185.5 101.5t238 33.5q195 0 315 -43v-318h-199l-30 156q-46 16 -105 16q-237 0 -237 -354q0 -197 82 -280.5t235 -83.5q164 0 264 47v-168q-142 -101 -362 -101h-23v-61q133 -6 189.5 -42.5t56.5 -113.5q0 -182 -422 -202v100 q117 12 162 32.5t45 57.5q0 63 -158 66v178q-200 38 -301.5 178.5t-101.5 365.5z" />
<glyph unicode="&#xe8;" horiz-adv-x="1085" d="M37 545q0 260 145.5 408.5t384.5 148.5q245 0 360 -144t115 -456h-677q12 -161 91 -235t224 -74q152 0 311 51v-166q-165 -105 -395 -105q-276 0 -417.5 150.5t-141.5 421.5zM305 1329l113 225l407 -249l-57 -131zM365 653l360 13q0 134 -42.5 193t-123.5 59 q-86 0 -135.5 -61.5t-58.5 -203.5z" />
<glyph unicode="&#xe9;" horiz-adv-x="1085" d="M37 545q0 260 145.5 408.5t384.5 148.5q245 0 360 -144t115 -456h-677q12 -161 91 -235t224 -74q152 0 311 51v-166q-165 -105 -395 -105q-276 0 -417.5 150.5t-141.5 421.5zM336 1305l407 249l113 -225l-463 -155zM365 653l360 13q0 134 -42.5 193t-123.5 59 q-86 0 -135.5 -61.5t-58.5 -203.5z" />
<glyph unicode="&#xea;" horiz-adv-x="1085" d="M37 545q0 260 145.5 408.5t384.5 148.5q245 0 360 -144t115 -456h-677q12 -161 91 -235t224 -74q152 0 311 51v-166q-165 -105 -395 -105q-276 0 -417.5 150.5t-141.5 421.5zM262 1255l242 269h151l242 -269l-63 -88l-254 140l-254 -140zM365 653l360 13q0 134 -42.5 193 t-123.5 59q-86 0 -135.5 -61.5t-58.5 -203.5z" />
<glyph unicode="&#xeb;" horiz-adv-x="1085" d="M37 545q0 260 145.5 408.5t384.5 148.5q245 0 360 -144t115 -456h-677q12 -161 91 -235t224 -74q152 0 311 51v-166q-165 -105 -395 -105q-276 0 -417.5 150.5t-141.5 421.5zM293 1321q0 62 43 103.5t104 41.5q64 0 107 -41t43 -104q0 -60 -43.5 -101.5t-106.5 -41.5 q-60 0 -103.5 41.5t-43.5 101.5zM365 653l360 13q0 134 -42.5 193t-123.5 59q-86 0 -135.5 -61.5t-58.5 -203.5zM688 1321q0 62 44 103.5t106 41.5t104.5 -41.5t42.5 -103.5q0 -60 -42.5 -101.5t-104.5 -41.5t-106 41.5t-44 101.5z" />
<glyph unicode="&#xec;" horiz-adv-x="624" d="M18 897v154l424 49l31 -15v-905l125 -30v-150h-569v150l129 30v684zM92 1329l113 225l407 -249l-57 -131z" />
<glyph unicode="&#xed;" horiz-adv-x="624" d="M18 897v154l424 49l31 -15v-905l125 -30v-150h-569v150l129 30v684zM123 1305l407 249l113 -225l-463 -155z" />
<glyph unicode="&#xee;" horiz-adv-x="624" d="M-4 897v154l424 49l31 -15v-905l124 -30v-150h-569v150l129 30v684zM27 1255l241 269h152l242 -269l-64 -88l-254 140l-254 -140z" />
<glyph unicode="&#xef;" horiz-adv-x="624" d="M-35 897v154l424 49l31 -15v-905l125 -30v-150h-570v150l129 30v684zM27 1321q0 62 43 103.5t104 41.5q64 0 107 -41t43 -104q0 -60 -43.5 -101.5t-106.5 -41.5q-60 0 -103.5 41.5t-43.5 101.5zM422 1321q0 62 43.5 103.5t105.5 41.5t105 -41.5t43 -103.5 q0 -60 -43 -101.5t-105 -41.5t-105.5 41.5t-43.5 101.5z" />
<glyph unicode="&#xf0;" horiz-adv-x="1167" d="M37 512q0 108 26.5 198t72 153t107 107t131 64.5t144.5 20.5q96 0 174 -56q-62 110 -166 201l-258 -125v144l146 69q-46 33 -154 96l137 156q139 -59 260 -133l263 129v-143l-144 -70q350 -277 350 -723q0 -301 -149.5 -464t-392.5 -163q-255 0 -401 148.5t-146 390.5z M369 526q0 -104 16.5 -177t47 -112t68 -56t85.5 -17q47 0 82.5 16.5t65.5 54.5t45.5 109.5t15.5 173.5q0 84 -11.5 147t-31 102.5t-48.5 64t-60 33.5t-69 9q-48 0 -83 -15.5t-64 -52.5t-44 -107.5t-15 -172.5z" />
<glyph unicode="&#xf1;" horiz-adv-x="1263" d="M23 897v154l405 49l31 -15v-108h12q172 125 356 125q289 0 289 -273v-649l123 -30v-150h-547v150l107 26v547q0 77 -37.5 108t-118.5 31q-65 0 -172 -35v-651l107 -26v-150h-551v150l129 30v684zM344 1284q42 95 103.5 150t138.5 55q50 0 125 -33t102 -33q63 0 111 74 l120 -78q-42 -95 -103 -150t-138 -55q-50 0 -125.5 33t-102.5 33q-62 0 -110 -72z" />
<glyph unicode="&#xf2;" horiz-adv-x="1169" d="M37 532q0 176 73.5 307t196 197t275.5 66q258 0 402 -147t144 -410q0 -132 -42.5 -241t-116.5 -180.5t-173 -111t-212 -39.5q-257 0 -402 150t-145 409zM344 1329l113 225l407 -249l-57 -131zM369 547q0 -383 217 -383q37 0 67 10.5t57 36t45.5 66.5t29 105t10.5 148 q0 383 -215 383q-48 0 -84 -17t-66 -56.5t-45.5 -113t-15.5 -179.5z" />
<glyph unicode="&#xf3;" horiz-adv-x="1169" d="M37 532q0 176 73.5 307t196 197t275.5 66q258 0 402 -147t144 -410q0 -132 -42.5 -241t-116.5 -180.5t-173 -111t-212 -39.5q-257 0 -402 150t-145 409zM369 547q0 -383 217 -383q37 0 67 10.5t57 36t45.5 66.5t29 105t10.5 148q0 383 -215 383q-48 0 -84 -17t-66 -56.5 t-45.5 -113t-15.5 -179.5zM375 1305l407 249l113 -225l-463 -155z" />
<glyph unicode="&#xf4;" horiz-adv-x="1169" d="M37 532q0 176 73.5 307t196 197t275.5 66q258 0 402 -147t144 -410q0 -132 -42.5 -241t-116.5 -180.5t-173 -111t-212 -39.5q-257 0 -402 150t-145 409zM301 1255l242 269h151l242 -269l-64 -88l-254 140l-253 -140zM369 547q0 -383 217 -383q37 0 67 10.5t57 36 t45.5 66.5t29 105t10.5 148q0 383 -215 383q-48 0 -84 -17t-66 -56.5t-45.5 -113t-15.5 -179.5z" />
<glyph unicode="&#xf5;" horiz-adv-x="1169" d="M37 532q0 176 73.5 307t196 197t275.5 66q258 0 402 -147t144 -410q0 -132 -42.5 -241t-116.5 -180.5t-173 -111t-212 -39.5q-257 0 -402 150t-145 409zM279 1284q42 95 103 150t138 55q50 0 125.5 -33t102.5 -33q62 0 110 74l121 -78q-42 -95 -103.5 -150t-138.5 -55 q-50 0 -125 33t-102 33q-63 0 -111 -72zM369 547q0 -383 217 -383q37 0 67 10.5t57 36t45.5 66.5t29 105t10.5 148q0 383 -215 383q-48 0 -84 -17t-66 -56.5t-45.5 -113t-15.5 -179.5z" />
<glyph unicode="&#xf6;" horiz-adv-x="1169" d="M37 532q0 176 73.5 307t196 197t275.5 66q258 0 402 -147t144 -410q0 -132 -42.5 -241t-116.5 -180.5t-173 -111t-212 -39.5q-257 0 -402 150t-145 409zM332 1321q0 62 43 103.5t104 41.5q64 0 107 -41t43 -104q0 -60 -43.5 -101.5t-106.5 -41.5q-60 0 -103.5 41.5 t-43.5 101.5zM369 547q0 -383 217 -383q37 0 67 10.5t57 36t45.5 66.5t29 105t10.5 148q0 383 -215 383q-48 0 -84 -17t-66 -56.5t-45.5 -113t-15.5 -179.5zM727 1321q0 62 44 103.5t106 41.5t104.5 -41.5t42.5 -103.5q0 -60 -42.5 -101.5t-104.5 -41.5t-106 41.5t-44 101.5 z" />
<glyph unicode="&#xf7;" horiz-adv-x="1095" d="M100 594v205h895v-205h-895zM377 309q0 68 48.5 116t121.5 48t122.5 -48t49.5 -116q0 -66 -50 -115t-122 -49t-121 49t-49 115zM377 1081q0 69 48.5 117.5t121.5 48.5t122.5 -49t49.5 -117q0 -66 -50 -113.5t-122 -47.5t-121 47.5t-49 113.5z" />
<glyph unicode="&#xf8;" horiz-adv-x="1169" d="M29 -82l147 201q-147 150 -147 413q0 176 73 307t195.5 197t275.5 66q159 0 279 -60l74 101h184l-137 -187q147 -147 147 -411q0 -132 -43 -241t-117 -180.5t-173 -111t-212 -39.5q-154 0 -280 60l-84 -115h-182zM344 547q0 -109 14 -178l359 489q-54 57 -146 57 q-51 0 -89.5 -17t-71 -57t-49.5 -114t-17 -180zM430 217q52 -55 148 -55q225 0 225 368q0 84 -15 172z" />
<glyph unicode="&#xf9;" horiz-adv-x="1263" d="M12 905v154l414 39l29 -15v-712q0 -85 31.5 -121.5t115.5 -36.5q41 0 78.5 7t54 13t49.5 19v618l-122 35v154l407 39l31 -15v-872l129 -33v-149l-402 -49l-30 14v117h-13q-138 -134 -333 -134q-312 0 -312 304v589zM410 1329l112 225l408 -249l-58 -131z" />
<glyph unicode="&#xfa;" horiz-adv-x="1263" d="M12 905v154l414 39l29 -15v-712q0 -85 31.5 -121.5t115.5 -36.5q41 0 78.5 7t54 13t49.5 19v618l-122 35v154l407 39l31 -15v-872l129 -33v-149l-402 -49l-30 14v117h-13q-138 -134 -333 -134q-312 0 -312 304v589zM440 1305l408 249l113 -225l-463 -155z" />
<glyph unicode="&#xfb;" horiz-adv-x="1263" d="M12 905v154l414 39l29 -15v-712q0 -85 31.5 -121.5t115.5 -36.5q41 0 78.5 7t54 13t49.5 19v618l-122 35v154l407 39l31 -15v-872l129 -33v-149l-402 -49l-30 14v117h-13q-138 -134 -333 -134q-312 0 -312 304v589zM367 1255l241 269h152l241 -269l-63 -88l-254 140 l-254 -140z" />
<glyph unicode="&#xfc;" horiz-adv-x="1263" d="M12 905v154l414 39l29 -15v-712q0 -85 31.5 -121.5t115.5 -36.5q41 0 78.5 7t54 13t49.5 19v618l-122 35v154l407 39l31 -15v-872l129 -33v-149l-402 -49l-30 14v117h-13q-138 -134 -333 -134q-312 0 -312 304v589zM387 1321q0 62 43.5 103.5t104.5 41.5q63 0 106 -41 t43 -104q0 -60 -43 -101.5t-106 -41.5q-60 0 -104 41.5t-44 101.5zM782 1321q0 62 44 103.5t106 41.5t104.5 -41.5t42.5 -103.5q0 -60 -42.5 -101.5t-104.5 -41.5t-106 41.5t-44 101.5z" />
<glyph unicode="&#xfd;" horiz-adv-x="1185" d="M4 928v151h547v-151l-113 -25l209 -551h8l183 551l-111 25v151h447v-151l-97 -29l-391 -1026q-57 -150 -139 -218.5t-228 -68.5q-49 0 -103.5 10.5t-86.5 24.5v195q67 -15 109 -15q75 0 122 27t72 92l41 100l-369 879zM408 1305l407 249l113 -225l-463 -155z" />
<glyph unicode="&#xfe;" horiz-adv-x="1222" d="M6 -262l127 26v1522l-127 33v162l408 47l30 -15v-524h13q145 115 311 115q63 0 118 -14.5t108 -52t90.5 -95t60 -150t22.5 -210.5q0 -157 -41 -276t-116 -190.5t-173.5 -107t-220.5 -35.5q-81 0 -165 15v-221l149 -29v-148h-594v148zM451 207q21 -15 36 -22.5t46 -15 t71 -7.5q56 0 96.5 17.5t72 59t47.5 116.5t16 184q0 182 -54 258.5t-164 76.5q-89 0 -167 -38v-629z" />
<glyph unicode="&#xff;" horiz-adv-x="1185" d="M4 928v151h547v-151l-113 -25l209 -551h8l183 551l-111 25v151h447v-151l-97 -29l-391 -1026q-57 -150 -139 -218.5t-228 -68.5q-49 0 -103.5 10.5t-86.5 24.5v195q67 -15 109 -15q75 0 122 27t72 92l41 100l-369 879zM365 1321q0 62 43 103.5t104 41.5q64 0 107 -41 t43 -104q0 -60 -43.5 -101.5t-106.5 -41.5q-60 0 -103.5 41.5t-43.5 101.5zM760 1321q0 62 43.5 103.5t105.5 41.5t105 -41.5t43 -103.5q0 -60 -43 -101.5t-105 -41.5t-105.5 41.5t-43.5 101.5z" />
<glyph unicode="&#x152;" horiz-adv-x="1968" d="M45 682q0 367 187 552t524 185h1124l18 -405h-186l-78 215h-399v-412h164l41 152h155v-488h-155l-41 156h-164v-447h410l102 267h188l-22 -457h-1145q-723 0 -723 682zM412 711q0 -131 18 -223.5t48 -148t82 -86.5t107 -41.5t136 -10.5h88v1018h-119q-91 0 -155 -23.5 t-111.5 -80.5t-70.5 -156.5t-23 -247.5z" />
<glyph unicode="&#x153;" horiz-adv-x="1845" d="M37 532q0 176 73.5 307t196 197t275.5 66q253 0 381 -166q128 166 362 166q247 0 361 -143.5t114 -456.5h-678q13 -161 92.5 -235t223.5 -74q156 0 311 51v-166q-165 -105 -393 -105q-280 0 -404 172q-133 -172 -368 -172q-257 0 -402 150t-145 409zM369 547 q0 -383 217 -383q37 0 67 10.5t57 36t45.5 66.5t29 105t10.5 148q0 383 -215 383q-48 0 -84 -17t-66 -56.5t-45.5 -113t-15.5 -179.5zM1122 653l363 13q0 134 -43 193t-125 59q-87 0 -136.5 -62t-58.5 -203z" />
<glyph unicode="&#x178;" horiz-adv-x="1339" d="M14 1257v162h598v-162l-116 -34l243 -437h9l231 437l-123 34v162h469v-162l-115 -36l-354 -627v-395l158 -37v-162h-664v162l158 37v389l-381 633zM449 1651q0 62 43 103.5t104 41.5q63 0 106 -41t43 -104q0 -60 -43 -102t-106 -42q-60 0 -103.5 42t-43.5 102zM844 1651 q0 62 43.5 103.5t105.5 41.5t105 -41.5t43 -103.5q0 -60 -43 -102t-105 -42t-105.5 42t-43.5 102z" />
<glyph unicode="&#x2c6;" horiz-adv-x="1011" d="M188 1255l242 269h152l241 -269l-63 -88l-254 140l-254 -140z" />
<glyph unicode="&#x2dc;" horiz-adv-x="1011" d="M154 1284q42 95 103 150t138 55q50 0 125.5 -33t102.5 -33q62 0 110 74l121 -78q-42 -95 -103.5 -150t-138.5 -55q-50 0 -125 33t-102 33q-63 0 -111 -72z" />
<glyph unicode="&#x2000;" horiz-adv-x="965" />
<glyph unicode="&#x2001;" horiz-adv-x="1931" />
<glyph unicode="&#x2002;" horiz-adv-x="965" />
<glyph unicode="&#x2003;" horiz-adv-x="1931" />
<glyph unicode="&#x2004;" horiz-adv-x="643" />
<glyph unicode="&#x2005;" horiz-adv-x="482" />
<glyph unicode="&#x2006;" horiz-adv-x="321" />
<glyph unicode="&#x2007;" horiz-adv-x="321" />
<glyph unicode="&#x2008;" horiz-adv-x="241" />
<glyph unicode="&#x2009;" horiz-adv-x="386" />
<glyph unicode="&#x200a;" horiz-adv-x="107" />
<glyph unicode="&#x2010;" horiz-adv-x="655" d="M72 463v242h512v-242h-512z" />
<glyph unicode="&#x2011;" horiz-adv-x="655" d="M72 463v242h512v-242h-512z" />
<glyph unicode="&#x2012;" horiz-adv-x="655" d="M72 463v242h512v-242h-512z" />
<glyph unicode="&#x2013;" horiz-adv-x="827" d="M57 496v184h709v-184h-709z" />
<glyph unicode="&#x2014;" horiz-adv-x="1433" d="M57 496v184h1315v-184h-1315z" />
<glyph unicode="&#x2018;" horiz-adv-x="489" d="M80 973q28 252 127 446h205q-31 -243 -31 -446h-301z" />
<glyph unicode="&#x2019;" horiz-adv-x="489" d="M78 973q28 247 28 446h302q-28 -252 -127 -446h-203z" />
<glyph unicode="&#x201a;" horiz-adv-x="489" d="M78 -160q28 247 28 447h302q-28 -254 -127 -447h-203z" />
<glyph unicode="&#x201c;" horiz-adv-x="886" d="M80 973q28 252 127 446h205q-31 -243 -31 -446h-301zM477 973q28 252 127 446h203q-29 -256 -29 -446h-301z" />
<glyph unicode="&#x201d;" horiz-adv-x="886" d="M78 973q28 247 28 446h302q-28 -252 -127 -446h-203zM473 973q31 273 31 446h301q-27 -247 -129 -446h-203z" />
<glyph unicode="&#x201e;" horiz-adv-x="886" d="M78 -160q28 247 28 447h302q-28 -254 -127 -447h-203zM473 -160q31 273 31 447h301q-28 -249 -129 -447h-203z" />
<glyph unicode="&#x2022;" horiz-adv-x="1679" d="M78 731q0 155 60 295.5t162 242.5t242.5 162t295.5 60t296.5 -60t244.5 -162t164 -242.5t61 -295.5t-61 -296.5t-164 -243.5t-244.5 -163t-296.5 -61t-295.5 61t-242.5 163.5t-162 243.5t-60 296z" />
<glyph unicode="&#x2026;" horiz-adv-x="1536" d="M72 143q0 71 51 121.5t127 50.5q77 0 128.5 -50.5t51.5 -121.5t-51.5 -121.5t-128.5 -50.5q-76 0 -127 50.5t-51 121.5zM588 143q0 71 52 121.5t128 50.5q77 0 128.5 -50.5t51.5 -121.5t-51.5 -121.5t-128.5 -50.5q-76 0 -128 50.5t-52 121.5zM1106 143q0 71 52 121.5 t128 50.5q77 0 128.5 -50.5t51.5 -121.5t-51.5 -121.5t-128.5 -50.5q-76 0 -128 50.5t-52 121.5z" />
<glyph unicode="&#x202f;" horiz-adv-x="386" />
<glyph unicode="&#x2039;" horiz-adv-x="557" d="M66 475v84l219 369h202l-159 -410l159 -412h-202z" />
<glyph unicode="&#x203a;" horiz-adv-x="557" d="M70 106l159 410l-159 412h204l218 -369v-84l-218 -369h-204z" />
<glyph unicode="&#x205f;" horiz-adv-x="482" />
<glyph unicode="&#x20ac;" horiz-adv-x="1269" d="M49 479v152h127q-2 20 -2 67v60h-125v151h141q23 143 80.5 248.5t142 167t185 90.5t219.5 29q212 0 359 -55l12 -363h-197l-55 178q-54 31 -131 31q-123 0 -192 -80t-91 -246h348v-151h-356v-19q0 -75 2 -108h354v-152h-335q29 -145 107.5 -206.5t225.5 -61.5 q153 0 322 65v-186q-176 -115 -406 -115q-505 0 -594 504h-141z" />
<glyph unicode="&#x2122;" horiz-adv-x="1622" d="M35 1188l8 231h602l8 -231h-110l-33 127h-68v-393l68 -15v-94h-332v94l68 15v393h-70l-31 -127h-110zM709 813v94l63 15v389l-63 14v94h319l105 -332h8l108 332h334v-94l-67 -14v-389l67 -15v-94h-311v94l55 15v348h-8l-141 -445h-131l-142 441h-6v-344l55 -15v-94h-245z " />
<glyph unicode="&#x25fc;" horiz-adv-x="1075" d="M0 0v1075h1075v-1075h-1075z" />
</font>
</defs>
</svg>
