<?xml version="1.0" standalone="no"?>
<!DOCTYPE svg PUBLIC "-//W3C//DTD SVG 1.1//EN" "http://www.w3.org/Graphics/SVG/1.1/DTD/svg11.dtd" >
<svg xmlns="http://www.w3.org/2000/svg">
<metadata></metadata>
<defs>
<font id="de4_display_egyptian_mediumRg" horiz-adv-x="1419" >
<font-face units-per-em="2048" ascent="1638" descent="-410" />
<missing-glyph horiz-adv-x="378" />
<glyph unicode="&#xfb01;" horiz-adv-x="1220" d="M35 0v113l139 32v762h-135v109l135 49v141q0 163 94.5 244.5t239.5 81.5q107 0 174 -39v-139q-46 8 -90 8q-79 0 -119.5 -41.5t-40.5 -140.5v-113h596l27 -14v-908l137 -32v-113h-516v113l121 28v766h-365v-766l121 -28v-113h-518zM774 1358q0 61 43.5 101t104.5 40 q62 0 103.5 -40t41.5 -101q0 -60 -41.5 -99.5t-103.5 -39.5q-61 0 -104.5 40t-43.5 99z" />
<glyph unicode="&#xfb02;" horiz-adv-x="1222" d="M35 0v113l139 32v762h-135v109l135 49v127q0 73 22 131.5t58.5 97t87.5 64t106.5 36.5t118.5 11q134 0 293 -64l168 64l27 -14v-1377l139 -28v-113h-518v113l121 28v1192q-100 29 -170 29q-102 0 -148.5 -43.5t-46.5 -157.5v-94h223v-160h-223v-766l121 -28v-113h-518z " />
<glyph unicode="&#xfb03;" horiz-adv-x="1843" d="M35 0v113l139 32v762h-135v109l135 49v111q0 88 27.5 154.5t76 105t107 57t127.5 18.5q111 0 195 -41v-139q-45 10 -107 10q-82 0 -125 -44t-43 -152v-78h365v139q0 84 26.5 148t73.5 102t105.5 57t127.5 19q108 0 175 -39v-139q-46 8 -91 8q-79 0 -119 -41.5t-40 -140.5 v-113h596l26 -14v-908l138 -32v-113h-517v113l121 28v766h-364v-766l121 -28v-113h-500v113l121 28v766h-365v-766l121 -28v-113h-518zM1397 1358q0 61 43 101t104 40q62 0 104 -40t42 -101q0 -60 -42 -99.5t-104 -39.5q-61 0 -104 40t-43 99z" />
<glyph unicode="&#xfb04;" horiz-adv-x="1845" d="M35 0v113l139 32v762h-135v109l135 49v111q0 88 27.5 154.5t76 105t107 57t127.5 18.5q111 0 195 -41v-139q-45 10 -107 10q-82 0 -125 -44t-43 -152v-78h365v125q0 73 22 131.5t58.5 97t87.5 64t106.5 36.5t118.5 11q134 0 293 -64l168 64l26 -14v-1377l140 -28v-113 h-519v113l121 28v1192q-100 29 -170 29q-102 0 -148 -43.5t-46 -157.5v-94h223v-160h-223v-766l121 -28v-113h-500v113l121 28v766h-365v-766l121 -28v-113h-518z" />
<glyph horiz-adv-x="2048" />
<glyph horiz-adv-x="2048" />
<glyph unicode="&#xd;" horiz-adv-x="2048" />
<glyph unicode=" "  horiz-adv-x="378" />
<glyph unicode="&#x09;" horiz-adv-x="378" />
<glyph unicode="&#xa0;" horiz-adv-x="378" />
<glyph unicode="!" horiz-adv-x="528" d="M113 117q0 58 41.5 99.5t103.5 41.5t103.5 -41.5t41.5 -99.5q0 -59 -41.5 -101.5t-103.5 -42.5t-103.5 42.5t-41.5 101.5zM113 1419h284l-61 -1009h-164z" />
<glyph unicode="&#x22;" horiz-adv-x="827" d="M84 985q0 10 9.5 68t17.5 154.5t8 211.5h262q-1 -42 -7 -85.5t-17.5 -84t-22 -74t-26 -68t-24 -53.5t-21.5 -43.5t-13 -25.5h-166zM444 985q0 2 10 66.5t17.5 158t7.5 209.5h262q-1 -37 -6 -76t-12.5 -72t-19 -69t-21 -61t-22.5 -55t-20 -44.5t-17 -35t-11 -21.5h-168z " />
<glyph unicode="#" horiz-adv-x="1058" d="M57 393v223h195l33 209h-160v224h194l60 370h151l-59 -370h219l60 370h153l-59 -370h162v-224h-197l-33 -209h162v-223h-199l-61 -393h-154l62 393h-219l-62 -393h-151l61 393h-158zM403 616h220l32 209h-219z" />
<glyph unicode="$" horiz-adv-x="1083" d="M63 379h152l64 -195q59 -30 124 -41l56 488l-76 28q-152 57 -229.5 146t-77.5 244q0 174 121 284t354 113l14 121h144l-15 -127q109 -12 246 -58l16 -295h-147l-49 164q-67 20 -84 23l-49 -434l51 -19q71 -28 118 -50.5t95 -57t75.5 -73.5t44.5 -95.5t17 -128.5 q0 -91 -30.5 -168t-90 -137.5t-156.5 -96t-223 -39.5l-24 -215h-144l25 220q-186 15 -303 65zM307 1104q0 -77 40.5 -122.5t139.5 -86.5l45 393q-100 -3 -162.5 -51.5t-62.5 -132.5zM547 135q115 7 175 66.5t60 150.5q0 84 -41 133.5t-145 92.5z" />
<glyph unicode="%" horiz-adv-x="1761" d="M49 1038q0 99 29.5 178t80.5 128t115 74.5t136 25.5q70 0 134 -25t115 -72.5t81 -124.5t30 -173q0 -97 -29 -175t-79.5 -127t-115 -74.5t-138.5 -25.5q-155 0 -257 101.5t-102 289.5zM270 1047q0 -140 31.5 -209.5t106.5 -69.5q77 0 108 64.5t31 205.5q0 145 -31 215 t-106 70q-77 0 -108.5 -67.5t-31.5 -208.5zM297 -82l977 1542h170l-977 -1542h-170zM987 367q0 99 30 177.5t81 127.5t115.5 74.5t136.5 25.5q70 0 134 -25t115 -72.5t81 -124.5t30 -173q0 -97 -29 -175t-79.5 -127t-115 -74.5t-138.5 -25.5q-155 0 -258 102t-103 290z M1208 375q0 -140 32.5 -209.5t107.5 -69.5q76 0 107.5 65t31.5 206q0 143 -31 213.5t-106 70.5q-77 0 -109.5 -68t-32.5 -208z" />
<glyph unicode="&#x26;" horiz-adv-x="1447" d="M39 367q0 95 42 172.5t109 131.5t172 109q-59 78 -87.5 149t-28.5 150q0 163 113.5 264t291.5 101q158 0 257.5 -80.5t99.5 -216.5q0 -52 -17.5 -98.5t-44 -81t-71.5 -69.5t-87.5 -60t-103.5 -56l328 -379q59 102 88 222l-137 37v120h444v-120l-127 -37 q-51 -188 -166 -338l105 -121l163 -39v-127h-358l-92 106q-185 -131 -402 -131q-225 0 -358 105.5t-133 286.5zM317 403q0 -116 74 -189t203 -73q136 0 246 74l-389 457q-70 -56 -102 -120t-32 -149zM496 1106q0 -64 25.5 -114.5t78.5 -112.5q98 56 138 114t40 146 q0 75 -35.5 115t-95.5 40q-69 0 -110 -50.5t-41 -137.5z" />
<glyph unicode="'" horiz-adv-x="466" d="M84 985q0 10 9.5 68t17.5 154.5t8 211.5h262q-1 -42 -7 -85.5t-17.5 -84t-22 -74t-26 -68t-24 -53.5t-21.5 -43.5t-13 -25.5h-166z" />
<glyph unicode="(" horiz-adv-x="673" d="M68 618q0 124 29 242t75.5 213t111.5 183.5t130 153.5t139 124l92 -84q-317 -358 -317 -793q0 -153 23.5 -283t68.5 -235t98.5 -187t126.5 -165l-92 -84q-78 62 -140 120.5t-129.5 145t-112 177.5t-74 214t-29.5 258z" />
<glyph unicode=")" horiz-adv-x="673" d="M29 -213q315 360 315 793q0 153 -23 283t-68.5 235t-98 186.5t-125.5 165.5l90 84q78 -62 140 -120.5t129.5 -145t112.5 -178t74 -214.5t29 -258q0 -124 -29 -242t-75.5 -212.5t-111.5 -183t-130 -153.5t-139 -124z" />
<glyph unicode="*" horiz-adv-x="765" d="M57 1014l232 82l-232 82l90 157l189 -159l-51 243h194l-53 -243l188 159l93 -157l-232 -82l232 -82l-93 -158l-188 160l53 -242h-194l51 242l-189 -160z" />
<glyph unicode="+" horiz-adv-x="1087" d="M109 612v168h346v361h178v-361h346v-168h-346v-360h-178v360h-346z" />
<glyph unicode="," horiz-adv-x="479" d="M88 -195q31 243 31 447h266q-31 -256 -127 -447h-170z" />
<glyph unicode="-" horiz-adv-x="638" d="M78 483v205h483v-205h-483z" />
<glyph unicode="." horiz-adv-x="479" d="M80 123q0 65 45.5 109t112.5 44q66 0 110.5 -44t44.5 -109q0 -63 -44.5 -107.5t-110.5 -44.5q-67 0 -112.5 44.5t-45.5 107.5z" />
<glyph unicode="/" horiz-adv-x="720" d="M2 -246l492 1747h180l-492 -1747h-180z" />
<glyph unicode="0" horiz-adv-x="1308" d="M63 700q0 188 47 333t129.5 233.5t188 133t229.5 44.5t228.5 -43.5t185 -130t125.5 -228.5t45 -327q0 -150 -30 -273.5t-83.5 -209.5t-128 -145t-162 -86.5t-186.5 -27.5q-102 0 -190 27t-162 84.5t-126 142.5t-81 205t-29 268zM354 715q0 -298 71.5 -439t227.5 -141 q153 0 225 136t72 427q0 300 -70.5 442t-224.5 142q-153 0 -227 -140t-74 -427z" />
<glyph unicode="1" horiz-adv-x="808" d="M55 1145v127l396 164h108v-1274l199 -35v-127h-684v127l200 35v1001z" />
<glyph unicode="2" horiz-adv-x="1071" d="M23 0v145l342 340q75 76 122.5 130.5t92.5 119t65.5 127t20.5 127.5q0 248 -289 248q-137 0 -301 -59v149q84 49 195 83t223 34q217 0 339.5 -107.5t122.5 -310.5q0 -155 -109 -304t-331 -331l-217 -180v-4h475l82 174h139l-28 -381h-944z" />
<glyph unicode="3" horiz-adv-x="1036" d="M41 74v145q153 -55 319 -55q150 0 233 61.5t83 182.5q0 135 -71.5 191t-229.5 56h-107v162h88q138 0 209.5 55.5t71.5 163.5q0 110 -63.5 165.5t-198.5 55.5q-143 0 -277 -43v142q165 88 373 88q209 0 325.5 -92t116.5 -262q0 -125 -73.5 -211t-196.5 -123v-8 q146 -26 236 -114t90 -247q0 -191 -140 -300.5t-387 -109.5q-230 0 -401 97z" />
<glyph unicode="4" horiz-adv-x="1191" d="M37 410v149l670 860h231v-846h199v-163h-199v-250l174 -33v-127h-627v127l179 33v250h-627zM248 573h416v541h-9l-407 -534v-7z" />
<glyph unicode="5" horiz-adv-x="1056" d="M43 78v141q166 -57 311 -57q153 0 241.5 70t88.5 206q0 135 -87 205t-253 70q-86 0 -223 -27l49 733h760l-21 -215h-579l-27 -332q91 17 178 17q230 0 363 -116.5t133 -321.5q0 -214 -146 -344t-405 -130q-201 0 -383 101z" />
<glyph unicode="6" horiz-adv-x="1198" d="M68 649q0 166 36.5 301t98.5 226t147.5 152t181 88.5t201.5 27.5q202 0 322 -76v-147q-88 36 -267 36q-68 0 -124.5 -12.5t-110.5 -45.5t-93 -85.5t-66.5 -136.5t-35.5 -195q166 103 349 103q194 0 313 -116t119 -312q0 -101 -34 -188t-98.5 -153.5t-164.5 -104.5 t-224 -38q-258 0 -404 180.5t-146 495.5zM356 604q0 -108 13 -190.5t42 -147t80.5 -98t124.5 -33.5q119 0 177.5 78t58.5 223q0 275 -242 275q-148 0 -254 -66v-41z" />
<glyph unicode="7" horiz-adv-x="1042" d="M39 1053l20 366h951v-176l-510 -1243h-314l645 1196v8h-591l-56 -151h-145z" />
<glyph unicode="8" horiz-adv-x="1200" d="M59 354q0 124 86 214.5t220 140.5q-129 61 -189.5 148t-60.5 210q0 164 131.5 270.5t353.5 106.5q223 0 351 -92.5t128 -253.5q0 -210 -264 -324q159 -62 241.5 -153t82.5 -230q0 -191 -141.5 -304.5t-399.5 -113.5q-259 0 -399 100.5t-140 280.5zM305 362 q0 -112 70.5 -171.5t210.5 -59.5q142 0 212 57.5t70 161.5q0 55 -21 95.5t-73.5 75t-111 59t-164.5 61.5q-89 -45 -141 -115.5t-52 -163.5zM377 1102q0 -101 65.5 -156.5t227.5 -109.5q166 92 166 247q0 105 -62.5 155t-167.5 50q-103 0 -166 -51.5t-63 -134.5z" />
<glyph unicode="9" horiz-adv-x="1198" d="M59 961q0 101 34 188.5t98.5 153.5t164.5 103.5t224 37.5q260 0 405 -180.5t145 -495.5q0 -206 -48.5 -360t-139.5 -248.5t-213 -140.5t-276 -46q-180 0 -318 80v146q115 -39 262 -39q100 0 173 21.5t132.5 74t94 147t43.5 232.5q-162 -103 -348 -103 q-194 0 -313.5 116.5t-119.5 312.5zM346 981q0 -274 242 -274q149 0 254 65q2 16 2 41q0 108 -13.5 190.5t-43 147t-81 98t-124.5 33.5q-118 0 -177 -78.5t-59 -222.5z" />
<glyph unicode=":" horiz-adv-x="491" d="M88 123q0 65 45 109t111 44q67 0 112 -44t45 -109q0 -64 -45 -108t-112 -44q-66 0 -111 44.5t-45 107.5zM88 727q0 63 45 107.5t111 44.5q67 0 112 -44t45 -108q0 -65 -45 -109.5t-112 -44.5q-66 0 -111 44.5t-45 109.5z" />
<glyph unicode=";" horiz-adv-x="491" d="M84 -195q31 243 31 447h266q-27 -248 -127 -447h-170zM86 727q0 63 45 107.5t111 44.5q67 0 112 -44t45 -108q0 -65 -45 -109.5t-112 -44.5q-66 0 -111 44.5t-45 109.5z" />
<glyph unicode="&#x3c;" horiz-adv-x="1030" d="M113 610v152l790 356v-192l-573 -240l573 -242v-192z" />
<glyph unicode="=" horiz-adv-x="1073" d="M113 358v170h845v-170h-845zM113 731v170h845v-170h-845z" />
<glyph unicode="&#x3e;" horiz-adv-x="1030" d="M129 252v192l573 240l-573 242v192l791 -356v-152z" />
<glyph unicode="?" horiz-adv-x="864" d="M43 1231v137q155 76 336 76q93 0 167.5 -20t134 -62t92 -115t32.5 -172q0 -125 -57.5 -202.5t-188.5 -161.5l-39 -26t-38 -25.5t-29.5 -22t-28 -25.5t-17.5 -24.5t-14.5 -31.5t-3.5 -34q0 -45 17 -114h-144q-37 86 -37 161q0 42 10 75t37 65t52 54.5t77 63.5 q71 57 101 106.5t30 129.5q0 103 -62.5 155t-172.5 52q-130 0 -254 -39zM193 117q0 58 41.5 99.5t103.5 41.5t104.5 -41.5t42.5 -99.5q0 -59 -42.5 -101.5t-104.5 -42.5t-103.5 42.5t-41.5 101.5z" />
<glyph unicode="@" horiz-adv-x="1820" d="M80 438q0 192 66.5 366t184 304.5t291 207.5t375.5 77q342 0 545 -193.5t203 -529.5q0 -274 -143 -444.5t-359 -170.5q-191 0 -231 135h-13q-118 -118 -262 -118q-111 0 -186.5 84.5t-75.5 236.5q0 161 58.5 295.5t167.5 215.5t247 81q57 0 103.5 -12t70 -24t62.5 -36 l51 54h127l-131 -664q-12 -61 1.5 -88t55.5 -27q131 0 221 128.5t90 347.5q0 290 -154.5 449t-451.5 159q-176 0 -322 -66t-241 -179.5t-147 -263.5t-52 -321q0 -315 170 -476t508 -161q247 0 469 74v-108q-204 -88 -473 -88q-394 0 -609.5 200t-215.5 555zM715 395 q0 -88 30.5 -129t94.5 -41q77 0 159 74l91 477q-37 80 -132 80q-78 0 -134.5 -65.5t-82.5 -168t-26 -227.5z" />
<glyph unicode="A" horiz-adv-x="1394" d="M0 0v129l131 35l447 1255h251l433 -1255l131 -35v-129h-590v127l153 37l-90 280h-444l-94 -280l155 -37v-127h-483zM467 584h354l-168 524h-10z" />
<glyph unicode="B" horiz-adv-x="1282" d="M37 0v127l168 37v1091l-166 37v127h629q250 0 374.5 -86t124.5 -264q0 -123 -65 -210t-207 -116v-10q183 -26 263.5 -110t80.5 -242q0 -174 -133 -277.5t-391 -103.5h-678zM485 158h181q138 0 205 57t67 188q0 136 -66 196t-202 60h-185v-501zM485 801h154 q114 0 177 50.5t63 170.5q0 139 -59 189.5t-185 50.5h-150v-461z" />
<glyph unicode="C" horiz-adv-x="1271" d="M51 694q0 163 40 293t106.5 214t159.5 140t193.5 79.5t213.5 23.5q247 0 412 -58l12 -374h-152l-78 219q-106 45 -213 45q-200 0 -297.5 -140t-97.5 -401q0 -308 97 -449t315 -141q115 0 209 50l78 235h151l-14 -381q-176 -74 -457 -74q-153 0 -274 40.5t-213 124.5 t-141.5 224.5t-49.5 329.5z" />
<glyph unicode="D" horiz-adv-x="1411" d="M37 0v127l168 37v1091l-166 37v127h612q362 0 535.5 -168t173.5 -510q0 -368 -175.5 -554.5t-516.5 -186.5h-631zM487 160h172q104 0 176 26.5t124 89t77 170t25 265.5q0 102 -10 182t-28 137.5t-48 98.5t-64 66.5t-82.5 40t-97 19.5t-113.5 5h-131v-1100z" />
<glyph unicode="E" horiz-adv-x="1241" d="M37 0v127l168 37v1091l-166 37v127h1104l20 -381h-147l-82 226h-449v-461h217l48 170h124v-492h-124l-48 174h-217v-499h465l105 278h147l-22 -434h-1143z" />
<glyph unicode="F" horiz-adv-x="1230" d="M37 0v127l168 37v1091l-166 37v127h1112l20 -401h-145l-84 242h-455v-484h224l45 172h125v-493h-127l-43 176h-224v-467l183 -37v-127h-633z" />
<glyph unicode="G" horiz-adv-x="1384" d="M51 694q0 137 27.5 250t78.5 194t118 141t150.5 95.5t172 52.5t186.5 17q255 0 420 -58l17 -374h-152l-78 217q-89 47 -231 47q-203 0 -306.5 -140t-103.5 -401q0 -308 97 -451t317 -143q88 0 188 31v334l-166 35v127h576v-127l-135 -35v-463q-196 -70 -451 -70 q-173 0 -304.5 40.5t-226.5 126t-144.5 224.5t-49.5 330z" />
<glyph unicode="H" horiz-adv-x="1517" d="M37 0v127l166 37v1091l-166 37v127h606v-127l-158 -37v-454h547v454l-160 37v127h605v-127l-162 -37v-1091l164 -37v-127h-607v127l160 35v489h-547v-489l158 -35v-127h-606z" />
<glyph unicode="I" horiz-adv-x="692" d="M37 0v127l166 37v1091l-166 37v127h614v-127l-164 -37v-1091l164 -37v-127h-614z" />
<glyph unicode="J" horiz-adv-x="878" d="M23 37v162q6 -2 24.5 -7t25.5 -6.5t23 -5t27 -5t27.5 -4t33.5 -3t37 -0.5q96 0 144.5 45t48.5 162v880l-166 37v127h612v-127l-162 -37v-903q0 -180 -105 -275t-304 -95q-154 0 -266 55z" />
<glyph unicode="K" horiz-adv-x="1398" d="M37 0v127l166 37v1091l-166 37v127h612v-127l-164 -35v-1095l164 -35v-127h-612zM563 635v96l430 524l-131 37v127h492v-127l-131 -37l-420 -493l434 -598l139 -37v-127h-362z" />
<glyph unicode="L" horiz-adv-x="1173" d="M37 0v127l166 37v1091l-166 37v127h629v-127l-181 -35v-1099h414l100 321h146l-27 -479h-1081z" />
<glyph unicode="M" horiz-adv-x="1830" d="M37 0v125l166 39v1091l-166 37v127h559l301 -958h8l312 958h575v-127l-178 -37v-1091l178 -37v-127h-596v127l141 37v1036h-6l-379 -1151h-182l-371 1147h-6v-1032l144 -37v-127h-500z" />
<glyph unicode="N" horiz-adv-x="1468" d="M37 0v125l168 39v1091l-168 37v127h502l559 -962h10v796l-166 39v127h504v-125l-148 -39v-1255h-239l-656 1133h-8v-969l168 -39v-125h-526z" />
<glyph unicode="O" d="M51 707q0 149 37 272.5t100 208.5t148.5 143.5t180 85.5t196.5 27q111 0 209.5 -29t180.5 -88.5t141 -145.5t91.5 -204.5t32.5 -259.5q0 -149 -37 -273t-100 -209.5t-148 -145t-179.5 -87t-196.5 -27.5q-140 0 -259 47.5t-208 137.5t-139 230.5t-50 316.5zM348 729 q0 -294 84.5 -440t278.5 -146q177 0 267.5 144t90.5 405q0 300 -89 443t-273 143q-178 0 -268.5 -144.5t-90.5 -404.5z" />
<glyph unicode="P" horiz-adv-x="1200" d="M37 0v127l166 37v1091l-166 37v127h600q290 0 419.5 -102.5t129.5 -298.5q0 -110 -36 -193t-100.5 -133t-147.5 -75t-183 -25q-27 0 -61 3t-57 6l-23 3v129l12 -1q13 -1 34 -2t42 -1q114 0 172.5 68.5t58.5 199.5q0 135 -58.5 195.5t-185.5 60.5h-168v-1089l197 -37v-127 h-645z" />
<glyph unicode="Q" d="M51 707q0 149 37 272.5t100 208.5t148.5 143.5t180 85.5t196.5 27q111 0 209.5 -29t180.5 -88.5t141 -145.5t91.5 -204.5t32.5 -259.5q0 -144 -34 -260t-95.5 -194t-139 -128t-171.5 -76v-6l485 -92l-61 -225l-811 250q-490 154 -490 721zM348 729q0 -294 85.5 -440 t279.5 -146q179 0 267.5 143t88.5 406q0 299 -89.5 442.5t-272.5 143.5q-178 0 -268.5 -144.5t-90.5 -404.5z" />
<glyph unicode="R" horiz-adv-x="1355" d="M37 0v127l170 37v1089l-166 39v127h645q261 0 387.5 -102.5t126.5 -294.5q0 -72 -21.5 -130.5t-61.5 -98.5t-85.5 -67t-103.5 -48v-8l299 -510l129 -35v-125h-352l-340 610h-175v-448l156 -35v-127h-608zM489 756h179q129 0 186 72t57 190q0 125 -58 181t-191 56h-173 v-499z" />
<glyph unicode="S" horiz-adv-x="1097" d="M76 391h155l62 -196q103 -54 233 -54q120 0 185 59.5t65 151.5q0 47 -15.5 83t-50.5 64.5t-74.5 49t-103.5 47.5l-139 57q-72 30 -123.5 62.5t-93 78.5t-62 109t-20.5 144q0 86 29.5 157.5t87.5 126t153.5 85t219.5 30.5q213 0 370 -53l17 -322h-154l-47 166 q-97 45 -201 45q-101 0 -164 -46t-63 -132q0 -77 49.5 -125.5t159.5 -91.5l139 -56q70 -28 116 -50.5t95 -57.5t77 -75t46 -97.5t18 -130.5q0 -95 -32 -174.5t-95 -140.5t-165 -95.5t-234 -34.5q-250 0 -424 70z" />
<glyph unicode="T" horiz-adv-x="1269" d="M18 985l21 434h1188l22 -434h-151l-74 277h-248v-1098l174 -37v-127h-633v127l175 37v1098h-250l-72 -277h-152z" />
<glyph unicode="U" horiz-adv-x="1415" d="M8 1292v127h606v-127l-161 -35v-784q0 -323 309 -323q153 0 231 77.5t78 245.5v782l-162 35v129h494v-127l-143 -37v-794q0 -226 -137 -357t-400 -131q-275 0 -415 124t-140 343v815z" />
<glyph unicode="V" horiz-adv-x="1376" d="M10 1292v127h574v-127l-154 -37l299 -936h10l301 936l-151 37v127h475v-127l-125 -37l-430 -1255h-246l-432 1255z" />
<glyph unicode="W" horiz-adv-x="1972" d="M14 1292v127h545v-127l-141 -37l219 -890h10l285 1054h190l285 -1042h8l215 878l-145 37v127h475v-127l-129 -37l-328 -1255h-252l-262 985h-8l-270 -985h-252l-330 1255z" />
<glyph unicode="X" horiz-adv-x="1411" d="M37 0v127l135 35l369 561l-346 532l-142 37v127h602v-127l-127 -32l234 -396l229 396l-137 32v127h485v-127l-137 -37l-336 -530l367 -561l139 -37v-127h-592v127l131 33l-266 432l-260 -430l135 -37v-125h-483z" />
<glyph unicode="Y" horiz-adv-x="1296" d="M6 1292v127h549v-127l-129 -35l283 -489h8l262 489l-135 35v127h442v-127l-117 -37l-366 -647v-444l166 -37v-127h-619v127l168 37v442l-393 649z" />
<glyph unicode="Z" horiz-adv-x="1138" d="M27 0v150l745 1099v8h-471l-88 -253h-154l23 415h1022v-149l-748 -1100v-8h514l93 268h149l-20 -430h-1065z" />
<glyph unicode="[" horiz-adv-x="671" d="M119 -246v1747h491v-127l-243 -37v-1419l243 -37v-127h-491z" />
<glyph unicode="\" horiz-adv-x="720" d="M45 1501h180l492 -1747h-180z" />
<glyph unicode="]" horiz-adv-x="671" d="M59 -119l244 37v1419l-244 37v127h492v-1747h-492v127z" />
<glyph unicode="^" horiz-adv-x="837" d="M43 918l297 501h156l297 -501h-148l-227 286l-228 -286h-147z" />
<glyph unicode="_" horiz-adv-x="659" d="M-16 -123h694v-149h-694v149z" />
<glyph unicode="`" horiz-adv-x="1005" d="M246 1337l104 191l383 -256l-51 -103z" />
<glyph unicode="a" horiz-adv-x="1024" d="M29 264q0 57 16.5 102t45 76.5t74 55t96 39t118.5 28.5l239 47v90q0 77 -16 116t-64.5 59t-144.5 20q-138 0 -270 -20v135q73 31 180.5 53t214.5 22q184 0 271.5 -80t87.5 -247v-559q0 -43 22 -58.5t66 -15.5h45v-111q-25 -14 -78.5 -26.5t-108.5 -12.5q-148 0 -176 117 h-12q-106 -121 -285 -121q-143 0 -232 80t-89 211zM289 297q0 -164 162 -164q48 0 93 19.5t74 44.5v276l-167 -12q-88 -7 -125 -47.5t-37 -116.5z" />
<glyph unicode="b" horiz-adv-x="1153" d="M-23 1356v123l363 47l29 -13v-538h10q70 53 145 84t174 31q63 0 118 -14t109 -50.5t92 -93.5t61.5 -149t23.5 -210q0 -298 -150.5 -448t-412.5 -150q-240 0 -420 84v1264zM375 180q27 -17 43.5 -26t54.5 -18t84 -9q65 0 113.5 20t85.5 65.5t56 126.5t19 196 q0 195 -64.5 278.5t-193.5 83.5q-95 0 -198 -43v-674z" />
<glyph unicode="c" horiz-adv-x="966" d="M43 524q0 117 28.5 211.5t79 159.5t122.5 108.5t157 63.5t184 20q172 0 297 -40v-295h-155l-37 166q-54 16 -125 16q-133 0 -207 -94.5t-74 -288.5q0 -395 340 -395q169 0 273 51v-135q-136 -97 -351 -97q-257 0 -394.5 146.5t-137.5 402.5z" />
<glyph unicode="d" horiz-adv-x="1212" d="M53 508q0 150 39 262t111.5 181t168.5 102.5t216 33.5q95 0 188 -28v270l-153 33v119l383 47l28 -10v-1344l142 -33v-114l-351 -47l-26 12v106h-13q-45 -57 -121 -90t-176 -33q-63 0 -122 15.5t-117 54t-101 97.5t-69.5 153t-26.5 213zM319 537q0 -197 66.5 -285 t194.5 -88q109 0 196 49v666q-26 18 -43 27.5t-54 18.5t-85 9q-64 0 -112 -19t-86 -62.5t-57.5 -122.5t-19.5 -193z" />
<glyph unicode="e" horiz-adv-x="1050" d="M43 541q0 168 66.5 293t181 189t260.5 64q234 0 344.5 -143t110.5 -430h-695q17 -360 332 -360q68 0 131 9t94.5 18t85.5 26v-131q-162 -101 -372 -101q-269 0 -404 150.5t-135 415.5zM309 643l426 14q0 147 -48.5 213t-145.5 66q-213 0 -232 -293z" />
<glyph unicode="f" horiz-adv-x="677" d="M35 0v113l139 32v762h-135v109l135 49v111q0 96 29.5 166.5t81.5 111t116 59.5t140 19q133 0 217 -43v-141q-65 14 -137 14q-97 0 -143 -45t-46 -162v-88h236v-160h-236v-762l166 -32v-113h-563z" />
<glyph unicode="g" horiz-adv-x="1075" d="M10 -170q0 80 58 139t153 94v11q-121 43 -121 153q0 117 142 226q-156 91 -156 274q0 170 121.5 265t312.5 95q123 0 213 -34l322 45v-170l-176 10q71 -77 71 -188q0 -170 -120.5 -265.5t-311.5 -95.5q-88 0 -172 23q-45 -45 -45 -97q0 -25 19 -42t57 -17h352 q69 0 125.5 -14t102 -45t71 -85.5t25.5 -129.5q0 -83 -36 -154.5t-106 -127.5t-182.5 -88t-255.5 -32q-229 0 -346 72.5t-117 177.5zM252 -123q0 -68 59 -106.5t183 -38.5q163 0 245 53t82 133q0 61 -39 87t-123 26h-311q-45 -20 -70.5 -61t-25.5 -93zM336 741 q0 -113 49 -165t133 -52q86 0 135 52.5t49 160.5q0 113 -50 165t-134 52q-85 0 -133.5 -53t-48.5 -160z" />
<glyph unicode="h" horiz-adv-x="1226" d="M25 1366v121l366 47l27 -14v-549h12q176 116 350 116q144 0 217.5 -64.5t73.5 -211.5v-666l137 -32v-113h-522v113l127 28v590q0 89 -44 125.5t-140 36.5q-74 0 -203 -41v-711l125 -28v-113h-524v113l141 32v1188z" />
<glyph unicode="i" horiz-adv-x="589" d="M18 915v121l383 49l27 -14v-926l137 -32v-113h-534v113l139 32v738zM139 1358q0 61 44 101t106 40q64 0 107.5 -40t43.5 -101q0 -60 -43.5 -99.5t-107.5 -39.5q-62 0 -106 40t-44 99z" />
<glyph unicode="j" horiz-adv-x="567" d="M-84 -238q44 -6 92 -6q81 0 125.5 39.5t44.5 138.5v949l-151 32v121l383 49l26 -14v-1147q0 -160 -88 -243.5t-264 -83.5q-90 0 -168 30v135zM147 1358q0 60 44.5 100.5t107.5 40.5q64 0 107 -40t43 -101q0 -60 -43.5 -99.5t-106.5 -39.5q-62 0 -107 40t-45 99z" />
<glyph unicode="k" horiz-adv-x="1142" d="M25 1366v119l372 47l29 -14v-1377l133 -28v-113h-532v113l141 30v1190zM489 492v69l283 361l-119 28v117h451v-117l-139 -30l-263 -314l324 -461l115 -32v-113h-310z" />
<glyph unicode="l" horiz-adv-x="593" d="M16 1366v119l383 47l27 -14v-1373l139 -32v-113h-538v113l141 32v1186z" />
<glyph unicode="m" horiz-adv-x="1837" d="M25 915v121l362 49l27 -14v-98h12q83 57 163 85.5t185 28.5q184 0 246 -124h10q174 124 365 124q136 0 210 -69.5t74 -214.5v-658l136 -32v-113h-519v113l125 28v580q0 96 -43.5 134t-140.5 38q-84 0 -193 -41q7 -28 7 -80v-631l125 -28v-113h-506v113l125 28v580 q0 95 -43 133.5t-134 38.5q-38 0 -73.5 -6.5t-56.5 -13t-62 -21.5v-711l125 -28v-113h-524v113l141 32v738z" />
<glyph unicode="n" horiz-adv-x="1230" d="M25 915v121l362 49l27 -14v-100h12q179 116 354 116q144 0 217.5 -64.5t73.5 -211.5v-666l137 -32v-113h-522v113l127 28v590q0 89 -44 124.5t-140 35.5q-80 0 -203 -39v-711l125 -28v-113h-524v113l141 32v738z" />
<glyph unicode="o" horiz-adv-x="1140" d="M43 526q0 127 41 233t112 177.5t166.5 111t204.5 39.5q245 0 387 -147t142 -403q0 -127 -41.5 -233.5t-112.5 -178.5t-167 -112t-204 -40q-244 0 -386 150t-142 403zM313 541q0 -113 21 -195.5t58 -128.5t82 -67t99 -21q53 0 95.5 19.5t78.5 62.5t56 122t20 189 q0 114 -21 196.5t-58 128t-81 66.5t-98 21q-252 0 -252 -393z" />
<glyph unicode="p" horiz-adv-x="1198" d="M20 915v121l361 49l27 -14v-100h12q148 119 323 119q63 0 118.5 -14t108.5 -50.5t91 -93.5t61 -149t23 -210q0 -150 -40 -265.5t-113 -187.5t-172 -108.5t-220 -36.5q-109 0 -178 17v-258l162 -31v-111h-559v111l139 29v1151zM422 176q25 -15 42 -23.5t55 -17t85 -8.5 q133 0 203 92t70 316q0 196 -64.5 279t-194.5 83q-98 0 -196 -43v-678z" />
<glyph unicode="q" horiz-adv-x="1171" d="M53 500q0 149 40.5 262.5t115.5 184t175.5 105.5t225.5 35q241 0 424 -67v-1284l137 -29v-115h-557v115l164 33v346h-12q-64 -55 -127.5 -83t-155.5 -28q-65 0 -123 14.5t-115.5 52t-99 95t-67 151t-25.5 212.5zM319 537q0 -197 66.5 -285t194.5 -88q109 0 196 49v666 q-26 18 -43 27t-55.5 18.5t-89.5 9.5q-61 0 -107.5 -19t-84 -62.5t-57.5 -123t-20 -192.5z" />
<glyph unicode="r" horiz-adv-x="774" d="M25 915v121l362 49l27 -14v-143h12q50 68 119.5 112.5t152.5 44.5q41 0 56 -6v-227q-33 8 -86 8q-142 0 -242 -59v-656l162 -32v-113h-561v113l141 32v738z" />
<glyph unicode="s" horiz-adv-x="907" d="M45 324h150l49 -160q80 -41 180 -41q89 0 141.5 35t52.5 102q0 66 -36.5 97.5t-137.5 60.5l-114 33q-140 40 -208.5 112.5t-68.5 196.5q0 144 107.5 235.5t312.5 91.5q182 0 318 -47v-272h-144l-39 141q-64 31 -151 31q-81 0 -129.5 -30t-48.5 -95q0 -58 38 -89t144 -62 l121 -35q150 -43 213 -116t63 -191q0 -157 -113.5 -253t-334.5 -96q-183 0 -347 62z" />
<glyph unicode="t" horiz-adv-x="733" d="M25 907v109l159 51l37 250h199v-250h256v-160h-256v-608q0 -83 34 -117.5t119 -34.5q50 0 119 15v-121q-39 -26 -101 -43.5t-132 -17.5q-151 0 -224 61.5t-73 210.5v655h-137z" />
<glyph unicode="u" horiz-adv-x="1230" d="M10 928v119l373 36l25 -14v-715q0 -99 37.5 -142.5t136.5 -43.5q49 0 93 8.5t65.5 16.5t56.5 24v678l-133 33v119l364 36l27 -14v-895l141 -33v-114l-360 -47l-27 12v114h-12q-136 -129 -340 -129q-305 0 -305 308v610z" />
<glyph unicode="v" horiz-adv-x="1136" d="M0 950v117h498v-117l-117 -22l227 -660h8l230 660l-117 22v117h401v-117l-104 -28l-346 -922h-225l-351 922z" />
<glyph unicode="w" horiz-adv-x="1640" d="M0 950v117h473v-117l-117 -28l172 -596h9l231 741h174l232 -741h8l168 596l-113 28v117h397v-117l-98 -28l-281 -922h-208l-220 721h-6l-233 -721h-209l-281 922z" />
<glyph unicode="x" horiz-adv-x="1142" d="M23 0v113l114 30l281 389l-273 388l-112 30v117h518v-117l-107 -24l185 -285h4l180 285l-113 24v117h404v-117l-103 -28l-268 -381l275 -398l114 -30v-113h-520v113l113 24l-193 289h-4l-194 -289l116 -24v-113h-417z" />
<glyph unicode="y" horiz-adv-x="1136" d="M0 950v117h508v-117l-125 -26l233 -611h9l206 609l-120 28v117h419v-117l-104 -28l-401 -1063q-53 -142 -128.5 -205.5t-209.5 -63.5q-44 0 -94.5 10.5t-79.5 24.5v156q77 -17 108 -17q80 0 129.5 32t81.5 108l49 121l-375 897z" />
<glyph unicode="z" horiz-adv-x="993" d="M47 0v135l578 780v9h-359l-59 -205h-129l16 348h830v-135l-572 -778v-9h373l74 228h133l-27 -373h-858z" />
<glyph unicode="{" horiz-adv-x="776" d="M59 543v170q75 10 122 23.5t70.5 33.5t31.5 41t8 53q0 38 -33 167.5t-33 187.5q0 65 24 113t79 86t151.5 58.5t235.5 24.5v-127q-136 -21 -183 -51.5t-47 -105.5q0 -41 20.5 -162t20.5 -174q0 -47 -10 -80t-38.5 -65.5t-85 -58t-144.5 -44.5v-10q88 -19 144.5 -44.5 t85 -58t38.5 -65.5t10 -80q0 -53 -20.5 -174t-20.5 -162q0 -75 47.5 -106t182.5 -52v-127q-139 4 -235.5 25t-151.5 58.5t-79 86t-24 113.5q0 58 33 187t33 167q0 43 -15 69.5t-67 48.5t-150 34z" />
<glyph unicode="|" horiz-adv-x="464" d="M147 -246v1747h170v-1747h-170z" />
<glyph unicode="}" horiz-adv-x="776" d="M59 -119q134 21 182 52t48 106q0 41 -21.5 162t-21.5 174q0 46 10.5 79.5t39 66t85.5 58t145 44.5v10q-88 19 -145 44.5t-85.5 58t-39 66t-10.5 79.5q0 53 21.5 174t21.5 162q0 74 -47.5 105t-182.5 52v127q139 -4 235.5 -24.5t151.5 -58.5t79 -86t24 -113 q0 -58 -33 -187.5t-33 -167.5q0 -43 15 -69t67 -48t150 -34v-170q-98 -13 -150 -35t-67 -48t-15 -69q0 -38 33 -167t33 -187q0 -65 -24 -113.5t-79 -86t-151.5 -58.5t-235.5 -25v127z" />
<glyph unicode="~" horiz-adv-x="880" d="M35 532q51 122 114 181t152 59q49 0 103.5 -23t101.5 -46t78 -23q77 0 141 106l119 -69q-51 -121 -115 -180.5t-151 -59.5q-50 0 -105 23t-101.5 46t-76.5 23q-41 0 -75 -25.5t-68 -82.5z" />
<glyph unicode="&#xa1;" horiz-adv-x="528" d="M113 1057q0 59 41.5 101t103.5 42t103.5 -42t41.5 -101q0 -58 -41.5 -100t-103.5 -42t-103.5 42t-41.5 100zM119 -246l59 1010h166l57 -1010h-282z" />
<glyph unicode="&#xa2;" horiz-adv-x="985" d="M45 524q0 138 39.5 243.5t111 172t164.5 102.5t207 43l15 134h141l-14 -136q128 -9 219 -39v-292h-140l-36 168q-20 8 -60 14l-86 -784q24 -3 49 -3q86 0 164 17.5t125 38.5v-131q-137 -94 -356 -97l-23 -219h-141l25 232q-195 37 -299.5 176.5t-104.5 359.5zM305 551 q0 -287 164 -367l82 750q-118 -19 -182 -114t-64 -269z" />
<glyph unicode="&#xa3;" horiz-adv-x="1107" d="M68 0v147q91 52 133.5 126t42.5 204v146h-133v157h133v189q0 120 36.5 213t100.5 149t145 84.5t176 28.5q117 0 191.5 -24t138.5 -70v-150q-115 41 -237 41q-58 0 -103 -12t-86 -42.5t-65.5 -91t-28.5 -149.5l-8 -166h352v-157h-360l-4 -86q-4 -84 -25.5 -145.5t-50 -97 t-78.5 -77.5v-4h711l-27 -213h-954z" />
<glyph unicode="&#xa4;" horiz-adv-x="1255" d="M51 494v129h137q-2 23 -2 73q0 47 2 70h-137v129h150q18 119 59.5 213.5t98.5 156.5t132 103t155.5 58.5t172.5 17.5q188 0 338 -53l10 -349h-145l-70 199q-66 37 -151 37q-146 0 -227 -96t-103 -287h393v-129h-401v-29q0 -79 2 -114h399v-129h-385q29 -176 116.5 -252 t252.5 -76q162 0 326 65v-145q-168 -111 -388 -111q-243 0 -394 125.5t-191 393.5h-150z" />
<glyph unicode="&#xa5;" horiz-adv-x="1243" d="M12 1292v127h535v-127l-127 -35l264 -442h8l244 442l-135 35v127h428v-127l-105 -37l-293 -481h281v-131h-340v-141h340v-131h-340v-207l168 -37v-127h-614v127l170 37v207h-338v131h338v141h-338v131h270l-311 481z" />
<glyph unicode="&#xa6;" horiz-adv-x="464" d="M147 -246v817h170v-817h-170zM147 760v741h170v-741h-170z" />
<glyph unicode="&#xa7;" horiz-adv-x="1064" d="M49 588q0 98 61.5 166t174.5 104q-138 87 -138 260q0 150 108.5 238t315.5 88q184 0 322 -49v-262h-143l-41 129q-62 32 -154 32q-81 0 -131.5 -34t-50.5 -101q0 -63 35 -98t133 -72l159 -57q159 -56 236.5 -130t77.5 -194q0 -99 -60.5 -168.5t-171.5 -107.5 q158 -97 158 -264q0 -150 -111.5 -244t-324.5 -94q-190 0 -350 63l-17 277h148l51 -148q84 -41 176 -41q85 0 140 35.5t55 103.5q0 62 -43.5 104.5t-141.5 78.5l-162 57q-159 57 -235 132t-76 196zM285 637q0 -64 45 -101t153 -77l135 -53q71 13 114.5 51.5t43.5 97.5 q0 63 -43 99.5t-145 76.5l-144 53q-71 -14 -115 -52.5t-44 -94.5z" />
<glyph unicode="&#xa8;" horiz-adv-x="1005" d="M186 1303q0 55 39 92t94 37q56 0 94 -37t38 -92q0 -53 -38.5 -91t-93.5 -38q-54 0 -93.5 38.5t-39.5 90.5zM557 1303q0 55 38 92t93 37q56 0 94.5 -37t38.5 -92q0 -53 -39 -91t-94 -38q-54 0 -92.5 38t-38.5 91z" />
<glyph unicode="&#xa9;" horiz-adv-x="1583" d="M63 705q0 149 56 283.5t151.5 232.5t230.5 155.5t287 57.5q151 0 286.5 -57.5t232.5 -155.5t154 -232.5t57 -283.5t-57 -284.5t-154 -234t-232.5 -157t-286.5 -58.5q-202 0 -369 99t-261.5 267.5t-94.5 367.5zM188 705q0 -172 75 -315t213 -228.5t312 -85.5 q173 0 311.5 85.5t214 229t75.5 314.5t-75.5 314t-214 227.5t-311.5 84.5q-174 0 -312 -84.5t-213 -227.5t-75 -314zM426 702q0 101 31.5 179t87.5 124.5t126 69.5t152 23q129 0 230 -33l10 -215h-105l-45 117q-54 20 -100 20q-94 0 -134 -67.5t-40 -196.5q0 -153 40.5 -222 t141.5 -69q70 0 97 17l49 135h104l-14 -222q-106 -40 -252 -40q-171 0 -275 97t-104 283z" />
<glyph unicode="&#xab;" horiz-adv-x="903" d="M74 481v72l217 371h168l-164 -406l164 -407h-168zM440 481v72l217 371h168l-163 -406l163 -407h-168z" />
<glyph unicode="&#xad;" horiz-adv-x="638" d="M78 483v205h483v-205h-483z" />
<glyph unicode="&#xae;" horiz-adv-x="1583" d="M63 705q0 149 56 283.5t151.5 232.5t230.5 155.5t287 57.5q151 0 286.5 -57.5t232.5 -155.5t154 -232.5t57 -283.5t-57 -284.5t-154 -234t-232.5 -157t-286.5 -58.5q-202 0 -369 99t-261.5 267.5t-94.5 367.5zM188 705q0 -172 75 -315t213 -228.5t312 -85.5 q173 0 311.5 85.5t214 229t75.5 314.5t-75.5 314t-214 227.5t-311.5 84.5q-174 0 -312 -84.5t-213 -227.5t-75 -314zM463 344v86l78 19v516l-76 18v86h346q136 0 210.5 -55t74.5 -152q0 -132 -133 -174v-10l143 -229l65 -19v-86h-208l-172 299h-66v-194l70 -19v-86h-332z M725 739h78q110 0 110 113q0 60 -26 85.5t-88 25.5h-74v-224z" />
<glyph unicode="&#xaf;" horiz-adv-x="1005" d="M240 1264v168h528v-168h-528z" />
<glyph unicode="&#xb0;" horiz-adv-x="716" d="M59 1145q0 121 86.5 207t214.5 86q126 0 212.5 -86t86.5 -207t-86.5 -208t-212.5 -87q-128 0 -214.5 87t-86.5 208zM195 1145q0 -78 43.5 -132.5t121.5 -54.5q76 0 121 55t45 132t-44.5 130.5t-121.5 53.5q-78 0 -121.5 -53t-43.5 -131z" />
<glyph unicode="&#xb2;" horiz-adv-x="722" d="M41 563v115l207 196q86 84 129 147.5t43 129.5q0 139 -162 139q-85 0 -186 -33v115q132 72 274 72t221.5 -67t79.5 -189q0 -68 -34.5 -132.5t-89 -118.5t-146.5 -126l-127 -98v-2h262l51 98h105l-19 -246h-608z" />
<glyph unicode="&#xb3;" horiz-adv-x="710" d="M43 608v107q103 -31 199 -31q180 0 180 133q0 73 -40.5 103t-127.5 30h-78v117h66q78 0 118.5 31.5t40.5 91.5q0 121 -149 121q-95 0 -172 -25v107q97 51 244 51q137 0 211.5 -56t74.5 -159q0 -78 -46.5 -130t-125.5 -75v-4q93 -15 150 -68.5t57 -150.5q0 -118 -91 -185 t-253 -67q-153 0 -258 59z" />
<glyph unicode="&#xb4;" horiz-adv-x="1005" d="M274 1272l383 256l105 -191l-436 -168z" />
<glyph unicode="&#xb6;" horiz-adv-x="1196" d="M88 1051q0 368 481 368h629v-127l-151 -37v-1501h-160v1514h-139v-1514h-160v920q-35 -6 -84 -6q-84 0 -157.5 23.5t-132 68.5t-92.5 120t-34 171z" />
<glyph unicode="&#xb7;" horiz-adv-x="475" d="M80 672q0 65 45.5 109t112.5 44q66 0 111.5 -44.5t45.5 -108.5q0 -63 -45.5 -107.5t-111.5 -44.5q-67 0 -112.5 44.5t-45.5 107.5z" />
<glyph unicode="&#xb8;" horiz-adv-x="1005" d="M399 -354q117 14 163 36.5t46 59.5q0 35 -36.5 51t-125.5 17v190h111v-92q126 -6 183 -42t57 -110q0 -178 -398 -198v88z" />
<glyph unicode="&#xb9;" horiz-adv-x="593" d="M61 1227v96l258 117h95v-758l127 -20v-99h-469v99l127 20v555z" />
<glyph unicode="&#xbb;" horiz-adv-x="903" d="M78 111l164 405l-164 408h168l217 -371v-72l-217 -370h-168zM444 111l162 405l-162 408h166l219 -371v-72l-219 -370h-166z" />
<glyph unicode="&#xbc;" horiz-adv-x="1728" d="M61 1227v96l258 117h95v-758l127 -20v-99h-469v99l127 20v555zM279 -82l976 1542h168l-977 -1542h-167zM975 250v104l418 512h174v-499h116v-117h-116v-131l106 -21v-98h-418v98l107 21v131h-387zM1128 367h234v288h-6l-228 -284v-4z" />
<glyph unicode="&#xbd;" horiz-adv-x="1777" d="M61 1227v96l258 117h95v-758l127 -20v-99h-469v99l127 20v555zM274 -82l977 1542h168l-977 -1542h-168zM1106 0v115l207 198q85 84 128.5 146.5t43.5 128.5q0 139 -162 139q-85 0 -186 -33v115q132 72 274 72t220.5 -67t78.5 -189q0 -99 -66 -185.5t-202 -189.5l-127 -98 v-5h262l51 99h105l-19 -246h-608z" />
<glyph unicode="&#xbe;" horiz-adv-x="1812" d="M43 608v107q103 -31 199 -31q180 0 180 133q0 73 -40.5 103t-127.5 30h-78v117h66q78 0 118.5 31.5t40.5 91.5q0 121 -149 121q-95 0 -172 -25v107q97 51 244 51q137 0 211.5 -56t74.5 -159q0 -78 -46.5 -130t-125.5 -75v-4q93 -15 150 -68.5t57 -150.5q0 -118 -91 -185 t-253 -67q-153 0 -258 59zM352 -82l977 1542h168l-977 -1542h-168zM1061 250v104l416 512h176v-499h114v-117h-114v-131l104 -21v-98h-416v98l105 21v131h-385zM1214 367h232v288h-6l-226 -284v-4z" />
<glyph unicode="&#xbf;" horiz-adv-x="864" d="M59 98q0 65 15.5 117t49.5 95t75 77t106 76q11 7 39.5 26t37.5 25.5t29.5 22t27.5 25t17.5 24.5t14.5 31t4 34q0 50 -16 115h143q37 -86 37 -162q0 -42 -10 -75t-37 -65t-52 -54.5t-77 -63.5q-72 -57 -101.5 -106t-29.5 -129q0 -103 62.5 -155t172.5 -52q130 0 254 39 v-138q-153 -75 -336 -75q-93 0 -167.5 20t-134 61.5t-92 114.5t-32.5 172zM381 1057q0 59 41.5 101t103.5 42t104 -42t42 -101q0 -58 -42 -100t-104 -42t-103.5 42t-41.5 100z" />
<glyph unicode="&#xc0;" horiz-adv-x="1394" d="M0 0v129l131 35l447 1255h251l433 -1255l131 -35v-129h-590v127l153 37l-90 280h-444l-94 -280l155 -37v-127h-483zM467 584h354l-168 524h-10zM494 1681l104 191l383 -256l-51 -103z" />
<glyph unicode="&#xc1;" horiz-adv-x="1394" d="M0 0v129l131 35l447 1255h251l433 -1255l131 -35v-129h-590v127l153 37l-90 280h-444l-94 -280l155 -37v-127h-483zM467 584h354l-168 524h-10zM524 1616l383 256l105 -191l-437 -168z" />
<glyph unicode="&#xc2;" horiz-adv-x="1394" d="M0 0v129l131 35l447 1255h251l433 -1255l131 -35v-129h-590v127l153 37l-90 280h-444l-94 -280l155 -37v-127h-483zM453 1581l239 258h123l240 -258l-54 -76l-247 146l-248 -146zM467 584h354l-168 524h-10z" />
<glyph unicode="&#xc3;" horiz-adv-x="1394" d="M0 0v129l131 35l447 1255h251l433 -1255l131 -35v-129h-590v127l153 37l-90 280h-444l-94 -280l155 -37v-127h-483zM430 1614q88 201 225 201q49 0 123.5 -34t100.5 -34q33 0 58.5 18t51.5 60l105 -60q-87 -198 -226 -198q-49 0 -123 33.5t-100 33.5q-33 0 -58.5 -18 t-51.5 -60zM467 584h354l-168 524h-10z" />
<glyph unicode="&#xc4;" horiz-adv-x="1394" d="M0 0v129l131 35l447 1255h251l433 -1255l131 -35v-129h-590v127l153 37l-90 280h-444l-94 -280l155 -37v-127h-483zM467 584h354l-168 524h-10zM500 1647q0 55 39 92t94 37q56 0 93.5 -37t37.5 -92q0 -53 -38 -91t-93 -38q-54 0 -93.5 38.5t-39.5 90.5zM870 1647 q0 55 38 92t93 37q56 0 95 -37t39 -92q0 -53 -39.5 -91t-94.5 -38q-54 0 -92.5 38t-38.5 91z" />
<glyph unicode="&#xc5;" horiz-adv-x="1394" d="M0 0v129l131 35l447 1255h251l433 -1255l131 -35v-129h-590v127l153 37l-90 280h-444l-94 -280l155 -37v-127h-483zM467 584h354l-168 524h-10zM541 1718q0 82 60 139.5t149 57.5t148.5 -57.5t59.5 -139.5t-60 -140t-148 -58q-89 0 -149 58t-60 140zM651 1718 q0 -46 27.5 -73t71.5 -27t71 27t27 73q0 43 -27 72t-71 29t-71.5 -29t-27.5 -72z" />
<glyph unicode="&#xc6;" horiz-adv-x="1939" d="M0 0v129l123 37l659 1108l-133 18v127h1196l21 -381h-146l-84 226h-436v-461h203l47 170h125v-492h-125l-47 174h-203v-499h453l104 278h150l-25 -434h-1126v127l166 37v274h-443l-157 -272l161 -39v-127h-483zM559 578h363v626z" />
<glyph unicode="&#xc7;" horiz-adv-x="1271" d="M51 694q0 163 40 293t106.5 214t159.5 140t193.5 79.5t213.5 23.5q247 0 412 -58l12 -374h-152l-78 219q-106 45 -213 45q-200 0 -297.5 -140t-97.5 -401q0 -308 97 -449t315 -141q115 0 209 50l78 235h151l-14 -381q-176 -74 -457 -74h-14v-67q126 -6 182.5 -42 t56.5 -110q0 -178 -397 -198v88q117 14 163 36.5t46 59.5q0 35 -36.5 51t-125.5 17v174q-127 15 -226.5 63t-173.5 133t-113.5 215t-39.5 299z" />
<glyph unicode="&#xc8;" horiz-adv-x="1241" d="M37 0v127l168 37v1091l-166 37v127h1104l20 -381h-147l-82 226h-449v-461h217l48 170h124v-492h-124l-48 174h-217v-499h465l105 278h147l-22 -434h-1143zM403 1681l105 191l383 -256l-51 -103z" />
<glyph unicode="&#xc9;" horiz-adv-x="1241" d="M37 0v127l168 37v1091l-166 37v127h1104l20 -381h-147l-82 226h-449v-461h217l48 170h124v-492h-124l-48 174h-217v-499h465l105 278h147l-22 -434h-1143zM434 1616l383 256l105 -191l-437 -168z" />
<glyph unicode="&#xca;" horiz-adv-x="1241" d="M37 0v127l168 37v1091l-166 37v127h1104l20 -381h-147l-82 226h-449v-461h217l48 170h124v-492h-124l-48 174h-217v-499h465l105 278h147l-22 -434h-1143zM362 1581l240 258h123l240 -258l-54 -76l-247 146l-248 -146z" />
<glyph unicode="&#xcb;" horiz-adv-x="1241" d="M37 0v127l168 37v1091l-166 37v127h1104l20 -381h-147l-82 226h-449v-461h217l48 170h124v-492h-124l-48 174h-217v-499h465l105 278h147l-22 -434h-1143zM410 1647q0 55 39 92t94 37q56 0 93.5 -37t37.5 -92q0 -53 -38 -91t-93 -38q-54 0 -93.5 38.5t-39.5 90.5z M780 1647q0 55 38 92t93 37q56 0 94.5 -37t38.5 -92q0 -53 -39 -91t-94 -38q-54 0 -92.5 38t-38.5 91z" />
<glyph unicode="&#xcc;" horiz-adv-x="692" d="M37 0v127l166 37v1091l-166 37v127h614v-127l-164 -37v-1091l164 -37v-127h-614zM129 1681l104 191l383 -256l-51 -103z" />
<glyph unicode="&#xcd;" horiz-adv-x="692" d="M37 0v127l166 37v1091l-166 37v127h614v-127l-164 -37v-1091l164 -37v-127h-614zM160 1616l383 256l104 -191l-436 -168z" />
<glyph unicode="&#xce;" horiz-adv-x="692" d="M37 0v127l166 37v1091l-166 37v127h614v-127l-164 -37v-1091l164 -37v-127h-614zM88 1581l240 258h123l239 -258l-53 -76l-248 146l-248 -146z" />
<glyph unicode="&#xcf;" horiz-adv-x="692" d="M29 0v127l166 37v1091l-166 37v127h614v-127l-164 -37v-1091l164 -37v-127h-614zM127 1647q0 55 39 92t94 37q56 0 93.5 -37t37.5 -92q0 -53 -38 -91t-93 -38q-54 0 -93.5 38.5t-39.5 90.5zM498 1647q0 55 38 92t93 37q56 0 94.5 -37t38.5 -92q0 -53 -39 -91t-94 -38 q-54 0 -92.5 38t-38.5 91z" />
<glyph unicode="&#xd0;" horiz-adv-x="1411" d="M37 0v127l168 37v471h-152v166h152v454l-166 37v127h612q362 0 535.5 -168t173.5 -510q0 -368 -175.5 -554.5t-516.5 -186.5h-631zM487 160h172q104 0 176 26.5t124 89t77 170t25 265.5q0 102 -10 182t-28 137.5t-48 98.5t-64 66.5t-82.5 40t-97 19.5t-113.5 5h-131v-459 h318v-166h-318v-475z" />
<glyph unicode="&#xd1;" horiz-adv-x="1468" d="M37 0v125l168 39v1091l-168 37v127h502l559 -962h10v796l-166 39v127h504v-125l-148 -39v-1255h-239l-656 1133h-8v-969l168 -39v-125h-526zM457 1614q88 201 225 201q49 0 123 -34t100 -34q63 0 111 78l104 -60q-87 -198 -225 -198q-49 0 -123 33.5t-100 33.5 q-63 0 -111 -78z" />
<glyph unicode="&#xd2;" d="M51 707q0 149 37 272.5t100 208.5t148.5 143.5t180 85.5t196.5 27q111 0 209.5 -29t180.5 -88.5t141 -145.5t91.5 -204.5t32.5 -259.5q0 -149 -37 -273t-100 -209.5t-148 -145t-179.5 -87t-196.5 -27.5q-140 0 -259 47.5t-208 137.5t-139 230.5t-50 316.5zM348 729 q0 -294 84.5 -440t278.5 -146q177 0 267.5 144t90.5 405q0 300 -89 443t-273 143q-178 0 -268.5 -144.5t-90.5 -404.5zM475 1681l105 191l383 -256l-52 -103z" />
<glyph unicode="&#xd3;" d="M51 707q0 149 37 272.5t100 208.5t148.5 143.5t180 85.5t196.5 27q111 0 209.5 -29t180.5 -88.5t141 -145.5t91.5 -204.5t32.5 -259.5q0 -149 -37 -273t-100 -209.5t-148 -145t-179.5 -87t-196.5 -27.5q-140 0 -259 47.5t-208 137.5t-139 230.5t-50 316.5zM348 729 q0 -294 84.5 -440t278.5 -146q177 0 267.5 144t90.5 405q0 300 -89 443t-273 143q-178 0 -268.5 -144.5t-90.5 -404.5zM506 1616l383 256l104 -191l-436 -168z" />
<glyph unicode="&#xd4;" d="M51 707q0 149 37 272.5t100 208.5t148.5 143.5t180 85.5t196.5 27q111 0 209.5 -29t180.5 -88.5t141 -145.5t91.5 -204.5t32.5 -259.5q0 -149 -37 -273t-100 -209.5t-148 -145t-179.5 -87t-196.5 -27.5q-140 0 -259 47.5t-208 137.5t-139 230.5t-50 316.5zM348 729 q0 -294 84.5 -440t278.5 -146q177 0 267.5 144t90.5 405q0 300 -89 443t-273 143q-178 0 -268.5 -144.5t-90.5 -404.5zM434 1581l240 258h123l239 -258l-53 -76l-248 146l-248 -146z" />
<glyph unicode="&#xd5;" d="M51 707q0 149 37 272.5t100 208.5t148.5 143.5t180 85.5t196.5 27q111 0 209.5 -29t180.5 -88.5t141 -145.5t91.5 -204.5t32.5 -259.5q0 -149 -37 -273t-100 -209.5t-148 -145t-179.5 -87t-196.5 -27.5q-140 0 -259 47.5t-208 137.5t-139 230.5t-50 316.5zM348 729 q0 -294 84.5 -440t278.5 -146q177 0 267.5 144t90.5 405q0 300 -89 443t-273 143q-178 0 -268.5 -144.5t-90.5 -404.5zM412 1614q88 201 225 201q49 0 123 -34t100 -34q63 0 111 78l104 -60q-87 -198 -225 -198q-49 0 -123 33.5t-100 33.5q-63 0 -111 -78z" />
<glyph unicode="&#xd6;" d="M51 707q0 149 37 272.5t100 208.5t148.5 143.5t180 85.5t196.5 27q111 0 209.5 -29t180.5 -88.5t141 -145.5t91.5 -204.5t32.5 -259.5q0 -149 -37 -273t-100 -209.5t-148 -145t-179.5 -87t-196.5 -27.5q-140 0 -259 47.5t-208 137.5t-139 230.5t-50 316.5zM348 729 q0 -294 84.5 -440t278.5 -146q177 0 267.5 144t90.5 405q0 300 -89 443t-273 143q-178 0 -268.5 -144.5t-90.5 -404.5zM481 1647q0 55 39 92t94 37q56 0 93.5 -37t37.5 -92q0 -53 -38 -91t-93 -38q-54 0 -93.5 38.5t-39.5 90.5zM852 1647q0 55 38 92t93 37q56 0 94.5 -37 t38.5 -92q0 -53 -39 -91t-94 -38q-54 0 -92.5 38t-38.5 91z" />
<glyph unicode="&#xd7;" horiz-adv-x="1087" d="M129 389l297 299l-297 301l117 117l297 -299l297 297l116 -117l-297 -299l299 -299l-116 -117l-299 299l-297 -299z" />
<glyph unicode="&#xd8;" d="M51 707q0 149 37 272.5t100 208.5t148.5 143.5t180 85.5t196.5 27q198 0 352 -92l88 129h168l-147 -217q194 -194 194 -547q0 -149 -37 -273t-100 -209.5t-148 -145t-179.5 -87t-196.5 -27.5q-197 0 -351 91l-100 -148h-168l160 234q-197 197 -197 555zM342 729 q0 -238 49 -367l557 820q-86 96 -243 96q-179 0 -271 -145t-92 -404zM469 231q85 -88 242 -88q180 0 272 141t92 402q0 227 -49 361z" />
<glyph unicode="&#xd9;" horiz-adv-x="1415" d="M8 1292v127h606v-127l-161 -35v-784q0 -323 309 -323q153 0 231 77.5t78 245.5v782l-162 35v129h494v-127l-143 -37v-794q0 -226 -137 -357t-400 -131q-275 0 -415 124t-140 343v815zM477 1681l105 191l383 -256l-52 -103z" />
<glyph unicode="&#xda;" horiz-adv-x="1415" d="M8 1292v127h606v-127l-161 -35v-784q0 -323 309 -323q153 0 231 77.5t78 245.5v782l-162 35v129h494v-127l-143 -37v-794q0 -226 -137 -357t-400 -131q-275 0 -415 124t-140 343v815zM508 1616l383 256l104 -191l-436 -168z" />
<glyph unicode="&#xdb;" horiz-adv-x="1415" d="M8 1292v127h606v-127l-161 -35v-784q0 -323 309 -323q153 0 231 77.5t78 245.5v782l-162 35v129h494v-127l-143 -37v-794q0 -226 -137 -357t-400 -131q-275 0 -415 124t-140 343v815zM436 1581l240 258h123l239 -258l-53 -76l-248 146l-248 -146z" />
<glyph unicode="&#xdc;" horiz-adv-x="1415" d="M8 1292v127h606v-127l-161 -35v-784q0 -323 309 -323q153 0 231 77.5t78 245.5v782l-162 35v129h494v-127l-143 -37v-794q0 -226 -137 -357t-400 -131q-275 0 -415 124t-140 343v815zM483 1647q0 55 39 92t94 37q56 0 94 -37t38 -92q0 -53 -38.5 -91t-93.5 -38 q-54 0 -93.5 38.5t-39.5 90.5zM854 1647q0 55 38 92t93 37q56 0 94.5 -37t38.5 -92q0 -53 -39 -91t-94 -38q-54 0 -92.5 38t-38.5 91z" />
<glyph unicode="&#xdd;" horiz-adv-x="1296" d="M6 1292v127h549v-127l-129 -35l283 -489h8l262 489l-135 35v127h442v-127l-117 -37l-366 -647v-444l166 -37v-127h-619v127l168 37v442l-393 649zM475 1616l383 256l105 -191l-437 -168z" />
<glyph unicode="&#xde;" horiz-adv-x="1208" d="M37 0v127l166 37v1091l-166 37v127h606v-127l-158 -37v-131h170q527 0 527 -381q0 -188 -128.5 -287.5t-338.5 -99.5q-81 0 -166 17v129q30 -6 113 -6q233 0 233 237q0 124 -56 178t-182 54h-172v-801l197 -37v-127h-645z" />
<glyph unicode="&#xdf;" horiz-adv-x="1277" d="M35 0v113l139 32v762h-135v109l135 49v43q0 186 140 305t370 119q197 0 308.5 -80.5t111.5 -212.5q0 -55 -31 -109t-75 -96t-87.5 -80.5t-74.5 -78t-31 -72.5q0 -43 25 -70t96 -69l86 -54q44 -25 68.5 -41.5t59.5 -46t54 -58.5t33 -72t14 -93q0 -143 -99 -234.5 t-284 -91.5q-147 0 -287 50l-16 260h141l45 -133q56 -27 111 -27q71 0 114.5 31.5t43.5 89.5q0 37 -22 68.5t-47 50t-73 48.5q-12 7 -18 11l-86 53q-55 34 -89 61.5t-62.5 77t-28.5 109.5q0 57 27 112.5t66 101t78 89t66 92.5t27 96q0 75 -43 119.5t-129 44.5 q-125 0 -184.5 -79.5t-59.5 -217.5v-1081h-397z" />
<glyph unicode="&#xe0;" horiz-adv-x="1024" d="M29 264q0 57 16.5 102t45 76.5t74 55t96 39t118.5 28.5l239 47v90q0 77 -16 116t-64.5 59t-144.5 20q-138 0 -270 -20v135q73 31 180.5 53t214.5 22q184 0 271.5 -80t87.5 -247v-559q0 -43 22 -58.5t66 -15.5h45v-111q-25 -14 -78.5 -26.5t-108.5 -12.5q-148 0 -176 117 h-12q-106 -121 -285 -121q-143 0 -232 80t-89 211zM276 1337l105 191l383 -256l-51 -103zM289 297q0 -164 162 -164q48 0 93 19.5t74 44.5v276l-167 -12q-88 -7 -125 -47.5t-37 -116.5z" />
<glyph unicode="&#xe1;" horiz-adv-x="1024" d="M29 264q0 57 16.5 102t45 76.5t74 55t96 39t118.5 28.5l239 47v90q0 77 -16 116t-64.5 59t-144.5 20q-138 0 -270 -20v135q73 31 180.5 53t214.5 22q184 0 271.5 -80t87.5 -247v-559q0 -43 22 -58.5t66 -15.5h45v-111q-25 -14 -78.5 -26.5t-108.5 -12.5q-148 0 -176 117 h-12q-106 -121 -285 -121q-143 0 -232 80t-89 211zM289 297q0 -164 162 -164q48 0 93 19.5t74 44.5v276l-167 -12q-88 -7 -125 -47.5t-37 -116.5zM307 1272l383 256l105 -191l-437 -168z" />
<glyph unicode="&#xe2;" horiz-adv-x="1024" d="M29 264q0 57 16.5 102t45 76.5t74 55t96 39t118.5 28.5l239 47v90q0 77 -16 116t-64.5 59t-144.5 20q-138 0 -270 -20v135q73 31 180.5 53t214.5 22q184 0 271.5 -80t87.5 -247v-559q0 -43 22 -58.5t66 -15.5h45v-111q-25 -14 -78.5 -26.5t-108.5 -12.5q-148 0 -176 117 h-12q-106 -121 -285 -121q-143 0 -232 80t-89 211zM236 1237l239 258h123l240 -258l-54 -76l-247 146l-248 -146zM289 297q0 -164 162 -164q48 0 93 19.5t74 44.5v276l-167 -12q-88 -7 -125 -47.5t-37 -116.5z" />
<glyph unicode="&#xe3;" horiz-adv-x="1024" d="M29 264q0 57 16.5 102t45 76.5t74 55t96 39t118.5 28.5l239 47v90q0 77 -16 116t-64.5 59t-144.5 20q-138 0 -270 -20v135q73 31 180.5 53t214.5 22q184 0 271.5 -80t87.5 -247v-559q0 -43 22 -58.5t66 -15.5h45v-111q-25 -14 -78.5 -26.5t-108.5 -12.5q-148 0 -176 117 h-12q-106 -121 -285 -121q-143 0 -232 80t-89 211zM213 1270q88 200 225 200q49 0 123.5 -33.5t100.5 -33.5q33 0 58.5 18t51.5 60l105 -60q-87 -198 -226 -198q-49 0 -123 33.5t-100 33.5q-63 0 -111 -78zM289 297q0 -164 162 -164q48 0 93 19.5t74 44.5v276l-167 -12 q-88 -7 -125 -47.5t-37 -116.5z" />
<glyph unicode="&#xe4;" horiz-adv-x="1024" d="M29 264q0 57 16.5 102t45 76.5t74 55t96 39t118.5 28.5l239 47v90q0 77 -16 116t-64.5 59t-144.5 20q-138 0 -270 -20v135q73 31 180.5 53t214.5 22q184 0 271.5 -80t87.5 -247v-559q0 -43 22 -58.5t66 -15.5h45v-111q-25 -14 -78.5 -26.5t-108.5 -12.5q-148 0 -176 117 h-12q-106 -121 -285 -121q-143 0 -232 80t-89 211zM283 1303q0 55 39 92t94 37q56 0 93.5 -37t37.5 -92q0 -53 -38 -91t-93 -38q-54 0 -93.5 38.5t-39.5 90.5zM289 297q0 -164 162 -164q48 0 93 19.5t74 44.5v276l-167 -12q-88 -7 -125 -47.5t-37 -116.5zM653 1303 q0 55 38 92t93 37q56 0 95 -37t39 -92q0 -53 -39.5 -91t-94.5 -38q-54 0 -92.5 38t-38.5 91z" />
<glyph unicode="&#xe5;" horiz-adv-x="1024" d="M29 264q0 57 16.5 102t45 76.5t74 55t96 39t118.5 28.5l239 47v90q0 77 -16 116t-64.5 59t-144.5 20q-138 0 -270 -20v135q73 31 180.5 53t214.5 22q184 0 271.5 -80t87.5 -247v-559q0 -43 22 -58.5t66 -15.5h45v-111q-25 -14 -78.5 -26.5t-108.5 -12.5q-148 0 -176 117 h-12q-106 -121 -285 -121q-143 0 -232 80t-89 211zM289 297q0 -164 162 -164q48 0 93 19.5t74 44.5v276l-167 -12q-88 -7 -125 -47.5t-37 -116.5zM324 1374q0 82 59.5 139.5t148.5 57.5t149 -57.5t60 -139.5t-60 -140t-149 -58q-88 0 -148 58t-60 140zM434 1374 q0 -46 27 -73t71 -27t71.5 27t27.5 73q0 43 -27.5 72t-71.5 29t-71 -29t-27 -72z" />
<glyph unicode="&#xe6;" horiz-adv-x="1605" d="M29 264q0 139 87.5 209.5t262.5 101.5l239 46v81q0 77 -16 116t-64.5 59t-144.5 20q-138 0 -270 -20v135q73 31 178.5 53t208.5 22q211 0 287 -122q122 122 319 122q231 0 338 -144.5t107 -434.5h-682q9 -183 90 -268.5t235 -85.5q68 0 130 9.5t92 17.5t83 26v-131 q-162 -101 -366 -101q-289 0 -424 181q-61 -83 -156 -133t-207 -50q-148 0 -237.5 79.5t-89.5 211.5zM289 297q0 -164 166 -164q104 0 213 109q-45 101 -54 241l-163 -10q-162 -11 -162 -176zM879 637l411 14q0 149 -46.5 217t-141.5 68q-102 0 -158 -72t-65 -227z" />
<glyph unicode="&#xe7;" horiz-adv-x="966" d="M43 524q0 117 28.5 211.5t79 159.5t122.5 108.5t157 63.5t184 20q172 0 297 -40v-295h-155l-37 166q-54 16 -125 16q-133 0 -207 -94.5t-74 -288.5q0 -395 340 -395q169 0 273 51v-135q-136 -97 -351 -97h-14v-67q126 -6 183 -42t57 -110q0 -178 -398 -198v88 q117 14 163 36.5t46 59.5q0 35 -36 51t-125 17v176q-199 33 -303.5 174t-104.5 364z" />
<glyph unicode="&#xe8;" horiz-adv-x="1050" d="M43 541q0 168 66.5 293t181 189t260.5 64q234 0 344.5 -143t110.5 -430h-695q17 -360 332 -360q68 0 131 9t94.5 18t85.5 26v-131q-162 -101 -372 -101q-269 0 -404 150.5t-135 415.5zM305 1337l105 191l383 -256l-52 -103zM309 643l426 14q0 147 -48.5 213t-145.5 66 q-213 0 -232 -293z" />
<glyph unicode="&#xe9;" horiz-adv-x="1050" d="M43 541q0 168 66.5 293t181 189t260.5 64q234 0 344.5 -143t110.5 -430h-695q17 -360 332 -360q68 0 131 9t94.5 18t85.5 26v-131q-162 -101 -372 -101q-269 0 -404 150.5t-135 415.5zM309 643l426 14q0 147 -48.5 213t-145.5 66q-213 0 -232 -293zM336 1272l383 256 l104 -191l-436 -168z" />
<glyph unicode="&#xea;" horiz-adv-x="1050" d="M43 541q0 168 66.5 293t181 189t260.5 64q234 0 344.5 -143t110.5 -430h-695q17 -360 332 -360q68 0 131 9t94.5 18t85.5 26v-131q-162 -101 -372 -101q-269 0 -404 150.5t-135 415.5zM264 1237l240 258h123l239 -258l-53 -76l-248 146l-248 -146zM309 643l426 14 q0 147 -48.5 213t-145.5 66q-213 0 -232 -293z" />
<glyph unicode="&#xeb;" horiz-adv-x="1050" d="M43 541q0 168 66.5 293t181 189t260.5 64q234 0 344.5 -143t110.5 -430h-695q17 -360 332 -360q68 0 131 9t94.5 18t85.5 26v-131q-162 -101 -372 -101q-269 0 -404 150.5t-135 415.5zM309 643l426 14q0 147 -48.5 213t-145.5 66q-213 0 -232 -293zM311 1303q0 55 39 92 t94 37q56 0 93.5 -37t37.5 -92q0 -53 -38 -91t-93 -38q-54 0 -93.5 38.5t-39.5 90.5zM682 1303q0 55 38 92t93 37q56 0 94.5 -37t38.5 -92q0 -53 -39 -91t-94 -38q-54 0 -92.5 38t-38.5 91z" />
<glyph unicode="&#xec;" horiz-adv-x="589" d="M18 915v121l383 49l27 -14v-926l137 -32v-113h-534v113l139 32v738zM90 1337l105 191l383 -256l-52 -103z" />
<glyph unicode="&#xed;" horiz-adv-x="589" d="M18 915v121l383 49l27 -14v-926l137 -32v-113h-534v113l139 32v738zM121 1272l383 256l104 -191l-436 -168z" />
<glyph unicode="&#xee;" horiz-adv-x="589" d="M-6 915v121l383 49l26 -14v-926l138 -32v-113h-535v113l139 32v738zM25 1237l239 258h123l240 -258l-54 -76l-247 146l-248 -146z" />
<glyph unicode="&#xef;" horiz-adv-x="589" d="M-20 915v121l382 49l27 -14v-926l137 -32v-113h-534v113l139 32v738zM57 1303q0 55 39 92t94 37q56 0 94 -37t38 -92q0 -53 -38.5 -91t-93.5 -38q-54 0 -93.5 38.5t-39.5 90.5zM428 1303q0 55 38 92t93 37q56 0 94.5 -37t38.5 -92q0 -53 -39 -91t-94 -38q-54 0 -92.5 38 t-38.5 91z" />
<glyph unicode="&#xf0;" horiz-adv-x="1140" d="M43 516q0 127 39.5 232.5t106 173t153 104.5t182.5 37q123 0 217 -82q-71 134 -194 244l-264 -123v129l163 76q-65 49 -172 112l97 121q144 -60 272 -141l264 125v-129l-155 -74q344 -280 344 -725q0 -151 -40.5 -270.5t-111.5 -196t-166 -116.5t-207 -40 q-243 0 -385.5 149t-142.5 394zM313 530q0 -90 14 -160t38 -115t57.5 -73.5t70.5 -40.5t80 -12q42 0 77.5 11t68 38.5t55 70.5t36 110.5t13.5 154.5q0 90 -14.5 160t-39 114.5t-59.5 73t-71.5 40t-79.5 11.5q-246 0 -246 -383z" />
<glyph unicode="&#xf1;" horiz-adv-x="1230" d="M25 915v121l362 49l27 -14v-100h12q179 116 354 116q144 0 217.5 -64.5t73.5 -211.5v-666l137 -32v-113h-522v113l127 28v590q0 89 -44 124.5t-140 35.5q-80 0 -203 -39v-711l125 -28v-113h-524v113l141 32v738zM350 1270q88 200 225 200q49 0 123.5 -33.5t100.5 -33.5 q33 0 58.5 18t51.5 60l105 -60q-87 -198 -226 -198q-49 0 -123 33.5t-100 33.5q-33 0 -58.5 -18t-51.5 -60z" />
<glyph unicode="&#xf2;" horiz-adv-x="1140" d="M43 526q0 127 41 233t112 177.5t166.5 111t204.5 39.5q245 0 387 -147t142 -403q0 -127 -41.5 -233.5t-112.5 -178.5t-167 -112t-204 -40q-244 0 -386 150t-142 403zM313 541q0 -113 21 -195.5t58 -128.5t82 -67t99 -21q53 0 95.5 19.5t78.5 62.5t56 122t20 189 q0 114 -21 196.5t-58 128t-81 66.5t-98 21q-252 0 -252 -393zM350 1337l105 191l383 -256l-52 -103z" />
<glyph unicode="&#xf3;" horiz-adv-x="1140" d="M43 526q0 127 41 233t112 177.5t166.5 111t204.5 39.5q245 0 387 -147t142 -403q0 -127 -41.5 -233.5t-112.5 -178.5t-167 -112t-204 -40q-244 0 -386 150t-142 403zM313 541q0 -113 21 -195.5t58 -128.5t82 -67t99 -21q53 0 95.5 19.5t78.5 62.5t56 122t20 189 q0 114 -21 196.5t-58 128t-81 66.5t-98 21q-252 0 -252 -393zM381 1272l383 256l104 -191l-436 -168z" />
<glyph unicode="&#xf4;" horiz-adv-x="1140" d="M43 526q0 127 41 233t112 177.5t166.5 111t204.5 39.5q245 0 387 -147t142 -403q0 -127 -41.5 -233.5t-112.5 -178.5t-167 -112t-204 -40q-244 0 -386 150t-142 403zM309 1237l240 258h123l239 -258l-53 -76l-248 146l-248 -146zM313 541q0 -113 21 -195.5t58 -128.5 t82 -67t99 -21q53 0 95.5 19.5t78.5 62.5t56 122t20 189q0 114 -21 196.5t-58 128t-81 66.5t-98 21q-252 0 -252 -393z" />
<glyph unicode="&#xf5;" horiz-adv-x="1140" d="M43 526q0 127 41 233t112 177.5t166.5 111t204.5 39.5q245 0 387 -147t142 -403q0 -127 -41.5 -233.5t-112.5 -178.5t-167 -112t-204 -40q-244 0 -386 150t-142 403zM287 1270q88 200 225 200q49 0 123 -33.5t100 -33.5q63 0 111 78l104 -60q-87 -198 -225 -198 q-49 0 -123 33.5t-100 33.5q-63 0 -111 -78zM313 541q0 -113 21 -195.5t58 -128.5t82 -67t99 -21q53 0 95.5 19.5t78.5 62.5t56 122t20 189q0 114 -21 196.5t-58 128t-81 66.5t-98 21q-252 0 -252 -393z" />
<glyph unicode="&#xf6;" horiz-adv-x="1140" d="M43 526q0 127 41 233t112 177.5t166.5 111t204.5 39.5q245 0 387 -147t142 -403q0 -127 -41.5 -233.5t-112.5 -178.5t-167 -112t-204 -40q-244 0 -386 150t-142 403zM313 541q0 -113 21 -195.5t58 -128.5t82 -67t99 -21q53 0 95.5 19.5t78.5 62.5t56 122t20 189 q0 114 -21 196.5t-58 128t-81 66.5t-98 21q-252 0 -252 -393zM356 1303q0 55 39 92t94 37q56 0 94 -37t38 -92q0 -53 -38.5 -91t-93.5 -38q-54 0 -93.5 38.5t-39.5 90.5zM727 1303q0 55 38 92t93 37q56 0 94.5 -37t38.5 -92q0 -53 -39 -91t-94 -38q-54 0 -92.5 38t-38.5 91z " />
<glyph unicode="&#xf7;" horiz-adv-x="1087" d="M109 612v168h870v-168h-870zM393 332q0 62 43 104.5t107 42.5t108.5 -42.5t44.5 -104.5q0 -58 -45 -102t-108 -44t-106.5 44t-43.5 102zM393 1059q0 62 43 104.5t107 42.5t108.5 -42.5t44.5 -104.5q0 -59 -44.5 -102.5t-108.5 -43.5q-63 0 -106.5 43.5t-43.5 102.5z" />
<glyph unicode="&#xf8;" horiz-adv-x="1140" d="M29 -82l151 205q-141 150 -141 403q0 127 41 233t112 177.5t166.5 111t204.5 39.5q163 0 283 -69l82 110h162l-142 -188q144 -150 144 -403q0 -127 -41.5 -233.5t-112.5 -178.5t-167 -112t-204 -40q-161 0 -282 70l-92 -125h-164zM301 541q0 -137 27 -222l407 549 q-65 68 -174 68q-55 0 -99.5 -19.5t-82 -63t-58 -123t-20.5 -189.5zM395 193q66 -66 174 -66q44 0 81 11.5t70.5 40.5t57 73t37.5 113t14 157q0 126 -26 219z" />
<glyph unicode="&#xf9;" horiz-adv-x="1230" d="M10 928v119l373 36l25 -14v-715q0 -99 37.5 -142.5t136.5 -43.5q49 0 93 8.5t65.5 16.5t56.5 24v678l-133 33v119l364 36l27 -14v-895l141 -33v-114l-360 -47l-27 12v114h-12q-136 -129 -340 -129q-305 0 -305 308v610zM406 1337l104 191l383 -256l-51 -103z" />
<glyph unicode="&#xfa;" horiz-adv-x="1230" d="M10 928v119l373 36l25 -14v-715q0 -99 37.5 -142.5t136.5 -43.5q49 0 93 8.5t65.5 16.5t56.5 24v678l-133 33v119l364 36l27 -14v-895l141 -33v-114l-360 -47l-27 12v114h-12q-136 -129 -340 -129q-305 0 -305 308v610zM436 1272l383 256l105 -191l-437 -168z" />
<glyph unicode="&#xfb;" horiz-adv-x="1230" d="M10 928v119l373 36l25 -14v-715q0 -99 37.5 -142.5t136.5 -43.5q49 0 93 8.5t65.5 16.5t56.5 24v678l-133 33v119l364 36l27 -14v-895l141 -33v-114l-360 -47l-27 12v114h-12q-136 -129 -340 -129q-305 0 -305 308v610zM365 1237l239 258h123l240 -258l-54 -76l-247 146 l-248 -146z" />
<glyph unicode="&#xfc;" horiz-adv-x="1230" d="M10 928v119l373 36l25 -14v-715q0 -99 37.5 -142.5t136.5 -43.5q49 0 93 8.5t65.5 16.5t56.5 24v678l-133 33v119l364 36l27 -14v-895l141 -33v-114l-360 -47l-27 12v114h-12q-136 -129 -340 -129q-305 0 -305 308v610zM406 1303q0 55 39 92t94 37q56 0 93.5 -37 t37.5 -92q0 -53 -38 -91t-93 -38q-54 0 -93.5 38.5t-39.5 90.5zM776 1303q0 55 38 92t93 37q56 0 94.5 -37t38.5 -92q0 -53 -39 -91t-94 -38q-54 0 -92.5 38t-38.5 91z" />
<glyph unicode="&#xfd;" horiz-adv-x="1136" d="M0 950v117h508v-117l-125 -26l233 -611h9l206 609l-120 28v117h419v-117l-104 -28l-401 -1063q-53 -142 -128.5 -205.5t-209.5 -63.5q-44 0 -94.5 10.5t-79.5 24.5v156q77 -17 108 -17q80 0 129.5 32t81.5 108l49 121l-375 897zM393 1272l383 256l105 -191l-437 -168z " />
<glyph unicode="&#xfe;" horiz-adv-x="1183" d="M2 1356v123l363 47l26 -13v-538h15q148 115 317 115q63 0 118.5 -14t108.5 -50.5t90.5 -93.5t60.5 -149t23 -210q0 -151 -39.5 -266t-112 -187t-171.5 -108.5t-221 -36.5q-110 0 -179 17v-258l162 -31v-111h-559v111l139 29v1591zM399 180q26 -17 43.5 -26t56 -18 t85.5 -9q133 0 203.5 92t70.5 316q0 195 -65 278.5t-195 83.5q-101 0 -199 -43v-674z" />
<glyph unicode="&#xff;" horiz-adv-x="1136" d="M0 950v117h508v-117l-125 -26l233 -611h9l206 609l-120 28v117h419v-117l-104 -28l-401 -1063q-53 -142 -128.5 -205.5t-209.5 -63.5q-44 0 -94.5 10.5t-79.5 24.5v156q77 -17 108 -17q80 0 129.5 32t81.5 108l49 121l-375 897zM369 1303q0 55 39 92t94 37q56 0 93.5 -37 t37.5 -92q0 -53 -38 -91t-93 -38q-54 0 -93.5 38.5t-39.5 90.5zM739 1303q0 55 38 92t93 37q56 0 95 -37t39 -92q0 -53 -39.5 -91t-94.5 -38q-54 0 -92.5 38t-38.5 91z" />
<glyph unicode="&#x152;" horiz-adv-x="1921" d="M49 678q0 367 181.5 554t529.5 187h1067l20 -381h-145l-84 226h-436v-461h202l48 170h124v-492h-124l-48 174h-202v-499h452l105 278h149l-24 -434h-1086q-369 0 -549 168.5t-180 509.5zM348 709q0 -102 11 -182t30 -137.5t50.5 -98.5t67 -66.5t86 -40t100.5 -19.5 t116 -5h92v1100h-133q-106 0 -181 -26.5t-130.5 -89t-82 -170t-26.5 -265.5z" />
<glyph unicode="&#x153;" horiz-adv-x="1832" d="M43 526q0 127 41 233t112 177.5t166.5 111t204.5 39.5q267 0 394 -188q60 91 155.5 139.5t216.5 48.5q233 0 343 -143t110 -430h-694q17 -360 333 -360q68 0 131 9t95.5 18t83.5 26v-131q-157 -101 -373 -101q-291 0 -410 193q-65 -94 -163 -144.5t-218 -50.5 q-244 0 -386 150t-142 403zM313 541q0 -113 21 -195.5t58 -128.5t82 -67t99 -21q53 0 95.5 19.5t78.5 62.5t56 122t20 189q0 114 -21 196.5t-58 128t-81 66.5t-98 21q-252 0 -252 -393zM1092 643l426 14q0 147 -49 213t-146 66q-105 0 -163.5 -70t-67.5 -223z" />
<glyph unicode="&#x178;" horiz-adv-x="1296" d="M6 1292v127h549v-127l-129 -35l283 -489h8l262 489l-135 35v127h442v-127l-117 -37l-366 -647v-444l166 -37v-127h-619v127l168 37v442l-393 649zM451 1647q0 55 39 92t94 37q56 0 93.5 -37t37.5 -92q0 -53 -38 -91t-93 -38q-54 0 -93.5 38.5t-39.5 90.5zM821 1647 q0 55 38 92t93 37q56 0 94.5 -37t38.5 -92q0 -53 -39 -91t-94 -38q-54 0 -92.5 38t-38.5 91z" />
<glyph unicode="&#x2c6;" horiz-adv-x="1005" d="M201 1237l239 258h123l240 -258l-53 -76l-248 146l-248 -146z" />
<glyph unicode="&#x2dc;" horiz-adv-x="1005" d="M172 1270q88 200 225 200q49 0 123.5 -33.5t100.5 -33.5q33 0 58.5 18t51.5 60l105 -60q-87 -198 -226 -198q-49 0 -123 33.5t-100 33.5q-63 0 -111 -78z" />
<glyph unicode="&#x2000;" horiz-adv-x="957" />
<glyph unicode="&#x2001;" horiz-adv-x="1915" />
<glyph unicode="&#x2002;" horiz-adv-x="957" />
<glyph unicode="&#x2003;" horiz-adv-x="1915" />
<glyph unicode="&#x2004;" horiz-adv-x="638" />
<glyph unicode="&#x2005;" horiz-adv-x="478" />
<glyph unicode="&#x2006;" horiz-adv-x="319" />
<glyph unicode="&#x2007;" horiz-adv-x="319" />
<glyph unicode="&#x2008;" horiz-adv-x="239" />
<glyph unicode="&#x2009;" horiz-adv-x="383" />
<glyph unicode="&#x200a;" horiz-adv-x="106" />
<glyph unicode="&#x2010;" horiz-adv-x="638" d="M78 483v205h483v-205h-483z" />
<glyph unicode="&#x2011;" horiz-adv-x="638" d="M78 483v205h483v-205h-483z" />
<glyph unicode="&#x2012;" horiz-adv-x="638" d="M78 483v205h483v-205h-483z" />
<glyph unicode="&#x2013;" horiz-adv-x="815" d="M59 514v148h695v-148h-695z" />
<glyph unicode="&#x2014;" horiz-adv-x="1406" d="M59 514v148h1287v-148h-1287z" />
<glyph unicode="&#x2018;" horiz-adv-x="466" d="M86 985q37 254 129 434h164q-35 -266 -35 -434h-258z" />
<glyph unicode="&#x2019;" horiz-adv-x="466" d="M86 985q35 240 35 434h258q-32 -250 -127 -434h-166z" />
<glyph unicode="&#x201a;" horiz-adv-x="466" d="M86 -174q35 240 35 434h258q-31 -249 -127 -434h-166z" />
<glyph unicode="&#x201c;" horiz-adv-x="831" d="M86 985q37 254 129 434h164q-35 -266 -35 -434h-258zM451 985q31 241 129 434h163q-34 -259 -34 -434h-258z" />
<glyph unicode="&#x201d;" horiz-adv-x="831" d="M86 985q35 240 35 434h258q-32 -250 -127 -434h-166zM451 985q34 233 34 434h258q-32 -250 -127 -434h-165z" />
<glyph unicode="&#x201e;" horiz-adv-x="831" d="M86 -174q35 240 35 434h258q-31 -249 -127 -434h-166zM451 -174q34 233 34 434h258q-31 -249 -127 -434h-165z" />
<glyph unicode="&#x2022;" horiz-adv-x="1673" d="M74 731q0 155 60 295.5t162 242.5t242.5 162t295.5 60t296.5 -60t244 -162t163.5 -242.5t61 -295.5t-61 -296.5t-163.5 -243.5t-244 -163t-296.5 -61t-295.5 61t-242.5 163.5t-162 243.5t-60 296z" />
<glyph unicode="&#x2026;" horiz-adv-x="1478" d="M80 123q0 65 45.5 109t112.5 44q66 0 111.5 -44.5t45.5 -108.5q0 -63 -45.5 -107.5t-111.5 -44.5q-67 0 -112.5 44.5t-45.5 107.5zM580 123q0 64 45.5 108.5t111.5 44.5q67 0 112.5 -44t45.5 -109q0 -63 -45.5 -107.5t-112.5 -44.5q-66 0 -111.5 44.5t-45.5 107.5z M1083 123q0 65 45.5 109t112.5 44q66 0 111 -44t45 -109q0 -63 -45 -107.5t-111 -44.5q-67 0 -112.5 44.5t-45.5 107.5z" />
<glyph unicode="&#x202f;" horiz-adv-x="383" />
<glyph unicode="&#x2039;" horiz-adv-x="536" d="M74 481v72l217 371h168l-164 -406l164 -407h-168z" />
<glyph unicode="&#x203a;" horiz-adv-x="536" d="M78 111l164 405l-164 408h168l217 -371v-72l-217 -370h-168z" />
<glyph unicode="&#x205f;" horiz-adv-x="478" />
<glyph unicode="&#x20ac;" horiz-adv-x="1255" d="M51 494v129h137q-2 23 -2 73q0 47 2 70h-137v129h150q18 119 59.5 213.5t98.5 156.5t132 103t155.5 58.5t172.5 17.5q188 0 338 -53l10 -349h-145l-70 199q-66 37 -151 37q-146 0 -227 -96t-103 -287h393v-129h-401v-29q0 -79 2 -114h399v-129h-385q29 -176 116.5 -252 t252.5 -76q162 0 326 65v-145q-168 -111 -388 -111q-243 0 -394 125.5t-191 393.5h-150z" />
<glyph unicode="&#x2122;" horiz-adv-x="1548" d="M39 1204l8 215h563l8 -215h-92l-34 129h-82v-413l71 -15v-74h-305v74l70 15v413h-80l-35 -129h-92zM680 831v74l68 15v409l-68 14v76h285l120 -350h7l122 350h297v-76l-73 -14v-407l73 -17v-74h-290v74l59 17v370h-8l-154 -442h-106l-152 440h-6v-368l59 -17v-74h-233z " />
<glyph unicode="&#x25fc;" horiz-adv-x="1064" d="M0 0v1065h1065v-1065h-1065z" />
</font>
</defs>
</svg>
