<?xml version="1.0" standalone="no"?>
<!DOCTYPE svg PUBLIC "-//W3C//DTD SVG 1.1//EN" "http://www.w3.org/Graphics/SVG/1.1/DTD/svg11.dtd" >
<svg xmlns="http://www.w3.org/2000/svg">
<metadata></metadata>
<defs>
<font id="de2_display_egyptian_lightRg" horiz-adv-x="999" >
<font-face units-per-em="2048" ascent="1638" descent="-410" />
<missing-glyph horiz-adv-x="389" />
<glyph unicode="&#xfb01;" horiz-adv-x="1107" d="M35 0v55l158 25v874h-156v56l156 37v167q0 153 83.5 232.5t219.5 79.5q73 0 141 -35v-70q-63 13 -109 13q-101 0 -152.5 -54.5t-51.5 -179.5v-153h579l17 -11v-956l161 -25v-55h-450v55l155 25v874h-462v-874l155 -25v-55h-444zM756 1356q0 37 25.5 62.5t62.5 25.5 t62.5 -25.5t25.5 -62.5q0 -34 -26 -60t-62 -26t-62 26t-26 60z" />
<glyph unicode="&#xfb02;" horiz-adv-x="1107" d="M35 0v55l158 25v874h-156v56l156 37v151q0 86 29 151t79.5 102.5t113 56t136.5 18.5q123 0 268 -62l80 58l21 -9v-1433l161 -25v-55h-450v55l155 25v1315q-109 39 -215 39q-124 0 -185.5 -56.5t-61.5 -195.5v-135h268v-93h-268v-874l155 -25v-55h-444z" />
<glyph unicode="&#xfb03;" horiz-adv-x="1701" d="M35 0v55l158 25v874h-156v56l156 37v135q0 165 84.5 244t220.5 79q87 0 159 -37v-69q-58 14 -122 14q-104 0 -157.5 -55.5t-53.5 -190.5v-120h462v167q0 153 84 232.5t220 79.5q73 0 141 -35v-70q-63 13 -109 13q-101 0 -152.5 -54.5t-51.5 -179.5v-153h579l16 -11v-956 l162 -25v-55h-450v55l155 25v874h-462v-874l153 -25v-55h-438v55l153 25v874h-462v-874l153 -25v-55h-442zM1350 1356q0 37 25.5 62.5t62.5 25.5t62.5 -25.5t25.5 -62.5q0 -34 -26 -60t-62 -26t-62 26t-26 60z" />
<glyph unicode="&#xfb04;" horiz-adv-x="1701" d="M35 0v55l158 25v874h-156v56l156 37v135q0 165 84.5 244t220.5 79q87 0 159 -37v-69q-58 14 -122 14q-104 0 -157.5 -55.5t-53.5 -190.5v-120h462v151q0 86 29 151t80 102.5t113.5 56t136.5 18.5q123 0 268 -62l80 58l20 -9v-1433l162 -25v-55h-450v55l155 25v1315 q-109 39 -215 39q-124 0 -185.5 -56.5t-61.5 -195.5v-135h268v-93h-268v-874l153 -25v-55h-438v55l153 25v874h-462v-874l153 -25v-55h-442z" />
<glyph horiz-adv-x="2048" />
<glyph horiz-adv-x="2048" />
<glyph unicode="&#xd;" horiz-adv-x="2048" />
<glyph unicode=" "  horiz-adv-x="389" />
<glyph unicode="&#x09;" horiz-adv-x="389" />
<glyph unicode="&#xa0;" horiz-adv-x="389" />
<glyph unicode="!" horiz-adv-x="452" d="M137 70q0 38 27 65t65 27q40 0 67.5 -27t27.5 -65q0 -37 -28 -65t-67 -28q-38 0 -65 28t-27 65zM152 1419h151l-35 -1054h-80z" />
<glyph unicode="&#x22;" horiz-adv-x="626" d="M84 1040q7 18 15.5 55.5t17 127t8.5 196.5h151q0 -52 -9.5 -107t-24.5 -101t-28.5 -79t-27.5 -62t-14 -30h-88zM346 1040q41 128 41 379h150q0 -30 -3 -61t-9 -59.5t-12.5 -55t-15.5 -51.5t-16.5 -45t-16 -39.5t-14 -31t-12 -23.5t-6.5 -13h-86z" />
<glyph unicode="#" horiz-adv-x="991" d="M70 459v127h186l43 270h-168v127h188l70 436h92l-69 -436h256l69 436h92l-69 -436h170v-127h-191l-43 -270h174v-127h-194l-72 -459h-92l72 459h-256l-72 -459h-92l72 459h-166zM348 586h256l43 270h-256z" />
<glyph unicode="$" horiz-adv-x="1026" d="M78 352h76l47 -219q90 -46 194 -59l64 618l-58 23q-72 28 -123 58t-93.5 73t-63.5 102.5t-21 136.5q0 156 109 257.5t317 101.5h11l12 123h90l-14 -129q112 -11 243 -60l15 -266h-76l-41 188q-72 35 -150 46l-57 -553l45 -17q66 -25 111 -46.5t92.5 -55t76 -71.5 t46.5 -93.5t18 -124.5q0 -85 -28 -157.5t-83 -129t-147 -89t-211 -32.5h-2l-22 -217h-90l22 222q-166 14 -297 71zM223 1114q0 -109 57.5 -171.5t192.5 -115.5l53 527h-12q-135 0 -213 -63.5t-78 -176.5zM485 68h7q161 0 244 76t83 200q0 123 -60 187.5t-214 125.5z" />
<glyph unicode="%" horiz-adv-x="1628" d="M66 1057q0 179 92.5 282t230.5 103q136 0 228 -101t92 -278q0 -178 -90.5 -279.5t-231.5 -101.5q-140 0 -230.5 99.5t-90.5 275.5zM190 1061q0 -149 49.5 -227t147.5 -78q197 0 197 301q0 152 -50 231.5t-145 79.5q-98 0 -148.5 -78t-50.5 -229zM252 -82l1001 1542h107 l-1004 -1542h-104zM920 354q0 181 92.5 283t230.5 102q135 0 227.5 -100t92.5 -277q0 -179 -91 -280.5t-231 -101.5q-141 0 -231 99t-90 275zM1042 360q0 -307 199 -307q197 0 197 303q0 151 -50 230.5t-145 79.5q-99 0 -150 -78t-51 -228z" />
<glyph unicode="&#x26;" horiz-adv-x="1359" d="M49 352q0 140 84 240t256 192q-63 79 -96 154.5t-33 163.5q0 156 102.5 248t249.5 92q59 0 113 -18t96.5 -51.5t68 -87t25.5 -118.5q0 -68 -25.5 -124t-79 -103t-108 -81.5t-141.5 -78.5l379 -452q84 141 125 321l-158 29v65h402v-63l-144 -29q-57 -226 -168 -391 l140 -166l182 -28v-66h-279l-129 156q-179 -179 -419 -179q-197 0 -320 104t-123 271zM195 369q0 -131 86.5 -215t236.5 -84q198 0 340 149l-422 506q-125 -70 -183 -154t-58 -202zM393 1118q0 -76 30 -140t89 -138q97 51 151 91t87.5 98t33.5 134q0 93 -50.5 143t-127.5 50 q-94 0 -153.5 -63t-59.5 -175z" />
<glyph unicode="'" horiz-adv-x="366" d="M84 1040q7 18 15.5 55.5t17 127t8.5 196.5h151q0 -52 -9.5 -107t-24.5 -101t-28.5 -79t-27.5 -62t-14 -30h-88z" />
<glyph unicode="(" horiz-adv-x="616" d="M82 618q0 124 29 244.5t73.5 214.5t106.5 182.5t118 149.5t117 115l49 -49q-66 -71 -124 -154t-111 -188t-84 -231t-31 -255q0 -128 22 -246t54.5 -207t81.5 -173.5t93 -142t99 -116.5l-49 -49q-66 58 -118 111t-116.5 140.5t-107.5 177.5t-72.5 215t-29.5 261z" />
<glyph unicode=")" horiz-adv-x="616" d="M43 -238q66 71 124 154t111 188t84 231t31 255q0 158 -30.5 298t-85.5 249t-109.5 186t-124.5 152l51 49q66 -59 117 -111.5t116 -140.5t107.5 -178t72.5 -215t30 -261q0 -124 -29 -244.5t-73.5 -214t-106.5 -182.5t-117.5 -149.5t-116.5 -114.5z" />
<glyph unicode="*" horiz-adv-x="681" d="M63 1225l54 90l202 -141l-28 245h115l-29 -245l203 141l51 -90l-228 -105l228 -104l-53 -90l-201 141l29 -242h-115l28 242l-200 -141l-53 90l227 104z" />
<glyph unicode="+" horiz-adv-x="1044" d="M121 659v95h352v366h100v-366h351v-95h-351v-366h-100v366h-352z" />
<glyph unicode="," horiz-adv-x="376" d="M88 -219q35 178 35 377h151q-21 -209 -98 -377h-88z" />
<glyph unicode="-" horiz-adv-x="573" d="M74 518v115h426v-115h-426z" />
<glyph unicode="." horiz-adv-x="376" d="M90 74q0 40 29 68t69 28q41 0 70 -28t29 -68q0 -41 -29 -70t-70 -29q-40 0 -69 29t-29 70z" />
<glyph unicode="/" horiz-adv-x="661" d="M14 -246l492 1747h100l-491 -1747h-101z" />
<glyph unicode="0" horiz-adv-x="1269" d="M82 702q0 361 152 550.5t403 189.5q121 0 220 -45t173 -133t115 -228.5t41 -322.5q0 -359 -149.5 -548.5t-401.5 -189.5q-255 0 -404 185t-149 542zM227 713q0 -316 102.5 -484t305.5 -168q405 0 405 641q0 318 -101 486t-302 168q-205 0 -307.5 -164t-102.5 -479z" />
<glyph unicode="1" horiz-adv-x="731" d="M61 1235v63l342 140h43v-1348l220 -24v-66h-580v66l217 24v1198z" />
<glyph unicode="2" horiz-adv-x="1030" d="M31 0v78l354 352q88 87 143.5 149t109.5 139t79.5 152.5t25.5 155.5q0 311 -329 311q-144 0 -320 -73v75q177 103 371 103q199 0 312.5 -102.5t113.5 -299.5q0 -86 -29.5 -168.5t-91.5 -166.5t-134 -159.5t-181 -174.5l-271 -248v-4h613l67 198h72l-21 -317h-884z" />
<glyph unicode="3" d="M51 72v75q172 -69 352 -69q177 0 273 82t96 231q0 162 -91.5 235.5t-283.5 73.5h-98v93h86q156 0 244 71.5t88 204.5q0 274 -307 274q-148 0 -301 -55v74q167 80 335 80q194 0 303 -90.5t109 -259.5q0 -129 -75.5 -214t-194.5 -120v-6q68 -11 124.5 -35.5t104.5 -66.5 t75.5 -110t27.5 -157q0 -188 -127.5 -297t-352.5 -109q-216 0 -387 95z" />
<glyph unicode="4" horiz-adv-x="1126" d="M35 418v88l688 913h117v-903h237v-98h-237v-328l192 -24v-66h-524v66l192 24v328h-665zM158 516h542v719h-6l-536 -715v-4z" />
<glyph unicode="5" horiz-adv-x="1007" d="M47 74v73q170 -67 336 -67q187 0 289 90.5t102 251.5q0 172 -98 261t-291 89q-97 0 -246 -33l54 680h698l-12 -123h-600l-35 -450q94 24 192 24q234 0 360 -114t126 -322q0 -209 -132.5 -333t-375.5 -124q-191 0 -367 97z" />
<glyph unicode="6" horiz-adv-x="1134" d="M84 635q0 171 34 308.5t92.5 229.5t139.5 153.5t171.5 88.5t193.5 27q167 0 272 -66v-78q-105 48 -254 48q-102 0 -185.5 -31.5t-153 -101t-112 -192t-51.5 -292.5q185 127 396 127q189 0 311.5 -110t122.5 -306q0 -209 -126.5 -337t-340.5 -128q-246 0 -378 173.5 t-132 486.5zM229 623q0 -562 365 -562q154 0 237.5 96.5t83.5 268.5q0 168 -90 250t-243 82q-111 0 -193.5 -28.5t-159.5 -80.5v-26z" />
<glyph unicode="7" horiz-adv-x="985" d="M39 1128l16 291h899v-106l-583 -1313h-158l647 1290v6h-704l-43 -168h-74z" />
<glyph unicode="8" horiz-adv-x="1142" d="M76 348q0 75 31 139.5t84.5 110.5t111 77.5t125.5 55.5q-144 61 -219.5 147.5t-75.5 217.5q0 150 119.5 249t310.5 99q196 0 316 -88.5t120 -247.5q0 -70 -24.5 -127t-70 -98t-92.5 -69t-110 -54q83 -32 143.5 -66t113 -81t79.5 -110t27 -141q0 -173 -130 -281t-362 -108 q-233 0 -365 101t-132 274zM213 354q0 -138 89.5 -216.5t266.5 -78.5q174 0 266.5 75t92.5 206q0 42 -10 77.5t-25.5 63t-46.5 53.5t-59.5 44.5t-78.5 41t-89.5 37.5t-106.5 39q-299 -120 -299 -342zM264 1114q0 -66 21.5 -115t70 -86t107.5 -63.5t153 -56.5 q54 24 94.5 49.5t78 62t57.5 86.5t20 111q0 129 -83.5 192.5t-217.5 63.5q-133 0 -217 -65.5t-84 -178.5z" />
<glyph unicode="9" horiz-adv-x="1134" d="M74 983q0 206 129.5 332.5t341.5 126.5q245 0 375.5 -175t130.5 -483q0 -212 -44.5 -368.5t-128.5 -252.5t-198.5 -142t-261.5 -46q-172 0 -271 68v76q107 -47 252 -47q115 0 201.5 31.5t153 102t103.5 192t44 294.5q-182 -131 -397 -131q-188 0 -309 112t-121 310z M219 995q0 -169 87.5 -251t244.5 -82q111 0 194.5 29.5t159.5 82.5v23q0 559 -358 559q-154 0 -241 -95.5t-87 -265.5z" />
<glyph unicode=":" horiz-adv-x="393" d="M100 74q0 39 29.5 67.5t69.5 28.5q41 0 69.5 -28t28.5 -68q0 -41 -28.5 -70t-69.5 -29q-40 0 -69.5 29t-29.5 70zM100 700q0 40 29.5 68.5t69.5 28.5q41 0 69.5 -28.5t28.5 -68.5q0 -41 -28.5 -69.5t-69.5 -28.5q-40 0 -69.5 28.5t-29.5 69.5z" />
<glyph unicode=";" horiz-adv-x="393" d="M88 -219q35 178 35 377h151q-21 -209 -98 -377h-88zM96 700q0 40 29.5 68.5t69.5 28.5q41 0 69.5 -28.5t28.5 -68.5q0 -41 -28.5 -69.5t-69.5 -28.5q-40 0 -69.5 28.5t-29.5 69.5z" />
<glyph unicode="&#x3c;" horiz-adv-x="995" d="M121 659v82l731 344v-108l-614 -277l614 -276v-107z" />
<glyph unicode="=" horiz-adv-x="1009" d="M125 434v92h758v-92h-758zM125 756v94h758v-94h-758z" />
<glyph unicode="&#x3e;" horiz-adv-x="995" d="M141 315v109l615 274l-615 279v106l733 -342v-82z" />
<glyph unicode="?" horiz-adv-x="811" d="M51 1292v78q154 72 318 72q77 0 141 -18.5t117.5 -57.5t83.5 -108t30 -162q0 -85 -29.5 -150.5t-77.5 -111.5t-134 -103q-90 -59 -128.5 -101.5t-39.5 -109.5q0 -62 26 -158h-75q-41 88 -41 177q0 81 44.5 137.5t157.5 138.5q85 62 123.5 122.5t38.5 154.5q0 132 -75 193 t-201 61q-81 0 -140 -12.5t-139 -41.5zM231 70q0 38 26.5 65t66.5 27q38 0 66 -27t28 -65q0 -37 -28 -65t-66 -28q-39 0 -66 28t-27 65z" />
<glyph unicode="@" horiz-adv-x="1775" d="M88 438q0 150 41 291.5t119.5 259.5t185.5 207t247.5 138.5t297.5 49.5q328 0 523.5 -190t195.5 -520q0 -178 -62.5 -318t-172 -216.5t-246.5 -76.5q-88 0 -135.5 37.5t-55.5 98.5h-10q-123 -123 -260 -123q-110 0 -183 79.5t-73 231.5q0 158 53 293t159 221t244 86 q54 0 100 -12.5t70 -25t64 -38.5l43 58h67l-139 -693q-26 -131 74 -131q161 0 262.5 144t101.5 381q0 300 -162.5 468.5t-459.5 168.5q-181 0 -331.5 -70t-249.5 -189t-153.5 -276t-54.5 -332q0 -329 178 -497t529 -168q253 0 463 78v-70q-201 -88 -463 -88 q-390 0 -598.5 193.5t-208.5 549.5zM637 389q0 -223 164 -223q116 0 229 110l105 539q-62 90 -181 90q-79 0 -141.5 -43.5t-100 -117.5t-56.5 -164.5t-19 -190.5z" />
<glyph unicode="A" horiz-adv-x="1310" d="M-6 0v66l137 28l469 1325h119l463 -1325l137 -28v-66h-459v66l170 26l-125 371h-538l-129 -371l172 -26v-66h-416zM395 545h482l-234 692h-8z" />
<glyph unicode="B" horiz-adv-x="1224" d="M53 0v66l183 26v1235l-181 27v65h559q234 0 352.5 -83t118.5 -265q0 -120 -65 -208.5t-199 -114.5v-9q179 -27 259.5 -114t80.5 -246q0 -175 -128 -277t-357 -102h-623zM379 88h274q176 0 266.5 72.5t90.5 228.5q0 162 -91 234.5t-266 72.5h-274v-608zM379 776h246 q309 0 309 271q0 70 -15 120.5t-41.5 82t-69.5 50t-91.5 25t-114.5 6.5h-223v-555z" />
<glyph unicode="C" horiz-adv-x="1232" d="M72 700q0 157 34 282.5t93.5 211t144 142.5t182.5 82.5t213 25.5q226 0 389 -60l13 -325h-74l-61 239q-118 58 -279 58q-251 0 -377.5 -163t-126.5 -466q0 -327 126 -494t390 -167q151 0 277 61l61 254h76l-12 -332q-177 -74 -416 -74q-314 0 -483.5 180t-169.5 545z" />
<glyph unicode="D" horiz-adv-x="1357" d="M47 0v66l182 26v1235l-180 27v65h541q189 0 323.5 -45t216 -134.5t119 -213t37.5 -291.5q0 -363 -162 -549t-514 -186h-563zM373 86h237q182 0 295.5 60.5t171.5 199.5t58 369q0 126 -15.5 221.5t-48.5 163.5t-77.5 113.5t-110 72t-139.5 37t-171 10.5h-200v-1247z" />
<glyph unicode="E" horiz-adv-x="1179" d="M47 0v66l182 26v1235l-180 27v65h1022l21 -334h-74l-66 248h-579v-561h332l38 195h70v-473h-70l-38 196h-332v-604h604l80 295h73l-22 -381h-1061z" />
<glyph unicode="F" horiz-adv-x="1157" d="M47 0v66l182 26v1235l-180 27v65h1030l21 -344h-74l-65 258h-588v-583h329l37 192h68v-473h-70l-35 199h-329v-576l205 -26v-66h-531z" />
<glyph unicode="G" horiz-adv-x="1351" d="M72 700q0 157 35 282.5t96 211t147.5 142.5t185.5 82.5t214 25.5q250 0 403 -60l16 -319h-73l-62 231q-120 62 -299 62q-251 0 -381.5 -165t-130.5 -466q0 -664 527 -664q128 0 270 48v419l-195 27v64h498v-64l-158 -27v-489q-188 -66 -409 -66q-330 0 -507 179t-177 546 z" />
<glyph unicode="H" horiz-adv-x="1466" d="M47 0v66l180 26v1235l-180 27v65h510v-65l-186 -27v-557h725v557l-189 27v65h512v-65l-178 -27v-1235l178 -26v-66h-512v66l189 26v596h-725v-596l186 -26v-66h-510z" />
<glyph unicode="I" horiz-adv-x="604" d="M47 0v66l184 26v1235l-184 27v65h510v-65l-182 -27v-1235l182 -26v-66h-510z" />
<glyph unicode="J" horiz-adv-x="794" d="M16 33v86q119 -39 215 -39q116 0 168 57.5t52 186.5v1003l-185 27v65h506v-65l-178 -27v-1018q0 -155 -86.5 -240t-257.5 -85q-134 0 -234 49z" />
<glyph unicode="K" horiz-adv-x="1302" d="M47 0v66l180 26v1235l-180 27v65h516v-65l-192 -27v-1235l192 -26v-66h-516zM471 678v37l518 612l-145 27v65h407v-65l-135 -27l-514 -594l514 -641l158 -26v-66h-262z" />
<glyph unicode="L" horiz-adv-x="1114" d="M47 0v66l180 26v1235l-180 27v65h522v-65l-198 -27v-1241h559l74 317h73l-26 -403h-1004z" />
<glyph unicode="M" horiz-adv-x="1734" d="M47 0v63l182 29v1235l-182 27v65h393l416 -1124h6l420 1124h406v-65l-191 -27v-1235l191 -26v-66h-506v66l172 26v1219h-4l-467 -1235h-86l-457 1235h-4v-1219l174 -26v-66h-463z" />
<glyph unicode="N" horiz-adv-x="1439" d="M47 0v63l182 29v1235l-182 27v65h377l704 -1167h7v1073l-187 29v65h457v-63l-164 -29v-1327h-119l-780 1296h-6v-1204l192 -29v-63h-481z" />
<glyph unicode="O" horiz-adv-x="1394" d="M72 711q0 145 33.5 266t92 206t138 144t171 87t191.5 28q133 0 246 -48t196.5 -138t131 -229t47.5 -312q0 -145 -33.5 -267.5t-92 -208t-138 -145.5t-170.5 -88.5t-191 -28.5q-133 0 -246.5 49t-197 140t-131 231t-47.5 314zM223 725q0 -315 120 -487t353 -172 q221 0 346 168.5t125 459.5q0 325 -124.5 493.5t-350.5 168.5q-222 0 -345.5 -169t-123.5 -462z" />
<glyph unicode="P" horiz-adv-x="1116" d="M47 0v66l180 26v1235l-180 27v65h535q138 0 235.5 -26.5t155 -79t83 -122.5t25.5 -165q0 -104 -33.5 -182.5t-94 -125.5t-139 -70t-173.5 -23q-101 0 -162 16v68q56 -9 142 -9q153 0 232 79.5t79 236.5q0 164 -76 237.5t-256 73.5h-229v-1235l211 -26v-66h-535z" />
<glyph unicode="Q" horiz-adv-x="1394" d="M72 711q0 145 33.5 266t92 206t138 144t171 87t191.5 28q133 0 246 -48t196.5 -138t131 -229t47.5 -312q0 -155 -38 -281.5t-105.5 -212t-155 -138.5t-191.5 -73v-4l547 -112l-33 -127l-796 225q-77 21 -144 56t-129 94.5t-106 137.5t-70 188.5t-26 242.5zM223 725 q0 -315 120 -487t353 -172q221 0 346 168.5t125 459.5q0 325 -124.5 493.5t-350.5 168.5q-222 0 -345.5 -169t-123.5 -462z" />
<glyph unicode="R" horiz-adv-x="1275" d="M47 0v66l184 26v1235l-180 27v65h567q248 0 362 -96.5t114 -280.5q0 -144 -81.5 -233t-226.5 -123v-8l344 -586l150 -29v-63h-258l-375 653h-272v-561l178 -26v-66h-506zM375 735h252q164 0 240.5 83t76.5 220q0 151 -74 220t-256 69h-239v-592z" />
<glyph unicode="S" horiz-adv-x="1060" d="M94 354h76l47 -217q138 -69 295 -69q169 0 252.5 76t83.5 200t-64 188.5t-225 124.5l-129 52q-150 57 -228.5 144t-78.5 232q0 75 26 138.5t77 113.5t136.5 78.5t196.5 28.5q185 0 342 -58l12 -280h-73l-41 190q-108 58 -250 58q-146 0 -223.5 -62t-77.5 -178 q0 -102 58 -166t196 -117l129 -51q69 -26 118 -50t95.5 -58.5t74.5 -74t45 -95t17 -123.5q0 -83 -27 -154t-82.5 -127.5t-149.5 -88.5t-218 -32q-217 0 -395 76z" />
<glyph unicode="T" horiz-adv-x="1191" d="M25 1049l20 370h1104l18 -370h-73l-58 284h-368v-1241l192 -26v-66h-528v66l192 26v1241h-368l-58 -284h-73z" />
<glyph unicode="U" horiz-adv-x="1384" d="M18 1354v65h506v-65l-186 -27v-870q0 -385 387 -385q190 0 284.5 94t94.5 291v870l-182 27v65h448v-65l-162 -27v-878q0 -225 -128 -349.5t-371 -124.5q-251 0 -382.5 121t-131.5 340v891z" />
<glyph unicode="V" horiz-adv-x="1300" d="M4 1354v65h455v-65l-172 -27l385 -1139h8l389 1139l-170 27v65h412v-65l-133 -27l-465 -1327h-113l-465 1327z" />
<glyph unicode="W" horiz-adv-x="1882" d="M8 1354v65h432v-65l-164 -27l285 -1106h6l340 1198h88l340 -1198h6l281 1106l-164 27v65h408v-65l-135 -27l-349 -1327h-116l-326 1169h-6l-336 -1169h-117l-348 1327z" />
<glyph unicode="X" horiz-adv-x="1374" d="M43 0v66l152 26l413 639l-379 596l-155 27v65h479v-65l-160 -27l314 -508l313 508l-166 27v65h432v-65l-153 -27l-371 -588l416 -647l153 -26v-66h-473v66l162 26l-358 561l-355 -561l166 -29v-63h-430z" />
<glyph unicode="Y" horiz-adv-x="1236" d="M8 1354v65h434v-65l-153 -27l358 -602h6l344 602l-159 27v65h391v-65l-125 -27l-406 -694v-541l179 -26v-66h-504v66l182 26v543l-420 692z" />
<glyph unicode="Z" horiz-adv-x="1093" d="M35 0v72l844 1251v8h-662l-61 -282h-76l16 370h957v-71l-846 -1252v-8h706l66 279h76l-19 -367h-1001z" />
<glyph unicode="[" horiz-adv-x="608" d="M141 -246v1747h396v-63l-265 -27v-1565l265 -26v-66h-396z" />
<glyph unicode="\" horiz-adv-x="661" d="M57 1501h101l491 -1747h-100z" />
<glyph unicode="]" horiz-adv-x="608" d="M72 -180l264 26v1565l-264 27v63h393v-1747h-393v66z" />
<glyph unicode="^" horiz-adv-x="774" d="M51 948l293 471h86l291 -471h-82l-252 346l-252 -346h-84z" />
<glyph unicode="_" horiz-adv-x="622" d="M-18 -164h663v-82h-663v82z" />
<glyph unicode="`" d="M281 1348l65 104l340 -235l-31 -54z" />
<glyph unicode="a" horiz-adv-x="956" d="M49 260q0 127 82.5 192.5t237.5 90.5l284 45v135q0 69 -9 111t-35.5 71.5t-71.5 41t-119 11.5q-141 0 -289 -36v71q165 72 342 72q163 0 239 -74t76 -231v-606q0 -54 25.5 -73.5t77.5 -19.5q44 0 59 5v-56q-50 -26 -135 -26q-130 0 -145 116h-9q-116 -123 -294 -123 q-143 0 -229.5 76.5t-86.5 206.5zM186 274q0 -98 56.5 -150t167.5 -52q71 0 137 29t106 73v320l-243 -19q-120 -9 -172 -59t-52 -142z" />
<glyph unicode="b" horiz-adv-x="1087" d="M-29 1425v60l275 35l18 -9v-567h8q165 121 340 121q66 0 123 -14.5t111 -50.5t92.5 -92t62 -146t23.5 -205q0 -283 -136.5 -430t-375.5 -147q-209 0 -375 83v1338zM268 137q110 -74 260 -74q357 0 357 467q0 119 -23.5 204t-69 133t-104 69.5t-135.5 21.5 q-137 0 -285 -84v-737z" />
<glyph unicode="c" horiz-adv-x="923" d="M57 516q0 143 41.5 251t115.5 171.5t166 95t202 31.5q150 0 274 -43v-250h-80l-28 180q-70 27 -183 27q-170 0 -269 -111.5t-99 -335.5q0 -454 393 -454q170 0 289 63v-73q-133 -88 -324 -88q-240 0 -369 143t-129 393z" />
<glyph unicode="d" horiz-adv-x="1146" d="M66 502q0 142 37 250.5t105.5 176.5t161.5 102t208 34q112 0 241 -47v383l-180 24v60l295 35l16 -9v-1413l160 -24v-56l-266 -34l-17 10v112h-10q-129 -126 -315 -126q-65 0 -125 15.5t-117.5 53.5t-99.5 95.5t-68 149.5t-26 208zM203 520q0 -232 87 -334t251 -102 q131 0 278 92v725q-57 38 -112 58t-144 20q-360 0 -360 -459z" />
<glyph unicode="e" horiz-adv-x="991" d="M57 528q0 247 131 392t330 145q208 0 312 -136.5t104 -387.5h-739q3 -463 383 -463q72 0 134.5 10.5t97 22t81.5 30.5v-69q-156 -92 -338 -92q-132 0 -229.5 41t-155 116.5t-84.5 172.5t-27 218zM197 618l589 13q-3 350 -276 350q-140 0 -221.5 -93.5t-91.5 -269.5z" />
<glyph unicode="f" horiz-adv-x="606" d="M35 0v55l158 25v874h-156v56l156 37v139q0 176 87.5 258t231.5 82q105 0 182 -41v-70q-82 19 -145 19q-112 0 -168.5 -56.5t-56.5 -199.5v-131h268v-93h-268v-874l186 -25v-55h-475z" />
<glyph unicode="g" horiz-adv-x="1001" d="M18 -158q0 158 211 252v8q-53 16 -84.5 53t-31.5 91q0 101 120 205q-137 90 -137 264q0 161 108.5 254.5t278.5 93.5q97 0 176 -29l306 29v-102l-207 8q114 -86 114 -236q0 -160 -110.5 -254t-280.5 -94q-111 0 -192 37q-68 -65 -68 -133q0 -36 27 -60t76 -24h329 q147 0 232.5 -60t85.5 -190q0 -75 -33 -140.5t-96.5 -117.5t-166.5 -82.5t-233 -30.5q-209 0 -316.5 76t-107.5 182zM147 -133q0 -89 74.5 -142t233.5 -53q199 0 296 73t97 179q0 84 -51.5 121t-163.5 37h-322q-74 -33 -119 -89.5t-45 -125.5zM229 727q0 -129 67.5 -195.5 t184.5 -66.5q118 0 188 68t70 190q0 126 -70.5 193t-187.5 67q-118 0 -185 -67t-67 -189z" />
<glyph unicode="h" horiz-adv-x="1169" d="M23 1430v59l276 35l16 -8v-568h9q206 117 374 117q148 0 220.5 -66t72.5 -211v-708l160 -25v-55h-451v55l160 25v672q0 111 -55 158.5t-176 47.5q-134 0 -310 -79v-799l160 -25v-55h-450v55l159 25v1325z" />
<glyph unicode="i" horiz-adv-x="512" d="M20 961v61l287 35l17 -8v-969l161 -25v-55h-454v55l159 25v858zM160 1356q0 37 25.5 62.5t62.5 25.5q38 0 63 -25.5t25 -62.5q0 -35 -25.5 -60.5t-62.5 -25.5q-36 0 -62 26t-26 60z" />
<glyph unicode="j" horiz-adv-x="493" d="M-78 -309q62 -8 96 -8q86 0 134.5 46.5t48.5 157.5v1051l-170 23v61l286 35l17 -8v-1176q0 -132 -72.5 -203t-204.5 -71q-62 0 -135 26v66zM170 1356q0 37 25.5 62.5t62.5 25.5q38 0 63 -25.5t25 -62.5q0 -35 -25.5 -60.5t-62.5 -25.5q-36 0 -62 26t-26 60z" />
<glyph unicode="k" horiz-adv-x="1044" d="M23 1427v62l280 35l16 -11v-1435l166 -23v-55h-456v55l159 23v1327zM399 530v25l353 410l-127 22v60h376v-60l-137 -22l-346 -383l383 -502l143 -25v-55h-239z" />
<glyph unicode="l" horiz-adv-x="512" d="M14 1427v62l293 35l17 -11v-1433l161 -25v-55h-456v55l161 25v1325z" />
<glyph unicode="m" horiz-adv-x="1785" d="M27 0v55l159 25v858l-159 23v61l268 35l16 -8v-99h8q97 57 181 86t184 29q182 0 248 -125h8q204 125 381 125q278 0 278 -281v-704l162 -25v-55h-452v55l159 25v670q0 111 -54 159.5t-167 48.5q-129 0 -297 -77q8 -46 8 -97v-704l160 -25v-55h-450v55l159 25v668 q0 112 -52 161t-161 49q-82 0 -146 -18.5t-151 -58.5v-801l160 -25v-55h-450z" />
<glyph unicode="n" horiz-adv-x="1171" d="M27 0v55l159 25v858l-159 23v61l268 35l16 -8v-103h8q200 119 377 119q148 0 220.5 -66t72.5 -211v-708l160 -25v-55h-451v55l160 25v672q0 111 -55 158.5t-176 47.5q-134 0 -310 -79v-799l160 -25v-55h-450z" />
<glyph unicode="o" horiz-adv-x="1085" d="M57 516q0 124 39 228.5t105.5 174t155 108t186.5 38.5q210 0 348.5 -146t138.5 -393q0 -124 -39 -228.5t-106 -174t-154.5 -108t-185.5 -38.5q-103 0 -192 37t-155 104.5t-103.5 170t-37.5 227.5zM197 526q0 -119 29 -210.5t79 -145.5t111 -80.5t131 -26.5 q69 0 128.5 25.5t109 77t78 141t28.5 207.5q0 121 -29 213t-79.5 145.5t-111.5 80t-130 26.5t-129 -25.5t-109 -78t-77.5 -142t-28.5 -207.5z" />
<glyph unicode="p" horiz-adv-x="1134" d="M23 961v61l270 35l14 -8v-107h10q162 123 342 123q66 0 123 -14t111 -50t92 -92.5t61 -146t23 -205.5q0 -286 -135 -431.5t-371 -145.5q-136 0 -248 34v-338l179 -24v-55h-467v55l157 20v1266zM315 131q38 -22 66 -34t81 -23t118 -11q352 0 352 467q0 119 -23.5 203 t-68.5 132.5t-104.5 70.5t-137.5 22q-131 0 -283 -84v-743z" />
<glyph unicode="q" horiz-adv-x="1107" d="M66 492q0 281 135.5 426t369.5 145q202 0 381 -68v-1323l158 -20v-55h-469v55l180 22v426h-10q-78 -58 -151 -89t-171 -31q-65 0 -123.5 15t-114.5 52t-96 93.5t-64.5 147t-24.5 204.5zM203 518q0 -120 23 -205t68.5 -134.5t105 -72t139.5 -22.5q136 0 280 90v735 q-35 22 -63 34.5t-81 24t-118 11.5q-354 0 -354 -461z" />
<glyph unicode="r" horiz-adv-x="702" d="M27 0v55l159 25v858l-159 23v61l268 35l16 -8v-138h8q131 150 291 150q40 0 60 -8v-117q-35 6 -76 6q-155 0 -277 -104v-758l175 -25v-55h-465z" />
<glyph unicode="s" horiz-adv-x="849" d="M63 291h76l41 -176q102 -54 228 -54q121 0 186 49t65 140q0 87 -44.5 129.5t-161.5 77.5l-125 39q-124 36 -187 103.5t-63 176.5q0 125 93.5 206t260.5 81q171 0 291 -43l4 -240h-72l-39 156q-71 43 -196 43q-104 0 -163.5 -43t-59.5 -129q0 -76 44.5 -120t159.5 -79 l125 -37q136 -42 197 -108t61 -180q0 -136 -99.5 -221t-287.5 -85q-153 0 -317 58z" />
<glyph unicode="t" horiz-adv-x="661" d="M27 954v56l161 37l25 247h98v-247h287v-93h-287v-702q0 -96 38.5 -136t131.5 -40q68 0 140 20v-59q-35 -22 -88 -37.5t-105 -15.5q-124 0 -186 55.5t-62 185.5v729h-153z" />
<glyph unicode="u" horiz-adv-x="1165" d="M14 971v61l275 25l16 -10v-740q0 -117 50 -170t173 -53q89 0 160 21.5t152 60.5v782l-156 23v61l270 25l17 -10v-949l159 -24v-56l-266 -34l-16 10v112h-10q-166 -124 -369 -124q-295 0 -295 297v669z" />
<glyph unicode="v" horiz-adv-x="1077" d="M2 987v60h395v-60l-139 -18l301 -815h8l301 815l-141 18v60h350v-60l-114 -22l-369 -965h-107l-370 965z" />
<glyph unicode="w" horiz-adv-x="1564" d="M2 987v60h385v-60l-139 -22l229 -777h6l279 859h88l276 -859h7l225 777l-137 22v60h350v-60l-115 -22l-293 -965h-100l-268 846h-4l-283 -846h-100l-291 965z" />
<glyph unicode="x" horiz-adv-x="1056" d="M20 0v55l121 23l308 444l-304 443l-118 22v60h401v-60l-133 -20l250 -369h4l246 369l-140 20v60h357v-60l-115 -22l-299 -422l313 -465l121 -23v-55h-405v55l139 19l-260 387h-4l-260 -387l141 -19v-55h-363z" />
<glyph unicode="y" horiz-adv-x="1071" d="M2 987v60h406v-60l-148 -20l305 -772h6l281 770l-143 22v60h364v-60l-117 -22l-432 -1131q-45 -122 -106 -179.5t-170 -57.5q-75 0 -137 30v80q69 -16 104 -16q87 0 134 41.5t85 134.5l66 164l-383 934z" />
<glyph unicode="z" horiz-adv-x="940" d="M57 0v74l656 887v8h-502l-45 -217h-72l12 295h760v-74l-653 -889v-6h520l55 239h74l-20 -317h-785z" />
<glyph unicode="{" horiz-adv-x="727" d="M66 578v100q65 8 111 20.5t72 26.5t40 34.5t18 39.5t4 47q0 48 -30.5 196t-30.5 209q0 57 19 99t64 76t125.5 52.5t196.5 22.5v-65q-159 -21 -213.5 -55t-54.5 -121q0 -48 26.5 -188t26.5 -204q0 -35 -3.5 -58t-18 -52.5t-41.5 -49.5t-76.5 -40.5t-120.5 -34.5v-10 q71 -14 120.5 -34.5t76.5 -41t41.5 -50t18 -52.5t3.5 -58q0 -64 -26.5 -203.5t-26.5 -187.5q0 -87 54.5 -121t213.5 -55v-66q-116 4 -196.5 22.5t-125.5 52.5t-64 76t-19 99q0 61 30.5 209.5t30.5 196.5q0 35 -7.5 58t-31 46.5t-74.5 39t-132 24.5z" />
<glyph unicode="|" horiz-adv-x="419" d="M164 -246v1747h92v-1747h-92z" />
<glyph unicode="}" horiz-adv-x="727" d="M72 -180q158 21 212 55t54 121q0 48 -25.5 187.5t-25.5 203.5q0 35 3 58t17.5 52.5t41.5 50t77 41t121 34.5v10q-88 18 -143.5 42.5t-79.5 58t-30.5 61.5t-6.5 73q0 64 25.5 204t25.5 188q0 87 -54 121t-212 55v65q116 -4 195.5 -22.5t124.5 -52t64 -76t19 -99.5 q0 -61 -30.5 -209t-30.5 -196q0 -35 7.5 -58t31.5 -46.5t75.5 -39t133.5 -24.5v-100q-82 -10 -133.5 -25.5t-75.5 -38.5t-31.5 -46t-7.5 -58q0 -48 30.5 -196.5t30.5 -209.5q0 -57 -19 -99.5t-64 -76t-124.5 -52t-195.5 -22.5v66z" />
<glyph unicode="~" horiz-adv-x="778" d="M49 528q41 102 92.5 147.5t126.5 45.5q52 0 138.5 -45t119.5 -45q43 0 77.5 26t66.5 84l65 -30q-40 -101 -91.5 -146t-125.5 -45q-52 0 -138.5 45t-119.5 45q-43 0 -77 -26.5t-66 -85.5z" />
<glyph unicode="&#xa1;" horiz-adv-x="452" d="M137 1104q0 37 27.5 64.5t66.5 27.5q38 0 65.5 -27.5t27.5 -64.5q0 -38 -27.5 -65t-65.5 -27q-40 0 -67 27t-27 65zM156 -246l37 1055h79l35 -1055h-151z" />
<glyph unicode="&#xa2;" horiz-adv-x="923" d="M57 516q0 136 39 241.5t108 170.5t156.5 99t190.5 38l16 131h88l-16 -133q115 -6 217 -43v-248h-80l-28 182q-51 18 -117 23l-101 -897q18 -2 60 -2q172 0 291 63v-71q-136 -90 -326 -90q-25 0 -35 2l-24 -226h-90l26 236q-182 33 -278.5 170.5t-96.5 353.5zM195 532 q0 -363 249 -436l99 883q-161 -8 -254.5 -121t-93.5 -326z" />
<glyph unicode="&#xa3;" horiz-adv-x="1054" d="M70 0v76q100 60 146 147t46 232v209h-147v92h147v237q0 117 36.5 206t98 140.5t135 77t156.5 25.5q103 0 166.5 -19.5t122.5 -58.5v-78q-117 49 -252 49q-317 0 -324 -346l-6 -233h398v-92h-400l-4 -175q-3 -136 -39 -216t-108 -146v-4h747l-14 -123h-905z" />
<glyph unicode="&#xa4;" horiz-adv-x="1226" d="M47 530v82h154q0 13 -1 41.5t-1 44.5q0 53 2 80h-154v82h160q18 158 74.5 274t139 181.5t176.5 96t202 30.5q161 0 315 -53l10 -306h-67l-62 228q-88 45 -213 45q-184 0 -297 -124t-139 -372h483v-82h-489v-55q0 -76 2 -111h487v-82h-479q28 -243 140 -348.5t313 -105.5 q167 0 332 76v-74q-150 -101 -355 -101q-241 0 -390 133t-183 420h-160z" />
<glyph unicode="&#xa5;" horiz-adv-x="1171" d="M12 1354v65h426v-65l-153 -27l344 -563h6l323 563l-159 27v65h375v-65l-111 -27l-348 -586h323v-82h-360v-165h360v-82h-360v-320l182 -26v-66h-506v66l183 26v320h-361v82h361v165h-361v82h320l-365 586z" />
<glyph unicode="&#xa6;" horiz-adv-x="423" d="M164 -246v817h94v-817h-94zM164 760v741h94v-741h-94z" />
<glyph unicode="&#xa7;" horiz-adv-x="991" d="M55 616q0 101 68 171.5t186 105.5q-141 87 -141 254q0 132 97.5 213.5t264.5 81.5q146 0 279 -45v-230h-70l-34 152q-80 39 -187 39q-103 0 -167 -47.5t-64 -136.5q0 -82 41.5 -131t142.5 -87l170 -65q149 -58 223 -124.5t74 -178.5q0 -105 -66 -178t-186 -107 q172 -99 172 -262q0 -132 -100 -218.5t-275 -86.5q-103 0 -175 15t-152 44l-17 250h74l47 -172q34 -17 59 -26.5t70 -18t98 -8.5q107 0 176.5 50t69.5 140q0 82 -49.5 135.5t-155.5 94.5l-178 67q-145 57 -220 127t-75 182zM182 641q0 -44 15.5 -77.5t49 -60.5t73.5 -47.5 t102 -43.5l156 -60q103 16 168 70.5t65 138.5q0 36 -12 65.5t-30 50.5t-52 41t-66 34t-84 34l-161 60q-96 -16 -160 -70.5t-64 -134.5z" />
<glyph unicode="&#xa8;" d="M264 1270q0 34 25.5 59t60.5 25q36 0 61 -25t25 -59t-25 -60t-61 -26q-35 0 -60.5 26t-25.5 60zM575 1270q0 34 26 59t61 25q36 0 61 -25t25 -59t-25 -60t-61 -26q-35 0 -61 26t-26 60z" />
<glyph unicode="&#xa9;" horiz-adv-x="1609" d="M80 705q0 149 55.5 283.5t151 232.5t230 155.5t286.5 57.5q151 0 286.5 -57.5t232.5 -155.5t153.5 -232.5t56.5 -283.5q0 -199 -96 -367t-264 -266.5t-369 -98.5q-202 0 -368.5 98.5t-260.5 266.5t-94 367zM164 705q0 -183 80 -334t227.5 -240.5t331.5 -89.5 q138 0 258.5 52.5t204.5 142t132 211.5t48 258q0 137 -48 259.5t-132 211.5t-204.5 141.5t-258.5 52.5t-258 -52t-203 -141.5t-130.5 -212t-47.5 -259.5zM451 700q0 198 108.5 298t276.5 100q104 0 217 -31l10 -193h-57l-41 132q-54 26 -138 26q-121 0 -184 -81.5 t-63 -235.5q0 -328 251 -328q88 0 136 23l43 151h61l-14 -201q-120 -38 -234 -38q-170 0 -271 96.5t-101 281.5z" />
<glyph unicode="&#xab;" horiz-adv-x="788" d="M86 492v51l215 370h92l-184 -395l184 -397h-92zM393 492v51l215 370h90l-182 -395l182 -397h-90z" />
<glyph unicode="&#xad;" horiz-adv-x="573" d="M74 518v115h426v-115h-426z" />
<glyph unicode="&#xae;" horiz-adv-x="1609" d="M80 705q0 149 55.5 283.5t151 232.5t230 155.5t286.5 57.5q151 0 286.5 -57.5t232.5 -155.5t153.5 -232.5t56.5 -283.5q0 -199 -96 -367t-264 -266.5t-369 -98.5q-202 0 -368.5 98.5t-260.5 266.5t-94 367zM164 705q0 -183 80 -334t227.5 -240.5t331.5 -89.5 q138 0 258.5 52.5t204.5 142t132 211.5t48 258q0 137 -48 259.5t-132 211.5t-204.5 141.5t-258.5 52.5t-258 -52t-203 -141.5t-130.5 -212t-47.5 -259.5zM485 332v53l93 16v615l-91 14v53h330q131 0 204 -51t73 -151q0 -83 -45 -131t-121 -62v-8l172 -279l90 -16v-53h-176 l-199 332h-121v-263l92 -16v-53h-301zM694 731h131q152 0 152 143q0 76 -38.5 109t-125.5 33h-119v-285z" />
<glyph unicode="&#xaf;" d="M264 1278v92h471v-92h-471z" />
<glyph unicode="&#xb0;" horiz-adv-x="657" d="M59 1174q0 109 78.5 188.5t194.5 79.5t194 -79.5t78 -188.5q0 -112 -77.5 -191.5t-194.5 -79.5t-195 79.5t-78 191.5zM145 1174q0 -85 51 -144t136 -59t135.5 59t50.5 144q0 83 -50.5 141.5t-135.5 58.5t-136 -58.5t-51 -141.5z" />
<glyph unicode="&#xb2;" horiz-adv-x="645" d="M29 588v65l215 209q98 95 147 169t49 151q0 172 -186 172q-74 0 -193 -45v63q115 68 236 68q125 0 194.5 -63t69.5 -181q0 -92 -63 -181t-191 -198l-160 -135v-2h342l41 111h60l-15 -203h-546z" />
<glyph unicode="&#xb3;" horiz-adv-x="649" d="M45 633v59q105 -37 207 -37q101 0 155 44t54 126q0 87 -49 126.5t-150 39.5h-72v72h64q87 0 133.5 38t46.5 111q0 148 -176 148q-95 0 -180 -31v60q104 51 213 51q122 0 190 -53.5t68 -153.5q0 -74 -42.5 -125t-115.5 -72v-4q85 -15 138 -67.5t53 -145.5 q0 -113 -79.5 -178.5t-219.5 -65.5q-135 0 -238 58z" />
<glyph unicode="&#xb4;" d="M313 1217l340 235l66 -104l-375 -185z" />
<glyph unicode="&#xb6;" horiz-adv-x="1134" d="M100 1069q0 172 111.5 261t361.5 89h557v-65l-159 -27v-1573h-97v1581h-153v-1581h-96v961q-65 -10 -119 -10q-85 0 -157 22t-128.5 65t-88.5 114t-32 163z" />
<glyph unicode="&#xb7;" horiz-adv-x="372" d="M90 653q0 42 29 71.5t69 29.5t68.5 -29.5t28.5 -71.5t-28.5 -70t-68.5 -28t-69 28t-29 70z" />
<glyph unicode="&#xb8;" d="M424 -360q123 17 171 41.5t48 68.5q0 40 -40 57t-134 17v176h74v-100q105 -3 161 -39t56 -103q0 -158 -336 -180v62z" />
<glyph unicode="&#xb9;" horiz-adv-x="522" d="M68 1288v55l223 93h43v-774l131 -17v-57h-383v57l135 17v655z" />
<glyph unicode="&#xbb;" horiz-adv-x="788" d="M90 121l184 395l-184 397h92l215 -370v-51l-215 -371h-92zM397 121l183 395l-183 397h92l213 -370v-51l-213 -371h-92z" />
<glyph unicode="&#xbc;" horiz-adv-x="1581" d="M68 1288v55l223 93h43v-774l131 -17v-57h-383v57l135 17v655zM219 -82l1002 1542h106l-1001 -1542h-107zM924 244v65l407 527h94v-519h136v-73h-136v-172l119 -17v-55h-352v55l123 17v172h-391zM1018 317h297v381h-4l-293 -379v-2z" />
<glyph unicode="&#xbd;" horiz-adv-x="1624" d="M68 1288v55l223 93h43v-774l131 -17v-57h-383v57l135 17v655zM209 -82l1001 1542h109l-1002 -1542h-108zM1012 0v63l217 211q99 96 147.5 168.5t48.5 151.5q0 170 -188 170q-89 0 -193 -45v65q111 66 236 66t194.5 -62.5t69.5 -179.5q0 -93 -63.5 -182.5t-190.5 -196.5 l-160 -137v-2h345l38 111h60l-14 -201h-547z" />
<glyph unicode="&#xbe;" horiz-adv-x="1662" d="M45 633v59q105 -37 207 -37q101 0 155 44t54 126q0 87 -49 126.5t-150 39.5h-72v72h64q87 0 133.5 38t46.5 111q0 148 -176 148q-95 0 -180 -31v60q104 51 213 51q122 0 190 -53.5t68 -153.5q0 -74 -42.5 -125t-115.5 -72v-4q85 -15 138 -67.5t53 -145.5 q0 -113 -79.5 -178.5t-219.5 -65.5q-135 0 -238 58zM311 -82l1002 1542h106l-1001 -1542h-107zM1004 244v65l409 527h94v-519h133v-73h-133v-172l117 -17v-55h-350v55l123 17v172h-393zM1098 317h299v381h-6l-293 -379v-2z" />
<glyph unicode="&#xbf;" horiz-adv-x="811" d="M70 78q0 66 14.5 117t48.5 94t74.5 76.5t105.5 76.5q90 59 128 101.5t38 109.5q0 69 -24 158h75q39 -93 39 -176q0 -43 -11.5 -77t-40 -67t-60.5 -59t-90 -67q-84 -60 -125 -124.5t-41 -158.5q0 -133 76.5 -193.5t205.5 -60.5q82 0 141 11.5t136 39.5v-76 q-151 -71 -316 -71q-77 0 -141.5 18t-118 57t-84 108t-30.5 163zM395 1104q0 37 28 64.5t66 27.5t65.5 -27.5t27.5 -64.5q0 -38 -27.5 -65t-65.5 -27t-66 27t-28 65z" />
<glyph unicode="&#xc0;" horiz-adv-x="1310" d="M-6 0v66l137 28l469 1325h119l463 -1325l137 -28v-66h-459v66l170 26l-125 371h-538l-129 -371l172 -26v-66h-416zM395 545h482l-234 692h-8zM436 1710l66 105l340 -236l-31 -53z" />
<glyph unicode="&#xc1;" horiz-adv-x="1310" d="M-6 0v66l137 28l469 1325h119l463 -1325l137 -28v-66h-459v66l170 26l-125 371h-538l-129 -371l172 -26v-66h-416zM395 545h482l-234 692h-8zM469 1579l340 236l65 -105l-374 -184z" />
<glyph unicode="&#xc2;" horiz-adv-x="1310" d="M-6 0v66l137 28l469 1325h119l463 -1325l137 -28v-66h-459v66l170 26l-125 371h-538l-129 -371l172 -26v-66h-416zM395 545h482l-234 692h-8zM395 1569l228 233h69l228 -233l-33 -43l-230 164l-229 -164z" />
<glyph unicode="&#xc3;" horiz-adv-x="1310" d="M-6 0v66l137 28l469 1325h119l463 -1325l137 -28v-66h-459v66l170 26l-125 371h-538l-129 -371l172 -26v-66h-416zM373 1602q63 161 176 161q44 0 117 -34.5t100 -34.5q32 0 57 19t51 65l62 -27q-64 -162 -176 -162q-44 0 -117 35t-100 35q-32 0 -57.5 -20t-51.5 -66z M395 545h482l-234 692h-8z" />
<glyph unicode="&#xc4;" horiz-adv-x="1310" d="M-6 0v66l137 28l469 1325h119l463 -1325l137 -28v-66h-459v66l170 26l-125 371h-538l-129 -371l172 -26v-66h-416zM395 545h482l-234 692h-8zM430 1632q0 34 25.5 59t60.5 25q36 0 61 -25t25 -59t-25 -60t-61 -26q-35 0 -60.5 26t-25.5 60zM741 1632q0 34 25.5 59 t60.5 25q36 0 61 -25t25 -59t-25 -60t-61 -26q-35 0 -60.5 26t-25.5 60z" />
<glyph unicode="&#xc5;" horiz-adv-x="1310" d="M-6 0v66l137 28l469 1325h119l463 -1325l137 -28v-66h-459v66l170 26l-125 371h-538l-129 -371l172 -26v-66h-416zM395 545h482l-234 692h-8zM483 1692q0 71 50 120.5t126 49.5t126.5 -49.5t50.5 -120.5q0 -70 -51 -120t-126 -50t-125.5 50t-50.5 120zM555 1692 q0 -46 28.5 -76.5t75.5 -30.5t76 30.5t29 76.5t-29 77t-76 31t-75.5 -30.5t-28.5 -77.5z" />
<glyph unicode="&#xc6;" horiz-adv-x="1873" d="M2 0v68l127 26l713 1243l-164 17v65h1087l21 -334h-74l-65 248h-560v-561h312l39 195h69v-473h-69l-39 196h-312v-604h584l80 295h74l-23 -381h-1038v66l182 26v361h-504l-204 -359l161 -28v-66h-397zM487 532h459v795h-6z" />
<glyph unicode="&#xc7;" horiz-adv-x="1232" d="M72 700q0 157 34 282.5t93.5 211t144 142.5t182.5 82.5t213 25.5q226 0 389 -60l13 -325h-74l-61 239q-118 58 -279 58q-251 0 -377.5 -163t-126.5 -466q0 -327 126 -494t390 -167q151 0 277 61l61 254h76l-12 -332q-177 -74 -416 -74q-29 0 -43 2v-77q105 -3 161 -39 t56 -103q0 -158 -336 -180v62q123 17 171 41.5t48 68.5q0 40 -40 57t-134 17v160q-259 30 -397.5 208t-138.5 508z" />
<glyph unicode="&#xc8;" horiz-adv-x="1179" d="M47 0v66l182 26v1235l-180 27v65h1022l21 -334h-74l-66 248h-579v-561h332l38 195h70v-473h-70l-38 196h-332v-604h604l80 295h73l-22 -381h-1061zM381 1710l65 105l340 -236l-30 -53z" />
<glyph unicode="&#xc9;" horiz-adv-x="1179" d="M47 0v66l182 26v1235l-180 27v65h1022l21 -334h-74l-66 248h-579v-561h332l38 195h70v-473h-70l-38 196h-332v-604h604l80 295h73l-22 -381h-1061zM422 1579l340 236l65 -105l-374 -184z" />
<glyph unicode="&#xca;" horiz-adv-x="1179" d="M47 0v66l182 26v1235l-180 27v65h1022l21 -334h-74l-66 248h-579v-561h332l38 195h70v-473h-70l-38 196h-332v-604h604l80 295h73l-22 -381h-1061zM342 1569l227 233h70l227 -233l-32 -43l-230 164l-229 -164z" />
<glyph unicode="&#xcb;" horiz-adv-x="1179" d="M47 0v66l182 26v1235l-180 27v65h1022l21 -334h-74l-66 248h-579v-561h332l38 195h70v-473h-70l-38 196h-332v-604h604l80 295h73l-22 -381h-1061zM381 1632q0 34 25.5 59t60.5 25q36 0 61 -25t25 -59t-25 -60t-61 -26q-35 0 -60.5 26t-25.5 60zM692 1632q0 34 25.5 59 t60.5 25q36 0 61 -25t25 -59t-25 -60t-61 -26q-35 0 -60.5 26t-25.5 60z" />
<glyph unicode="&#xcc;" horiz-adv-x="604" d="M47 0v66l184 26v1235l-184 27v65h510v-65l-182 -27v-1235l182 -26v-66h-510zM88 1710l66 105l340 -236l-31 -53z" />
<glyph unicode="&#xcd;" horiz-adv-x="604" d="M47 0v66l184 26v1235l-184 27v65h510v-65l-182 -27v-1235l182 -26v-66h-510zM121 1579l340 236l65 -105l-374 -184z" />
<glyph unicode="&#xce;" horiz-adv-x="604" d="M41 0v66l184 26v1235l-184 27v65h510v-65l-182 -27v-1235l182 -26v-66h-510zM41 1569l227 233h70l227 -233l-33 -43l-229 164l-229 -164z" />
<glyph unicode="&#xcf;" horiz-adv-x="604" d="M47 0v66l184 26v1235l-184 27v65h510v-65l-182 -27v-1235l182 -26v-66h-510zM82 1632q0 34 25.5 59t60.5 25q36 0 61 -25t25 -59t-25 -60t-61 -26q-35 0 -60.5 26t-25.5 60zM393 1632q0 34 25.5 59t60.5 25q36 0 61 -25t25 -59t-25 -60t-61 -26q-35 0 -60.5 26t-25.5 60z " />
<glyph unicode="&#xd0;" horiz-adv-x="1357" d="M43 0v66l182 26v576h-174v92h174v567l-180 27v65h541q189 0 323.5 -45t216 -134.5t119 -213t37.5 -291.5q0 -363 -162 -549t-514 -186h-563zM369 86h237q182 0 295 60.5t171 199.5t58 369q0 126 -15.5 221.5t-48 163.5t-77.5 113.5t-110.5 72t-139 37t-170.5 10.5h-200 v-573h372v-92h-372v-582z" />
<glyph unicode="&#xd1;" horiz-adv-x="1439" d="M47 0v63l182 29v1235l-182 27v65h377l704 -1167h7v1073l-187 29v65h457v-63l-164 -29v-1327h-119l-780 1296h-6v-1204l192 -29v-63h-481zM438 1602q63 161 176 161q44 0 117 -34.5t100 -34.5q32 0 57.5 19.5t51.5 64.5l61 -27q-64 -162 -176 -162q-44 0 -117 35t-100 35 q-32 0 -57 -20t-51 -66z" />
<glyph unicode="&#xd2;" horiz-adv-x="1394" d="M72 711q0 145 33.5 266t92 206t138 144t171 87t191.5 28q133 0 246 -48t196.5 -138t131 -229t47.5 -312q0 -145 -33.5 -267.5t-92 -208t-138 -145.5t-170.5 -88.5t-191 -28.5q-133 0 -246.5 49t-197 140t-131 231t-47.5 314zM223 725q0 -315 120 -487t353 -172 q221 0 346 168.5t125 459.5q0 325 -124.5 493.5t-350.5 168.5q-222 0 -345.5 -169t-123.5 -462zM481 1710l66 105l340 -236l-31 -53z" />
<glyph unicode="&#xd3;" horiz-adv-x="1394" d="M72 711q0 145 33.5 266t92 206t138 144t171 87t191.5 28q133 0 246 -48t196.5 -138t131 -229t47.5 -312q0 -145 -33.5 -267.5t-92 -208t-138 -145.5t-170.5 -88.5t-191 -28.5q-133 0 -246.5 49t-197 140t-131 231t-47.5 314zM223 725q0 -315 120 -487t353 -172 q221 0 346 168.5t125 459.5q0 325 -124.5 493.5t-350.5 168.5q-222 0 -345.5 -169t-123.5 -462zM514 1579l340 236l66 -105l-375 -184z" />
<glyph unicode="&#xd4;" horiz-adv-x="1394" d="M72 711q0 145 33.5 266t92 206t138 144t171 87t191.5 28q133 0 246 -48t196.5 -138t131 -229t47.5 -312q0 -145 -33.5 -267.5t-92 -208t-138 -145.5t-170.5 -88.5t-191 -28.5q-133 0 -246.5 49t-197 140t-131 231t-47.5 314zM223 725q0 -315 120 -487t353 -172 q221 0 346 168.5t125 459.5q0 325 -124.5 493.5t-350.5 168.5q-222 0 -345.5 -169t-123.5 -462zM440 1569l228 233h69l228 -233l-33 -43l-230 164l-229 -164z" />
<glyph unicode="&#xd5;" horiz-adv-x="1394" d="M72 711q0 145 33.5 266t92 206t138 144t171 87t191.5 28q133 0 246 -48t196.5 -138t131 -229t47.5 -312q0 -145 -33.5 -267.5t-92 -208t-138 -145.5t-170.5 -88.5t-191 -28.5q-133 0 -246.5 49t-197 140t-131 231t-47.5 314zM223 725q0 -315 120 -487t353 -172 q221 0 346 168.5t125 459.5q0 325 -124.5 493.5t-350.5 168.5q-222 0 -345.5 -169t-123.5 -462zM418 1602q63 161 176 161q44 0 117 -34.5t100 -34.5q32 0 57.5 19.5t51.5 64.5l61 -27q-64 -162 -176 -162q-44 0 -117 35t-100 35q-32 0 -57.5 -20t-51.5 -66z" />
<glyph unicode="&#xd6;" horiz-adv-x="1394" d="M72 711q0 145 33.5 266t92 206t138 144t171 87t191.5 28q133 0 246 -48t196.5 -138t131 -229t47.5 -312q0 -145 -33.5 -267.5t-92 -208t-138 -145.5t-170.5 -88.5t-191 -28.5q-133 0 -246.5 49t-197 140t-131 231t-47.5 314zM223 725q0 -315 120 -487t353 -172 q221 0 346 168.5t125 459.5q0 325 -124.5 493.5t-350.5 168.5q-222 0 -345.5 -169t-123.5 -462zM475 1632q0 34 25.5 59t60.5 25q36 0 61 -25t25 -59t-25 -60t-61 -26q-35 0 -60.5 26t-25.5 60zM786 1632q0 34 25.5 59t60.5 25q36 0 61 -25t25 -59t-25 -60t-61 -26 q-35 0 -60.5 26t-25.5 60z" />
<glyph unicode="&#xd7;" horiz-adv-x="1036" d="M154 399l299 303l-299 306l65 65l299 -305l299 305l66 -67l-299 -304l299 -303l-64 -65l-301 303l-299 -303z" />
<glyph unicode="&#xd8;" horiz-adv-x="1392" d="M72 711q0 180 51.5 322.5t139 230t198.5 133t237 45.5q213 0 369 -119l109 158h104l-150 -215q191 -197 191 -551q0 -145 -33.5 -267.5t-92.5 -208t-138.5 -145.5t-171 -88.5t-191.5 -28.5q-213 0 -366 119l-123 -178h-105l162 236q-190 200 -190 557zM223 725 q0 -305 107 -473l676 983q-118 121 -312 121q-222 0 -346.5 -169t-124.5 -462zM387 182q113 -116 309 -116q221 0 346 168.5t125 459.5q0 304 -106 469z" />
<glyph unicode="&#xd9;" horiz-adv-x="1384" d="M18 1354v65h506v-65l-186 -27v-870q0 -385 387 -385q190 0 284.5 94t94.5 291v870l-182 27v65h448v-65l-162 -27v-878q0 -225 -128 -349.5t-371 -124.5q-251 0 -382.5 121t-131.5 340v891zM477 1710l66 105l340 -236l-31 -53z" />
<glyph unicode="&#xda;" horiz-adv-x="1384" d="M18 1354v65h506v-65l-186 -27v-870q0 -385 387 -385q190 0 284.5 94t94.5 291v870l-182 27v65h448v-65l-162 -27v-878q0 -225 -128 -349.5t-371 -124.5q-251 0 -382.5 121t-131.5 340v891zM522 1579l340 236l66 -105l-375 -184z" />
<glyph unicode="&#xdb;" horiz-adv-x="1384" d="M18 1354v65h506v-65l-186 -27v-870q0 -385 387 -385q190 0 284.5 94t94.5 291v870l-182 27v65h448v-65l-162 -27v-878q0 -225 -128 -349.5t-371 -124.5q-251 0 -382.5 121t-131.5 340v891zM438 1569l228 233h69l228 -233l-33 -43l-230 164l-229 -164z" />
<glyph unicode="&#xdc;" horiz-adv-x="1384" d="M18 1354v65h506v-65l-186 -27v-870q0 -385 387 -385q190 0 284.5 94t94.5 291v870l-182 27v65h448v-65l-162 -27v-878q0 -225 -128 -349.5t-371 -124.5q-251 0 -382.5 121t-131.5 340v891zM471 1632q0 34 25.5 59t60.5 25q36 0 61 -25t25 -59t-25 -60t-61 -26 q-35 0 -60.5 26t-25.5 60zM782 1632q0 34 25.5 59t60.5 25q36 0 61 -25t25 -59t-25 -60t-61 -26q-35 0 -60.5 26t-25.5 60z" />
<glyph unicode="&#xdd;" horiz-adv-x="1236" d="M8 1354v65h434v-65l-153 -27l358 -602h6l344 602l-159 27v65h391v-65l-125 -27l-406 -694v-541l179 -26v-66h-504v66l182 26v543l-420 692zM461 1579l340 236l65 -105l-374 -184z" />
<glyph unicode="&#xde;" horiz-adv-x="1122" d="M47 0v66l180 26v1235l-180 27v65h510v-65l-186 -27v-199h223q135 0 231 -26.5t151.5 -77.5t80 -117.5t24.5 -154.5q0 -186 -123 -282.5t-317 -96.5q-81 0 -162 14v70q50 -8 142 -8q151 0 231 76t80 216q0 154 -74 224.5t-252 70.5h-235v-944l211 -26v-66h-535z" />
<glyph unicode="&#xdf;" horiz-adv-x="1171" d="M35 0v55l158 25v874h-156v56l156 37v81q0 173 124.5 285.5t319.5 112.5q158 0 257 -70t99 -192q0 -49 -25 -99t-62 -90t-81 -82.5t-81 -77t-62 -74t-25 -73.5q0 -45 26.5 -76.5t96.5 -70.5l92 -52q110 -62 146 -91q100 -82 100 -210q0 -122 -91.5 -206.5t-254.5 -84.5 q-135 0 -268 46l-12 219h73l39 -142q80 -39 170 -39q105 0 163 48t58 129q0 40 -13 71t-43 57.5t-53.5 41.5t-70.5 41l-94 53q-36 21 -57.5 34.5t-48.5 36t-41 43.5t-24.5 50.5t-10.5 64.5q0 57 33.5 114.5t80.5 105.5t94.5 95t81 101t33.5 106q0 89 -60.5 138t-164.5 49 q-154 0 -233.5 -88t-79.5 -240v-1112h-289z" />
<glyph unicode="&#xe0;" horiz-adv-x="956" d="M49 260q0 127 82.5 192.5t237.5 90.5l284 45v135q0 69 -9 111t-35.5 71.5t-71.5 41t-119 11.5q-141 0 -289 -36v71q165 72 342 72q163 0 239 -74t76 -231v-606q0 -54 25.5 -73.5t77.5 -19.5q44 0 59 5v-56q-50 -26 -135 -26q-130 0 -145 116h-9q-116 -123 -294 -123 q-143 0 -229.5 76.5t-86.5 206.5zM186 274q0 -98 56.5 -150t167.5 -52q71 0 137 29t106 73v320l-243 -19q-120 -9 -172 -59t-52 -142zM262 1348l66 104l340 -235l-31 -54z" />
<glyph unicode="&#xe1;" horiz-adv-x="956" d="M49 260q0 127 82.5 192.5t237.5 90.5l284 45v135q0 69 -9 111t-35.5 71.5t-71.5 41t-119 11.5q-141 0 -289 -36v71q165 72 342 72q163 0 239 -74t76 -231v-606q0 -54 25.5 -73.5t77.5 -19.5q44 0 59 5v-56q-50 -26 -135 -26q-130 0 -145 116h-9q-116 -123 -294 -123 q-143 0 -229.5 76.5t-86.5 206.5zM186 274q0 -98 56.5 -150t167.5 -52q71 0 137 29t106 73v320l-243 -19q-120 -9 -172 -59t-52 -142zM293 1217l340 235l65 -104l-374 -185z" />
<glyph unicode="&#xe2;" horiz-adv-x="956" d="M49 260q0 127 82.5 192.5t237.5 90.5l284 45v135q0 69 -9 111t-35.5 71.5t-71.5 41t-119 11.5q-141 0 -289 -36v71q165 72 342 72q163 0 239 -74t76 -231v-606q0 -54 25.5 -73.5t77.5 -19.5q44 0 59 5v-56q-50 -26 -135 -26q-130 0 -145 116h-9q-116 -123 -294 -123 q-143 0 -229.5 76.5t-86.5 206.5zM186 274q0 -98 56.5 -150t167.5 -52q71 0 137 29t106 73v320l-243 -19q-120 -9 -172 -59t-52 -142zM211 1206l227 234h70l227 -234l-33 -43l-229 164l-229 -164z" />
<glyph unicode="&#xe3;" horiz-adv-x="956" d="M49 260q0 127 82.5 192.5t237.5 90.5l284 45v135q0 69 -9 111t-35.5 71.5t-71.5 41t-119 11.5q-141 0 -289 -36v71q165 72 342 72q163 0 239 -74t76 -231v-606q0 -54 25.5 -73.5t77.5 -19.5q44 0 59 5v-56q-50 -26 -135 -26q-130 0 -145 116h-9q-116 -123 -294 -123 q-143 0 -229.5 76.5t-86.5 206.5zM186 274q0 -98 56.5 -150t167.5 -52q71 0 137 29t106 73v320l-243 -19q-120 -9 -172 -59t-52 -142zM190 1239q64 162 177 162q44 0 117 -35t100 -35q32 0 57 19t51 65l62 -26q-64 -162 -176 -162q-44 0 -117.5 34.5t-100.5 34.5 q-32 0 -57 -20t-51 -66z" />
<glyph unicode="&#xe4;" horiz-adv-x="956" d="M49 260q0 127 82.5 192.5t237.5 90.5l284 45v135q0 69 -9 111t-35.5 71.5t-71.5 41t-119 11.5q-141 0 -289 -36v71q165 72 342 72q163 0 239 -74t76 -231v-606q0 -54 25.5 -73.5t77.5 -19.5q44 0 59 5v-56q-50 -26 -135 -26q-130 0 -145 116h-9q-116 -123 -294 -123 q-143 0 -229.5 76.5t-86.5 206.5zM186 274q0 -98 56.5 -150t167.5 -52q71 0 137 29t106 73v320l-243 -19q-120 -9 -172 -59t-52 -142zM248 1270q0 34 25.5 59t60.5 25q36 0 61 -25t25 -59t-25 -60t-61 -26q-35 0 -60.5 26t-25.5 60zM559 1270q0 34 25.5 59t60.5 25 q36 0 61 -25t25 -59t-25 -60t-61 -26q-35 0 -60.5 26t-25.5 60z" />
<glyph unicode="&#xe5;" horiz-adv-x="956" d="M49 260q0 127 82.5 192.5t237.5 90.5l284 45v135q0 69 -9 111t-35.5 71.5t-71.5 41t-119 11.5q-141 0 -289 -36v71q165 72 342 72q163 0 239 -74t76 -231v-606q0 -54 25.5 -73.5t77.5 -19.5q44 0 59 5v-56q-50 -26 -135 -26q-130 0 -145 116h-9q-116 -123 -294 -123 q-143 0 -229.5 76.5t-86.5 206.5zM186 274q0 -98 56.5 -150t167.5 -52q71 0 137 29t106 73v320l-243 -19q-120 -9 -172 -59t-52 -142zM301 1343q0 71 50 120.5t126 49.5t126 -49.5t50 -120.5q0 -70 -50.5 -119.5t-125.5 -49.5t-125.5 49.5t-50.5 119.5zM373 1343 q0 -46 28.5 -76t75.5 -30t76 30t29 76q0 47 -29 78t-76 31q-46 0 -75 -31t-29 -78z" />
<glyph unicode="&#xe6;" horiz-adv-x="1568" d="M47 262q0 246 320 297l284 41v123q0 135 -48 185t-195 50q-150 0 -281 -36v71q165 72 342 72q239 0 287 -180q58 88 148 134t200 46q208 0 310 -139t102 -396h-730q0 -224 91 -338t286 -114q72 0 134 10.5t95.5 21.5t80.5 31v-69q-156 -92 -336 -92q-278 0 -400 184 q-59 -79 -158.5 -133t-216.5 -54q-143 0 -229 77.5t-86 207.5zM184 279q0 -99 56.5 -153t167.5 -54q82 0 159 40t138 113q-53 121 -56 283l-241 -16q-224 -16 -224 -213zM786 608l582 13q-3 360 -272 360q-139 0 -218.5 -95.5t-91.5 -277.5z" />
<glyph unicode="&#xe7;" horiz-adv-x="923" d="M57 516q0 143 41.5 251t115.5 171.5t166 95t202 31.5q150 0 274 -43v-250h-80l-28 180q-70 27 -183 27q-170 0 -269 -111.5t-99 -335.5q0 -454 393 -454q170 0 289 63v-73q-133 -88 -324 -88q-6 0 -17 1t-16 1v-82q105 -3 161 -39t56 -103q0 -158 -336 -180v62 q123 17 171.5 41.5t48.5 68.5q0 40 -40 57t-134 17v164q-190 30 -291 168.5t-101 359.5z" />
<glyph unicode="&#xe8;" horiz-adv-x="991" d="M57 528q0 247 131 392t330 145q208 0 312 -136.5t104 -387.5h-739q3 -463 383 -463q72 0 134.5 10.5t97 22t81.5 30.5v-69q-156 -92 -338 -92q-132 0 -229.5 41t-155 116.5t-84.5 172.5t-27 218zM197 618l589 13q-3 350 -276 350q-140 0 -221.5 -93.5t-91.5 -269.5z M281 1348l65 104l340 -235l-31 -54z" />
<glyph unicode="&#xe9;" horiz-adv-x="991" d="M57 528q0 247 131 392t330 145q208 0 312 -136.5t104 -387.5h-739q3 -463 383 -463q72 0 134.5 10.5t97 22t81.5 30.5v-69q-156 -92 -338 -92q-132 0 -229.5 41t-155 116.5t-84.5 172.5t-27 218zM197 618l589 13q-3 350 -276 350q-140 0 -221.5 -93.5t-91.5 -269.5z M313 1217l340 235l66 -104l-375 -185z" />
<glyph unicode="&#xea;" horiz-adv-x="991" d="M57 528q0 247 131 392t330 145q208 0 312 -136.5t104 -387.5h-739q3 -463 383 -463q72 0 134.5 10.5t97 22t81.5 30.5v-69q-156 -92 -338 -92q-132 0 -229.5 41t-155 116.5t-84.5 172.5t-27 218zM197 618l589 13q-3 350 -276 350q-140 0 -221.5 -93.5t-91.5 -269.5z M248 1206l227 234h70l227 -234l-33 -43l-229 164l-229 -164z" />
<glyph unicode="&#xeb;" horiz-adv-x="991" d="M57 528q0 247 131 392t330 145q208 0 312 -136.5t104 -387.5h-739q3 -463 383 -463q72 0 134.5 10.5t97 22t81.5 30.5v-69q-156 -92 -338 -92q-132 0 -229.5 41t-155 116.5t-84.5 172.5t-27 218zM197 618l589 13q-3 350 -276 350q-140 0 -221.5 -93.5t-91.5 -269.5z M281 1270q0 34 25.5 59t60.5 25q36 0 61 -25t25 -59t-25 -60t-61 -26q-35 0 -60.5 26t-25.5 60zM592 1270q0 34 25.5 59t60.5 25q36 0 61 -25t25 -59t-25 -60t-61 -26q-35 0 -60.5 26t-25.5 60z" />
<glyph unicode="&#xec;" horiz-adv-x="512" d="M-6 1348l65 104l340 -235l-30 -54zM6 961v61l287 35l16 -8v-969l162 -25v-55h-455v55l160 25v858z" />
<glyph unicode="&#xed;" horiz-adv-x="512" d="M20 961v61l287 35l17 -8v-969l161 -25v-55h-454v55l159 25v858zM78 1217l340 235l65 -104l-374 -185z" />
<glyph unicode="&#xee;" horiz-adv-x="512" d="M-12 1206l227 234h70l227 -234l-33 -43l-229 164l-230 -164zM14 961v61l287 35l16 -8v-969l162 -25v-55h-454v55l159 25v858z" />
<glyph unicode="&#xef;" horiz-adv-x="512" d="M4 961v61l287 35l16 -8v-969l162 -25v-55h-455v55l160 25v858zM14 1270q0 34 25.5 59t60.5 25q36 0 61 -25t25 -59t-25 -60t-61 -26q-35 0 -60.5 26t-25.5 60zM326 1270q0 34 25.5 59t60.5 25q36 0 61 -25t25 -59t-25 -60t-61 -26q-35 0 -60.5 26t-25.5 60z" />
<glyph unicode="&#xf0;" horiz-adv-x="1089" d="M57 520q0 122 37 225t101 172.5t150.5 108.5t184.5 39q201 0 316 -172q-77 221 -279 391l-274 -121v82l209 92q-105 76 -215 136l35 63q154 -68 280 -154l252 113v-84l-182 -82q352 -284 352 -749q0 -148 -37 -264.5t-102.5 -189.5t-151.5 -111t-188 -38 q-219 0 -353.5 147t-134.5 396zM197 530q0 -234 99 -351.5t251 -117.5q72 0 131 25t106.5 78t74 145t26.5 215q0 119 -30.5 210t-81.5 142.5t-110 77t-124 25.5q-151 0 -246.5 -110t-95.5 -339z" />
<glyph unicode="&#xf1;" horiz-adv-x="1171" d="M27 0v55l159 25v858l-159 23v61l268 35l16 -8v-103h8q200 119 377 119q148 0 220.5 -66t72.5 -211v-708l160 -25v-55h-451v55l160 25v672q0 111 -55 158.5t-176 47.5q-134 0 -310 -79v-799l160 -25v-55h-450zM307 1239q64 162 176 162q44 0 117 -35t100 -35 q32 0 57.5 19.5t51.5 64.5l61 -26q-64 -162 -176 -162q-44 0 -117 34.5t-100 34.5q-32 0 -57 -20t-51 -66z" />
<glyph unicode="&#xf2;" horiz-adv-x="1085" d="M57 516q0 124 39 228.5t105.5 174t155 108t186.5 38.5q210 0 348.5 -146t138.5 -393q0 -124 -39 -228.5t-106 -174t-154.5 -108t-185.5 -38.5q-103 0 -192 37t-155 104.5t-103.5 170t-37.5 227.5zM197 526q0 -119 29 -210.5t79 -145.5t111 -80.5t131 -26.5 q69 0 128.5 25.5t109 77t78 141t28.5 207.5q0 121 -29 213t-79.5 145.5t-111.5 80t-130 26.5t-129 -25.5t-109 -78t-77.5 -142t-28.5 -207.5zM330 1348l65 104l340 -235l-30 -54z" />
<glyph unicode="&#xf3;" horiz-adv-x="1085" d="M57 516q0 124 39 228.5t105.5 174t155 108t186.5 38.5q210 0 348.5 -146t138.5 -393q0 -124 -39 -228.5t-106 -174t-154.5 -108t-185.5 -38.5q-103 0 -192 37t-155 104.5t-103.5 170t-37.5 227.5zM197 526q0 -119 29 -210.5t79 -145.5t111 -80.5t131 -26.5 q69 0 128.5 25.5t109 77t78 141t28.5 207.5q0 121 -29 213t-79.5 145.5t-111.5 80t-130 26.5t-129 -25.5t-109 -78t-77.5 -142t-28.5 -207.5zM362 1217l340 235l66 -104l-375 -185z" />
<glyph unicode="&#xf4;" horiz-adv-x="1085" d="M57 516q0 124 39 228.5t105.5 174t155 108t186.5 38.5q210 0 348.5 -146t138.5 -393q0 -124 -39 -228.5t-106 -174t-154.5 -108t-185.5 -38.5q-103 0 -192 37t-155 104.5t-103.5 170t-37.5 227.5zM197 526q0 -119 29 -210.5t79 -145.5t111 -80.5t131 -26.5 q69 0 128.5 25.5t109 77t78 141t28.5 207.5q0 121 -29 213t-79.5 145.5t-111.5 80t-130 26.5t-129 -25.5t-109 -78t-77.5 -142t-28.5 -207.5zM289 1206l227 234h70l227 -234l-33 -43l-229 164l-229 -164z" />
<glyph unicode="&#xf5;" horiz-adv-x="1085" d="M57 516q0 124 39 228.5t105.5 174t155 108t186.5 38.5q210 0 348.5 -146t138.5 -393q0 -124 -39 -228.5t-106 -174t-154.5 -108t-185.5 -38.5q-103 0 -192 37t-155 104.5t-103.5 170t-37.5 227.5zM197 526q0 -119 29 -210.5t79 -145.5t111 -80.5t131 -26.5 q69 0 128.5 25.5t109 77t78 141t28.5 207.5q0 121 -29 213t-79.5 145.5t-111.5 80t-130 26.5t-129 -25.5t-109 -78t-77.5 -142t-28.5 -207.5zM266 1239q64 162 176 162q44 0 117 -35t100 -35q32 0 57.5 19.5t51.5 64.5l61 -26q-64 -162 -176 -162q-44 0 -117 34.5t-100 34.5 q-32 0 -57 -20t-51 -66z" />
<glyph unicode="&#xf6;" horiz-adv-x="1085" d="M57 516q0 124 39 228.5t105.5 174t155 108t186.5 38.5q210 0 348.5 -146t138.5 -393q0 -124 -39 -228.5t-106 -174t-154.5 -108t-185.5 -38.5q-103 0 -192 37t-155 104.5t-103.5 170t-37.5 227.5zM197 526q0 -119 29 -210.5t79 -145.5t111 -80.5t131 -26.5 q69 0 128.5 25.5t109 77t78 141t28.5 207.5q0 121 -29 213t-79.5 145.5t-111.5 80t-130 26.5t-129 -25.5t-109 -78t-77.5 -142t-28.5 -207.5zM324 1270q0 34 25.5 59t60.5 25q36 0 61 -25t25 -59t-25 -60t-61 -26q-35 0 -60.5 26t-25.5 60zM635 1270q0 34 25.5 59t60.5 25 q36 0 61 -25t25 -59t-25 -60t-61 -26q-35 0 -60.5 26t-25.5 60z" />
<glyph unicode="&#xf7;" horiz-adv-x="1044" d="M121 659v95h803v-95h-803zM424 399q0 40 28.5 67.5t69.5 27.5q40 0 68 -27.5t28 -67.5q0 -38 -28 -66t-68 -28q-41 0 -69.5 27.5t-28.5 66.5zM424 1014q0 40 28.5 67t69.5 27q40 0 68 -27t28 -67q0 -39 -28.5 -67.5t-67.5 -28.5q-41 0 -69.5 28.5t-28.5 67.5z" />
<glyph unicode="&#xf8;" horiz-adv-x="1085" d="M41 -82l152 205q-136 149 -136 393q0 124 39.5 228.5t106 174t154 108t184.5 38.5q164 0 286 -90l97 129h104l-137 -184q137 -147 137 -394q0 -124 -39 -228.5t-105.5 -174t-154 -108t-184.5 -38.5q-164 0 -289 89l-109 -148h-106zM197 526q0 -194 69 -307l500 674 q-89 86 -225 86q-69 0 -129 -25.5t-109 -78t-77.5 -142t-28.5 -207.5zM319 152q89 -89 228 -89q54 0 103 15.5t93 50t76 85.5t51 128t19 172q0 189 -70 309z" />
<glyph unicode="&#xf9;" horiz-adv-x="1165" d="M14 971v61l275 25l16 -10v-740q0 -117 50 -170t173 -53q89 0 160 21.5t152 60.5v782l-156 23v61l270 25l17 -10v-949l159 -24v-56l-266 -34l-16 10v112h-10q-166 -124 -369 -124q-295 0 -295 297v669zM356 1348l66 104l340 -235l-31 -54z" />
<glyph unicode="&#xfa;" horiz-adv-x="1165" d="M14 971v61l275 25l16 -10v-740q0 -117 50 -170t173 -53q89 0 160 21.5t152 60.5v782l-156 23v61l270 25l17 -10v-949l159 -24v-56l-266 -34l-16 10v112h-10q-166 -124 -369 -124q-295 0 -295 297v669zM403 1217l340 235l66 -104l-375 -185z" />
<glyph unicode="&#xfb;" horiz-adv-x="1165" d="M14 971v61l275 25l16 -10v-740q0 -117 50 -170t173 -53q89 0 160 21.5t152 60.5v782l-156 23v61l270 25l17 -10v-949l159 -24v-56l-266 -34l-16 10v112h-10q-166 -124 -369 -124q-295 0 -295 297v669zM326 1206l227 234h70l227 -234l-33 -43l-229 164l-230 -164z" />
<glyph unicode="&#xfc;" horiz-adv-x="1165" d="M14 971v61l275 25l16 -10v-740q0 -117 50 -170t173 -53q89 0 160 21.5t152 60.5v782l-156 23v61l270 25l17 -10v-949l159 -24v-56l-266 -34l-16 10v112h-10q-166 -124 -369 -124q-295 0 -295 297v669zM356 1270q0 34 25.5 59t60.5 25q36 0 61 -25t25 -59t-25 -60t-61 -26 q-35 0 -60.5 26t-25.5 60zM668 1270q0 34 25.5 59t60.5 25q36 0 61 -25t25 -59t-25 -60t-61 -26q-35 0 -60.5 26t-25.5 60z" />
<glyph unicode="&#xfd;" horiz-adv-x="1071" d="M2 987v60h406v-60l-148 -20l305 -772h6l281 770l-143 22v60h364v-60l-117 -22l-432 -1131q-45 -122 -106 -179.5t-170 -57.5q-75 0 -137 30v80q69 -16 104 -16q87 0 134 41.5t85 134.5l66 164l-383 934zM373 1217l340 235l65 -104l-375 -185z" />
<glyph unicode="&#xfe;" horiz-adv-x="1120" d="M2 1425v60l274 35l17 -9v-569h10q162 123 342 123q66 0 123 -14t111 -50t92 -92.5t61 -146t23 -205.5q0 -287 -133.5 -432t-368.5 -145q-133 0 -252 36v-340l178 -24v-55h-467v55l156 20v1729zM301 133q56 -33 115 -51.5t151 -18.5q353 0 353 467q0 231 -87.5 328.5 t-252.5 97.5q-135 0 -279 -82v-741z" />
<glyph unicode="&#xff;" horiz-adv-x="1071" d="M2 987v60h406v-60l-148 -20l305 -772h6l281 770l-143 22v60h364v-60l-117 -22l-432 -1131q-45 -122 -106 -179.5t-170 -57.5q-75 0 -137 30v80q69 -16 104 -16q87 0 134 41.5t85 134.5l66 164l-383 934zM324 1270q0 34 25.5 59t60.5 25q36 0 61 -25t25 -59t-25 -60 t-61 -26q-35 0 -60.5 26t-25.5 60zM635 1270q0 34 25.5 59t60.5 25q36 0 61 -25t25 -59t-25 -60t-61 -26q-35 0 -60.5 26t-25.5 60z" />
<glyph unicode="&#x152;" horiz-adv-x="1880" d="M70 684q0 362 167 548.5t523 186.5h1020l20 -334h-74l-63 248h-561v-563h313l39 197h68v-473h-68l-39 196h-313v-604h584l79 295h74l-22 -381h-1037q-374 0 -542 172.5t-168 511.5zM223 705q0 -150 24.5 -258.5t68.5 -178t117 -110t159.5 -56.5t206.5 -16h159v1247h-196 q-186 0 -302 -60t-176.5 -199.5t-60.5 -368.5z" />
<glyph unicode="&#x153;" horiz-adv-x="1818" d="M57 516q0 124 39.5 228.5t106 174t154 108t184.5 38.5q140 0 248 -68t165 -194q54 126 156 194t236 68q207 0 311 -136.5t104 -387.5h-739q0 -463 383 -463q72 0 134.5 10.5t97 22t81.5 30.5v-69q-156 -92 -340 -92q-330 0 -430 258q-60 -124 -166.5 -192.5t-236.5 -68.5 q-215 0 -351.5 145t-136.5 394zM197 526q0 -119 29 -210.5t79 -145.5t111 -80.5t131 -26.5q54 0 103 15.5t93 50t76 85.5t51 128t19 172q0 121 -29 213t-79.5 145.5t-110.5 80t-129 26.5t-129 -25.5t-109 -78t-77.5 -142t-28.5 -207.5zM1022 618l592 13q-3 350 -277 350 q-141 0 -222 -93t-93 -270z" />
<glyph unicode="&#x178;" horiz-adv-x="1236" d="M8 1354v65h434v-65l-153 -27l358 -602h6l344 602l-159 27v65h391v-65l-125 -27l-406 -694v-541l179 -26v-66h-504v66l182 26v543l-420 692zM408 1632q0 34 25.5 59t60.5 25q36 0 61 -25t25 -59t-25 -60t-61 -26q-35 0 -60.5 26t-25.5 60zM719 1632q0 34 25.5 59t60.5 25 q36 0 61 -25t25 -59t-25 -60t-61 -26q-35 0 -60.5 26t-25.5 60z" />
<glyph unicode="&#x2c6;" d="M240 1206l227 234h70l227 -234l-33 -43l-229 164l-230 -164z" />
<glyph unicode="&#x2dc;" d="M215 1239q64 162 176 162q44 0 117 -35t100 -35q32 0 57.5 19.5t51.5 64.5l61 -26q-64 -162 -176 -162q-44 0 -117 34.5t-100 34.5q-32 0 -57.5 -20t-51.5 -66z" />
<glyph unicode="&#x2000;" horiz-adv-x="931" />
<glyph unicode="&#x2001;" horiz-adv-x="1862" />
<glyph unicode="&#x2002;" horiz-adv-x="931" />
<glyph unicode="&#x2003;" horiz-adv-x="1862" />
<glyph unicode="&#x2004;" horiz-adv-x="620" />
<glyph unicode="&#x2005;" horiz-adv-x="465" />
<glyph unicode="&#x2006;" horiz-adv-x="310" />
<glyph unicode="&#x2007;" horiz-adv-x="310" />
<glyph unicode="&#x2008;" horiz-adv-x="232" />
<glyph unicode="&#x2009;" horiz-adv-x="372" />
<glyph unicode="&#x200a;" horiz-adv-x="103" />
<glyph unicode="&#x2010;" horiz-adv-x="573" d="M74 518v115h426v-115h-426z" />
<glyph unicode="&#x2011;" horiz-adv-x="573" d="M74 518v115h426v-115h-426z" />
<glyph unicode="&#x2012;" horiz-adv-x="573" d="M74 518v115h426v-115h-426z" />
<glyph unicode="&#x2013;" horiz-adv-x="761" d="M55 547v80h650v-80h-650z" />
<glyph unicode="&#x2014;" horiz-adv-x="1306" d="M55 547v80h1194v-80h-1194z" />
<glyph unicode="&#x2018;" horiz-adv-x="366" d="M94 1040q24 212 103 379h86q-41 -195 -41 -379h-148z" />
<glyph unicode="&#x2019;" horiz-adv-x="366" d="M86 1040q41 192 41 379h147q-24 -212 -104 -379h-84z" />
<glyph unicode="&#x201a;" horiz-adv-x="366" d="M86 -205q41 192 41 379h147q-24 -212 -104 -379h-84z" />
<glyph unicode="&#x201c;" horiz-adv-x="626" d="M94 1040q24 212 103 379h86q-41 -195 -41 -379h-148zM354 1040q24 212 103 379h86q-41 -195 -41 -379h-148z" />
<glyph unicode="&#x201d;" horiz-adv-x="626" d="M86 1040q41 192 41 379h147q-24 -212 -104 -379h-84zM346 1040q41 192 41 379h148q-23 -206 -103 -379h-86z" />
<glyph unicode="&#x201e;" horiz-adv-x="626" d="M86 -205q41 192 41 379h147q-24 -212 -104 -379h-84zM346 -205q41 192 41 379h148q-23 -206 -103 -379h-86z" />
<glyph unicode="&#x2022;" horiz-adv-x="1667" d="M72 731q0 155 60 295.5t161.5 242.5t242 162t295.5 60t296.5 -60t244.5 -162t164 -242.5t61 -295.5t-61 -296.5t-164 -243.5t-244.5 -163t-296.5 -61t-295.5 61t-242 163.5t-161.5 243.5t-60 296z" />
<glyph unicode="&#x2026;" horiz-adv-x="1179" d="M90 74q0 40 29 68t69 28q41 0 70 -28t29 -68q0 -41 -29 -70t-70 -29q-40 0 -69 29t-29 70zM494 74q0 40 28.5 68t69.5 28q40 0 69 -28t29 -68q0 -41 -29 -70t-69 -29q-41 0 -69.5 29t-28.5 70zM897 74q0 40 28.5 68t69.5 28q40 0 69.5 -28.5t29.5 -67.5q0 -41 -29.5 -70 t-69.5 -29q-41 0 -69.5 29t-28.5 70z" />
<glyph unicode="&#x202f;" horiz-adv-x="372" />
<glyph unicode="&#x2039;" horiz-adv-x="483" d="M86 492v51l215 370h92l-184 -395l184 -397h-92z" />
<glyph unicode="&#x203a;" horiz-adv-x="483" d="M90 121l184 395l-184 397h92l215 -370v-51l-215 -371h-92z" />
<glyph unicode="&#x205f;" horiz-adv-x="465" />
<glyph unicode="&#x20ac;" horiz-adv-x="1226" d="M47 530v82h154q0 13 -1 41.5t-1 44.5q0 53 2 80h-154v82h160q18 158 74.5 274t139 181.5t176.5 96t202 30.5q161 0 315 -53l10 -306h-67l-62 228q-88 45 -213 45q-184 0 -297 -124t-139 -372h483v-82h-489v-55q0 -76 2 -111h487v-82h-479q28 -243 140 -348.5t313 -105.5 q167 0 332 76v-74q-150 -101 -355 -101q-241 0 -390 133t-183 420h-160z" />
<glyph unicode="&#x2122;" horiz-adv-x="1400" d="M47 1241l8 178h482l10 -178h-58l-28 125h-117v-448l78 -13v-43h-250v43l76 13v448h-117l-29 -125h-55zM623 862v43l77 13v446l-77 12v43h213l153 -399h4l158 399h217v-43l-82 -12v-446l82 -13v-43h-244v43l68 13v423h-6l-180 -452h-58l-176 452h-6v-423l70 -13v-43h-213z " />
<glyph unicode="&#x25fc;" horiz-adv-x="1044" d="M0 0v1044h1044v-1044h-1044z" />
</font>
</defs>
</svg>
